<svg width="58" height="58" viewBox="0 0 58 58" fill="none" xmlns="http://www.w3.org/2000/svg">
<path fill-rule="evenodd" clip-rule="evenodd" d="M30.9797 58H3.20115C1.43269 58 0 56.5664 0 54.7986V3.20114C0 1.43291 1.43291 0 3.20115 0H54.7991C56.5669 0 58 1.43291 58 3.20114V54.7986C58 56.5666 56.5666 58 54.7991 58H40.0192V35.5392H47.5582L48.6871 26.7858H40.0192V21.1974C40.0192 18.6631 40.7229 16.936 44.3571 16.936L48.9923 16.934V9.10491C48.1906 8.99823 45.4391 8.7599 42.238 8.7599C35.555 8.7599 30.9797 12.8392 30.9797 20.3305V26.7858H23.4213V35.5392H30.9797V58Z" fill="#4460A0"/>
</svg>
