<svg width="54" height="54" viewBox="0 0 54 54" fill="none" xmlns="http://www.w3.org/2000/svg">
<path d="M42.2609 0H11.5257C5.16023 0 0 5.16023 0 11.5257V42.2609C0 48.6263 5.16023 53.7865 11.5257 53.7865H42.2609C48.6263 53.7865 53.7865 48.6263 53.7865 42.2609V11.5257C53.7865 5.16023 48.6263 0 42.2609 0Z" fill="url(#paint0_radial_90_17)"/>
<path d="M42.2609 0H11.5257C5.16023 0 0 5.16023 0 11.5257V42.2609C0 48.6263 5.16023 53.7865 11.5257 53.7865H42.2609C48.6263 53.7865 53.7865 48.6263 53.7865 42.2609V11.5257C53.7865 5.16023 48.6263 0 42.2609 0Z" fill="url(#paint1_radial_90_17)"/>
<path d="M42.2609 0H11.5257C5.16023 0 0 5.16023 0 11.5257V42.2609C0 48.6263 5.16023 53.7865 11.5257 53.7865H42.2609C48.6263 53.7865 53.7865 48.6263 53.7865 42.2609V11.5257C53.7865 5.16023 48.6263 0 42.2609 0Z" fill="url(#paint2_radial_90_17)"/>
<path d="M40.34 16.328C40.34 17.9193 39.0499 19.2094 37.4586 19.2094C35.8673 19.2094 34.5771 17.9193 34.5771 16.328C34.5771 14.7366 35.8673 13.4465 37.4586 13.4465C39.0499 13.4465 40.34 14.7366 40.34 16.328Z" fill="white"/>
<path fill-rule="evenodd" clip-rule="evenodd" d="M26.8928 36.4979C32.1973 36.4979 36.4976 32.1977 36.4976 26.8932C36.4976 21.5887 32.1973 17.2885 26.8928 17.2885C21.5883 17.2885 17.2881 21.5887 17.2881 26.8932C17.2881 32.1977 21.5883 36.4979 26.8928 36.4979ZM26.8928 32.656C30.0756 32.656 32.6557 30.076 32.6557 26.8932C32.6557 23.7104 30.0756 21.1303 26.8928 21.1303C23.71 21.1303 21.13 23.7104 21.13 26.8932C21.13 30.076 23.71 32.656 26.8928 32.656Z" fill="white"/>
<path fill-rule="evenodd" clip-rule="evenodd" d="M7.68359 26.1248C7.68359 19.6699 7.68359 16.4423 8.93982 13.9769C10.0448 11.8081 11.808 10.0449 13.9767 8.93994C16.4422 7.68372 19.6697 7.68372 26.1247 7.68372H27.6615C34.1164 7.68372 37.344 7.68372 39.8093 8.93994C41.9781 10.0449 43.7413 11.8081 44.8463 13.9769C46.1026 16.4423 46.1026 19.6699 46.1026 26.1248V27.6616C46.1026 34.1165 46.1026 37.3441 44.8463 39.8095C43.7413 41.9782 41.9781 43.7415 39.8093 44.8464C37.344 46.1027 34.1164 46.1027 27.6615 46.1027H26.1247C19.6697 46.1027 16.4422 46.1027 13.9767 44.8464C11.808 43.7415 10.0448 41.9782 8.93982 39.8095C7.68359 37.3441 7.68359 34.1165 7.68359 27.6616V26.1248ZM26.1247 11.5256H27.6615C30.9524 11.5256 33.1894 11.5286 34.9186 11.6699C36.6031 11.8075 37.4644 12.0569 38.0653 12.3631C39.511 13.0998 40.6864 14.2752 41.4231 15.721C41.7293 16.3218 41.9789 17.1832 42.1164 18.8677C42.2576 20.5969 42.2607 22.8339 42.2607 26.1248V27.6616C42.2607 30.9525 42.2576 33.1895 42.1164 34.9187C41.9789 36.6032 41.7293 37.4646 41.4231 38.0654C40.6864 39.5111 39.511 40.6866 38.0653 41.4232C37.4644 41.7295 36.6031 41.979 34.9186 42.1165C33.1894 42.2577 30.9524 42.2608 27.6615 42.2608H26.1247C22.8337 42.2608 20.5968 42.2577 18.8675 42.1165C17.1831 41.979 16.3217 41.7295 15.7208 41.4232C14.2751 40.6866 13.0997 39.5111 12.363 38.0654C12.0568 37.4646 11.8074 36.6032 11.6698 34.9187C11.5285 33.1895 11.5255 30.9525 11.5255 27.6616V26.1248C11.5255 22.8339 11.5285 20.5969 11.6698 18.8677C11.8074 17.1832 12.0568 16.3218 12.363 15.721C13.0997 14.2752 14.2751 13.0998 15.7208 12.3631C16.3217 12.0569 17.1831 11.8075 18.8675 11.6699C20.5968 11.5286 22.8337 11.5256 26.1247 11.5256Z" fill="white"/>
<defs>
<radialGradient id="paint0_radial_90_17" cx="0" cy="0" r="1" gradientUnits="userSpaceOnUse" gradientTransform="translate(19.2095 40.3399) rotate(-55.3758) scale(49.0218)">
<stop stop-color="#B13589"/>
<stop offset="0.79309" stop-color="#C62F94"/>
<stop offset="1" stop-color="#8A3AC8"/>
</radialGradient>
<radialGradient id="paint1_radial_90_17" cx="0" cy="0" r="1" gradientUnits="userSpaceOnUse" gradientTransform="translate(17.2885 55.7075) rotate(-65.1363) scale(43.4023)">
<stop stop-color="#E0E8B7"/>
<stop offset="0.444662" stop-color="#FB8A2E"/>
<stop offset="0.71474" stop-color="#E2425C"/>
<stop offset="1" stop-color="#E2425C" stop-opacity="0"/>
</radialGradient>
<radialGradient id="paint2_radial_90_17" cx="0" cy="0" r="1" gradientUnits="userSpaceOnUse" gradientTransform="translate(-2.88142 1.92095) rotate(-8.1301) scale(74.7074 15.9791)">
<stop offset="0.156701" stop-color="#406ADC"/>
<stop offset="0.467799" stop-color="#6A45BE"/>
<stop offset="1" stop-color="#6A45BE" stop-opacity="0"/>
</radialGradient>
</defs>
</svg>
