<svg width="62" height="62" viewBox="0 0 62 62" fill="none" xmlns="http://www.w3.org/2000/svg">
<g clip-path="url(#clip0_73_215)">
<path d="M12.0913 45.8913L11.7378 45.962C11.9499 45.8913 12.0206 45.8206 12.0913 45.8913Z" fill="white"/>
<path d="M14.4956 45.6085C14.3542 45.6085 14.4249 45.5378 14.4956 45.6085V45.6085Z" fill="white"/>
<path d="M53.5988 27.86C53.1745 28.0015 52.6795 28.2136 52.7503 28.2843L52.8917 28.2843C53.2452 28.0722 53.4574 28.0015 53.5988 27.86Z" fill="white"/>
<path d="M32.5269 39.0323L32.6683 39.0323C32.739 38.9616 32.8097 38.8909 32.8804 38.8202C32.8097 38.8909 32.6683 38.8909 32.5269 39.0323Z" fill="white"/>
<path d="M32.3855 39.5981L31.8198 39.7395C31.8905 39.6688 32.1027 39.5981 32.3855 39.5981Z" fill="white"/>
<path d="M4.59622 37.5474C4.59622 37.406 4.59622 37.2646 4.59622 37.1231C4.38409 37.7595 4.52551 37.4767 4.59622 37.5474Z" fill="white"/>
<path d="M12.8694 44.6893C12.6572 44.76 12.6572 44.76 12.6572 44.76C12.8694 44.6893 13.0108 44.6893 12.8694 44.6893Z" fill="white"/>
<path d="M55.3662 17.8899C55.2954 17.8192 55.0833 17.7485 54.9419 17.6071C55.0126 17.6778 55.0833 17.7485 55.3662 17.8899Z" fill="white"/>
<path d="M19.0918 21.7789C19.2332 21.6375 19.3746 21.6375 19.0918 21.7789V21.7789Z" fill="white"/>
<path d="M46.5277 33.3755C46.8813 33.022 47.0934 32.9513 47.5177 32.8098L47.0227 32.7391L46.5277 33.3755Z" fill="white"/>
<path d="M58.1241 24.7488C58.1241 24.7488 58.1948 24.1124 57.912 24.3953C57.2756 25.5974 56.4977 26.658 56.7099 26.7287C57.1341 26.163 57.5584 25.5974 57.912 24.961C58.1241 25.0317 57.1341 26.3045 57.2756 26.3045C56.7806 26.7994 56.3563 27.2237 55.8613 27.7187C56.0028 27.5773 56.5685 27.0116 56.2856 27.153C55.7199 27.7187 56.0028 27.4358 55.5078 27.7894C56.1442 27.0116 56.9927 25.4559 57.1341 24.8903C56.9927 25.1731 56.8513 25.4559 56.6392 25.6681L56.427 25.7388C55.7199 26.7287 55.1542 27.8601 54.9421 28.2137C54.3764 28.6379 54.3764 28.2137 54.4471 28.1429C53.3158 28.9915 53.5279 29.345 52.3258 30.1228L52.8208 29.9107C52.6087 30.1228 51.4066 30.7592 51.6187 30.6885C51.3359 30.8299 50.9823 30.7592 51.2652 30.6178L50.2752 31.4663C50.4166 31.3249 50.2045 31.2542 50.2752 31.1835C49.8509 31.4663 49.6388 31.8199 49.9216 31.6785C49.0024 32.032 49.2145 31.9613 48.4367 32.1735C48.1539 32.3149 48.5781 32.3149 48.7903 32.2442C48.2246 32.6684 47.871 32.7391 47.5882 32.8806C48.5074 32.2442 47.5882 32.3149 47.7296 32.032C47.1639 32.5977 46.4568 33.1634 45.8911 33.7291C45.9618 33.6584 45.9619 33.3755 45.9619 33.3755C45.8204 33.6584 43.3456 34.8605 42.1435 35.3554L42.3556 35.2847C42.5677 35.0726 41.5071 35.5676 41.0828 35.8504C41.1535 35.7797 41.2242 35.709 41.4364 35.6383C40.5171 35.8504 40.5171 36.4161 39.5979 36.6282C40.3757 36.2747 40.4464 36.204 40.3757 36.1332C39.7393 36.4868 38.3251 37.0525 38.6787 37.1232C38.2544 37.2646 37.9008 37.4768 37.9008 37.3353L36.4159 38.1131C36.4866 38.0424 36.628 37.901 36.1331 38.1131C37.0523 37.7596 37.7594 37.1939 38.2544 37.1232C38.2544 36.9818 37.9008 37.0525 38.1837 36.7696C36.5573 37.5475 35.7088 38.1131 34.7896 38.7495L33.3046 39.2445L33.2339 39.3152L32.9511 39.1738C32.8097 39.3152 32.6682 39.3152 32.5975 39.3859C32.5975 39.3859 32.5975 39.3859 32.6682 39.3152C32.4561 39.3859 32.3854 39.4567 32.3147 39.5274C32.244 39.4567 32.4561 39.2445 32.6682 39.0324C32.8097 39.0324 32.9511 39.0324 33.1632 38.9617C33.3753 38.7495 33.5875 38.5374 33.1632 38.6788C33.0925 38.7495 33.0925 38.7495 32.9511 38.7495C33.0925 38.6081 33.1632 38.5374 33.0218 38.5374L31.8904 39.1031C32.0318 39.1031 32.244 39.0324 32.4561 38.9617C31.8197 39.3152 31.0419 39.8102 31.749 39.6688L30.9005 39.9516C29.9105 40.5173 30.1227 40.4466 28.9913 41.0123C28.9206 40.9416 29.2034 40.8002 28.9913 40.8709C28.1428 41.4365 26.6578 41.5073 26.5871 41.7194C25.88 42.0022 26.3043 42.0022 25.88 42.1437C25.88 42.1437 25.9507 42.0729 25.8093 42.0729L25.3143 42.4265C25.1022 42.4972 25.8093 42.2144 25.1022 42.3558C24.0415 42.8508 23.4759 43.1336 22.5566 43.3457C21.2838 43.77 23.193 43.4164 22.0616 43.6993C21.8495 43.6286 21.7081 43.6286 21.001 43.77C20.6474 43.9821 20.7181 44.0528 20.1525 44.1943V44.0528C19.5868 44.1943 19.0918 44.4064 19.0918 44.265C18.5968 44.4771 18.314 44.4771 18.0311 44.6185C17.1826 44.9014 18.7382 44.76 19.0211 44.76C18.1726 44.9014 17.5362 45.1135 17.0412 45.0428L17.819 44.8307C16.1927 45.0428 16.2634 45.3963 15.4148 45.2549C15.9805 45.1135 16.6169 44.9014 16.3341 44.9014L15.5563 45.1135C15.4148 45.1135 15.9805 44.9721 15.627 45.0428C15.4148 45.1135 14.9199 45.3256 14.7077 45.3963C14.2128 45.4671 13.7885 45.6085 13.3642 45.6085C13.5056 45.6085 13.5764 45.5378 13.2935 45.5378C12.94 45.6085 12.5864 45.6792 12.3036 45.6792C12.6571 45.6085 12.2329 45.6085 11.8086 45.6085C11.1015 45.6085 10.8894 45.6792 10.6772 45.7499C10.4651 45.8206 10.253 45.8913 9.75798 45.6792C9.89941 45.6792 9.8994 45.6792 10.0408 45.6792L9.47514 45.5378C9.33372 45.6792 8.5559 45.6085 7.8488 45.3256C6.92956 45.2549 6.29316 44.76 6.08103 44.8307C5.51534 44.1236 6.08103 44.8307 7.00027 45.1842C6.85885 45.0428 6.64671 44.8307 6.36387 44.6892C6.64671 44.8307 6.85885 45.0428 7.28311 45.1842C6.36387 44.5478 5.51534 43.9821 5.09108 43.4164C5.02037 43.2043 5.09108 43.275 5.16179 43.2043C5.16179 43.2043 5.16179 43.0629 4.87895 42.4972C4.31326 40.9416 4.73753 42.9215 4.45468 41.9315C4.38397 41.7194 4.31326 41.5073 4.38397 41.2951C4.03042 39.9516 4.31326 38.9617 4.52539 38.0424C4.52539 37.7596 4.5961 37.6889 4.5961 37.5475C4.94966 36.4868 5.16179 35.2847 5.58605 34.5776C5.58605 34.8605 5.93961 34.2241 6.01032 34.1533C6.29316 33.7291 6.43458 33.3048 6.71742 32.8806C6.43458 33.4462 6.43458 33.4462 6.50529 33.6584C6.71742 33.3048 6.85885 33.022 6.92956 32.8098C6.85885 32.8806 6.78814 33.0927 7.00027 32.8806C7.2124 32.3856 7.49524 31.9613 7.77808 31.5371C7.70737 31.6078 7.56595 31.7492 7.49524 31.8199C7.70737 31.4663 8.13164 30.7592 8.62661 30.4057C8.62661 30.4057 8.5559 30.6178 8.48519 30.6885C8.06093 30.9714 8.06093 31.2542 7.99022 31.4663C8.5559 30.6178 8.20235 31.2542 8.5559 30.9007C8.98017 30.335 9.12159 30.0521 8.90945 30.1228C9.47514 29.5572 9.68727 29.345 10.1822 28.5672L10.1115 28.7793L10.6065 28.1429L10.3237 28.7086C11.455 27.7187 10.3944 28.3551 11.5965 27.153L11.6672 27.2237C12.0914 26.7994 12.1621 26.4459 12.6571 26.2338C13.0814 25.8095 11.7379 26.8701 12.7985 25.8095C13.0814 25.6681 13.5056 25.3852 13.7885 25.1024C14.0713 24.8195 13.5764 25.1731 13.2935 25.3145C14.9199 23.971 14.4956 24.8195 15.9805 23.476C15.3441 23.8296 16.3341 22.9811 14.9906 23.9003C15.5563 23.3346 16.3341 23.1225 16.8998 22.5568L16.6169 22.9811C16.8998 22.8396 17.1119 22.6275 17.2533 22.4861L17.2533 22.6275C17.9604 21.9204 18.8797 21.7083 19.2332 21.2133C19.0211 21.5668 19.8696 20.8597 20.2232 20.6476C19.5868 21.1426 18.1726 21.8497 18.2433 22.0618C18.5968 21.8497 18.8089 21.6376 19.2332 21.4961C19.0211 21.7083 18.7382 21.8497 18.6675 21.9204C19.7989 21.3547 20.2232 20.789 20.9303 20.3648L19.7989 21.0719C19.7989 20.789 20.2939 20.7183 20.5767 20.4355C21.001 20.5769 21.4252 20.1526 21.9202 19.9405C21.8495 20.0112 21.7788 20.0819 21.6374 20.0819C22.9102 19.3748 23.4051 19.4455 23.9708 19.3041C24.4658 19.092 25.4558 18.5263 25.0315 18.6677C25.4558 18.3849 23.3344 19.5162 23.9001 18.9506C24.7486 18.8091 25.4558 18.102 27.2235 17.6071C26.5164 18.0313 27.7185 17.5363 27.0821 17.8899C27.8599 17.5363 27.8599 17.5363 28.2135 17.3242L28.4963 17.3242C29.4863 16.7585 28.7084 17.1121 30.2641 16.405C29.7691 16.6171 30.9005 16.3343 30.5469 16.5464C30.9712 16.405 31.3954 16.2635 31.749 16.0514L31.6783 16.1221C33.4461 15.6272 33.1632 15.91 34.6481 15.415L34.5067 15.415C36.4866 14.8493 39.1029 14.4958 41.2242 14.3544C40.9414 14.3544 40.8 14.3544 40.5171 14.3544C40.8707 14.2836 41.9313 14.2129 42.5677 14.2836C42.4263 14.2836 42.2142 14.3544 42.0728 14.3544C42.1435 14.4251 42.3556 14.4958 42.9213 14.4958L43.1334 14.4251L43.3456 14.4958C44.1941 14.4958 43.0627 14.3544 43.9112 14.3544C44.1234 14.4251 45.0426 14.4958 45.8204 14.5665C46.7397 14.6372 47.5882 14.7786 47.9417 14.8493C48.5074 14.7079 46.4568 14.6372 47.0932 14.5665C47.3054 14.6372 47.4468 14.6372 47.9417 14.7079L47.8003 14.5665C49.0024 14.7786 49.8509 14.92 50.558 15.2029C51.3359 15.415 52.1137 15.6272 53.0329 15.9807L52.8915 15.9807C53.5986 16.2635 53.9522 16.4757 54.3057 16.5464C54.4471 16.6878 53.9522 16.4757 54.1643 16.6878C55.5078 17.0414 56.3563 18.1727 56.9927 18.6677C56.7806 18.7384 57.6998 20.2233 57.0634 19.7284C57.2048 19.8698 57.2756 19.9405 57.3463 20.1526C57.2048 20.1526 56.9927 19.7991 56.7806 19.4455C56.4977 19.1627 56.2149 18.8798 56.0028 18.8091C55.6492 18.4556 55.2249 18.0313 54.8007 17.7485C54.8714 17.8192 54.5178 17.7485 54.8007 17.8899C54.4471 17.6778 54.1643 17.5363 54.5886 17.8192C53.0329 16.6878 51.053 16.1221 49.0024 15.7686C47.0225 15.4857 44.9719 15.415 42.992 15.2736C42.7092 15.2736 42.9213 15.3443 42.992 15.415C42.2849 15.2736 42.2849 15.5564 41.8606 15.5564L40.7293 15.415C40.305 15.5564 40.5878 15.5564 40.5878 15.5564C38.5372 15.7686 36.628 15.8393 35.0017 16.3343C34.5067 16.405 35.0724 16.1221 34.3653 16.2635C35.3552 16.2635 32.3854 16.8292 33.0925 16.8292C32.3854 16.8292 30.6883 17.3949 30.9005 17.0414C30.1227 17.2535 30.2641 17.3949 30.4762 17.3242C29.557 17.5363 28.8499 17.8192 28.1428 18.2434C27.9306 18.3142 26.87 18.6677 25.8093 19.1627C24.8194 19.587 23.688 20.1526 23.2637 20.1526C23.8294 20.0112 23.2637 20.2941 22.7687 20.5062L23.2637 20.4355L22.1324 21.0012C21.9202 21.0719 21.8495 21.1426 21.8495 21.1426C21.9909 21.0012 22.1324 20.8597 21.6374 21.0719C20.8596 21.4254 20.8596 21.5668 20.506 21.9204L20.6474 21.9204L20.1525 22.1325C19.7989 22.3447 21.4252 21.284 20.1525 21.8497C20.1525 21.8497 19.5161 22.4861 19.1625 22.5568C19.7989 22.2032 19.6575 22.2032 19.4453 22.274C19.1625 22.4154 18.8797 22.5568 18.5968 22.8396L18.9504 22.7689C16.5462 24.3246 14.0713 26.0923 11.95 28.2137C11.8086 28.0722 10.3944 29.7693 10.4651 29.4157L10.5358 29.345C11.1015 28.7793 10.253 29.345 9.8994 29.84C10.3237 29.4157 9.33372 30.8299 10.3237 29.6986L9.61656 30.6885C9.54585 31.0421 9.05088 31.6785 8.48519 32.3856C7.91951 33.0927 7.28311 34.0119 6.92956 34.7897C7.00027 34.719 6.92956 34.6483 6.92956 34.6483C6.29316 36.1332 5.44463 37.8303 5.44463 38.2546L5.30321 38.396C5.30321 39.1031 5.30321 39.3859 5.30321 39.8102C5.30321 40.2345 5.30321 40.6587 5.44463 41.3658C5.44463 41.3658 5.37392 41.1537 5.37392 41.4365C5.58605 41.7901 5.65676 42.1437 6.22245 42.9922C6.50529 43.4164 6.85885 43.77 7.42453 44.0528C7.28311 44.1943 7.91951 44.5478 8.76803 44.6892C9.54585 44.9014 10.3944 44.9014 10.6772 45.0428C11.0308 44.9721 12.2329 44.9014 12.7985 44.76C12.7985 44.76 12.7985 44.76 12.94 44.76C13.5764 44.5478 14.8492 44.5478 15.627 44.3357C16.0512 44.1943 15.9098 44.1943 15.627 44.1943C16.6169 44.1943 18.2433 43.4164 18.5261 43.4164C19.2332 43.275 18.8089 43.4164 19.0211 43.4872C20.011 43.2043 18.7382 43.2043 20.1525 42.9215C19.8696 43.0629 19.5868 43.2043 19.6575 43.1336C20.2232 42.9922 21.2131 43.1336 21.7788 42.8508L21.4252 42.9215C22.3445 42.5679 23.7587 42.4265 23.8294 42.2144L23.7587 42.1437C25.4558 41.7194 24.4658 41.8608 26.0921 41.3658C26.7993 41.083 27.2235 41.083 27.5064 40.8002L27.2942 40.8709C28.2135 40.5173 28.2135 40.5173 29.1327 40.1638C29.2034 40.093 29.6277 39.9516 29.8398 39.8809C29.8398 39.7395 31.8904 38.9617 32.3147 38.8203C31.6076 39.1031 31.9611 39.0324 32.244 39.0324C32.6682 38.7495 32.8804 38.6788 33.5168 38.4667C33.5875 38.2546 33.5168 38.0424 34.7189 37.5475C34.5774 37.6889 34.2946 37.8303 34.3653 37.7596C34.5067 37.7596 34.7896 37.6182 34.8603 37.5475C35.0017 37.5475 34.6481 37.7596 34.7896 37.7596C35.426 37.2646 36.0624 37.1939 37.1937 36.6282C36.8402 36.8404 37.1937 36.7696 37.3351 36.7696C37.3351 36.4868 38.8908 36.3454 38.3958 36.2747C40.5878 35.4969 43.7698 33.8705 44.6891 33.6584C44.9719 33.6584 45.4669 33.1634 45.8204 33.0927L45.8204 33.2341C46.7397 32.5977 46.5982 32.7391 47.7296 32.032C47.2346 32.3856 47.5175 32.3856 48.0125 32.1735L48.7196 31.6078L48.9317 31.6785C49.2145 31.3956 49.6388 31.2542 49.9924 31.0421C50.2752 30.7592 51.4773 29.9814 51.6187 29.84C52.1137 29.7693 52.5379 29.2036 52.8208 29.2036C52.8915 29.1329 53.0329 28.9915 53.1743 28.8501C52.9622 28.9208 52.8915 28.85 53.1743 28.7086L53.245 28.6379L53.3865 28.6379C53.6693 28.3551 54.0229 28.1429 54.1643 28.0015C54.0936 28.0722 53.9522 28.0722 53.8107 28.2137C53.8814 28.1429 54.0936 28.0722 54.1643 28.0015C54.3057 27.8601 54.5886 27.7187 54.8007 27.5065C55.9321 26.7994 56.7099 25.4559 57.4877 24.3953C57.3463 24.5367 57.2048 24.8195 57.2048 24.8195C57.3463 24.6781 57.5584 24.3246 57.7705 23.8296C57.912 23.4053 58.0534 22.9811 58.1241 22.7689L58.2655 22.3447L58.4069 22.3447C58.4069 21.9204 58.4776 21.4254 58.3362 21.0012L58.4069 20.6476L58.5484 20.9305L58.6898 21.4961C58.6898 21.2133 58.7605 21.0012 58.6898 20.6476C59.0433 21.7083 58.9019 22.8396 58.4776 23.8296C58.3362 24.2539 58.1948 24.5367 58.1241 24.7488ZM22.0616 20.9305L22.2738 20.8597C22.3445 20.789 22.4152 20.7183 22.0616 20.9305ZM17.8897 44.76C17.5362 44.8307 17.324 44.76 17.1119 44.9721C17.324 45.0428 17.6776 44.8307 17.8897 44.76ZM49.7095 30.7592C49.5681 30.9007 49.6388 30.8299 49.7095 30.7592V30.7592Z" fill="white"/>
<path d="M32.3855 39.4566C32.3148 39.5273 32.3148 39.5273 32.3855 39.4566C32.1734 39.5273 32.2441 39.598 32.3855 39.4566Z" fill="white"/>
<path d="M53.7401 29.2743C54.5886 28.7086 53.8108 29.0622 54.5886 28.5672C54.7301 28.4258 53.9522 28.9208 54.0937 28.7793C53.7401 29.1329 53.4573 29.2743 53.7401 29.2743Z" fill="white"/>
<path d="M56.8515 19.3748C56.9929 19.5163 57.0636 19.7284 57.1343 19.7991C57.1343 19.6577 57.0636 19.587 56.9929 19.5163L56.8515 19.3748Z" fill="white"/>
<path d="M57.4876 20.1526L57.4169 20.3648L57.6997 20.6476C57.629 20.4355 57.5583 20.2234 57.4876 20.1526Z" fill="white"/>
<path d="M19.5868 44.6185C19.5161 44.5478 19.3746 44.5478 19.0918 44.6892L19.5868 44.6185Z" fill="white"/>
<path d="M11.3134 45.9621L11.4548 45.9621L11.2427 45.8914L11.3134 45.9621Z" fill="white"/>
<path d="M4.66672 42.9922C4.80814 43.2751 5.02028 43.6286 5.1617 43.9115C4.73743 43.3458 4.80814 42.8508 4.66672 42.9922Z" fill="white"/>
<path d="M46.9517 16.2635C46.8809 16.3343 46.7395 16.3343 46.8102 16.405L46.8809 16.4757C46.8809 16.3343 46.8809 16.3343 46.9517 16.2635Z" fill="white"/>
<path d="M41.79 24.1124L41.7192 24.1831C41.7899 24.2538 41.7192 24.1831 41.79 24.1124Z" fill="white"/>
<path d="M46.8812 17.8898C46.8105 17.8191 46.8812 17.7484 46.9519 17.6777H46.8105L46.8812 17.8898Z" fill="white"/>
<path d="M48.0126 15.91L47.8712 15.7686C47.7298 15.91 47.8712 16.1928 47.9419 16.2635L48.0126 15.91C48.0126 15.91 47.8712 16.1928 48.0126 16.1928L47.8005 16.405L47.8005 16.2635C47.7298 16.3342 47.7298 16.3342 47.6591 16.405C47.5883 16.1928 47.5176 15.8393 47.3762 15.6978V15.8393L47.3055 15.91C47.2348 16.1221 47.5176 16.405 47.5176 16.5464C47.4469 16.6171 47.3055 16.4757 47.3055 16.4757C47.2348 16.6878 47.4469 16.7585 47.3055 17.0413L47.3762 16.9706C47.3762 16.9706 47.1641 17.1828 47.3055 17.1828C47.2348 17.2535 47.1641 17.1828 47.0934 17.1121L47.1641 17.3242L47.0227 17.1828C46.9519 17.2535 47.0934 17.3949 47.1641 17.3242C46.9519 17.3949 47.0934 17.3949 46.8812 17.4656L47.0934 17.5363C47.0934 17.6777 47.0227 17.7485 47.0227 17.7485C47.0934 17.5363 46.7398 17.4656 46.6691 17.3949L46.9519 17.9606L46.8105 17.8192C46.8812 17.8899 46.7398 18.3141 46.5984 18.4556C46.5277 18.3849 46.3863 18.5263 46.457 18.597C46.457 18.597 46.457 18.597 46.5277 18.5263C46.3156 18.597 46.6691 18.8091 46.457 18.8798C46.5277 18.8091 46.457 18.7384 46.457 18.7384C46.457 18.8798 46.2448 19.092 46.3863 19.092C46.3156 19.1627 46.3155 19.1627 46.2448 19.092L46.2448 19.3748C46.2448 19.3748 46.1741 19.3041 46.1034 19.3748C46.2448 19.2334 46.1741 19.0212 46.3156 19.0212C46.2448 18.9505 46.1741 19.0212 46.1741 18.8798C46.0327 19.1627 46.1034 19.3748 46.1741 19.5869L45.962 19.7991L45.8206 19.7991L45.8913 19.8698C45.8913 19.8698 45.8913 19.8698 45.8206 19.9405C45.7499 19.8698 45.7499 19.8698 45.6792 19.7991L45.7499 19.7284C45.6792 19.6576 45.7499 19.5869 45.6084 19.5869C45.5377 19.5162 45.5377 19.5162 45.5377 19.5162L45.467 19.7284C45.467 19.7284 45.5377 19.6576 45.6084 19.7284C45.6084 19.8698 45.6084 20.0112 45.7499 20.0112L45.6084 20.1526C45.6792 20.3647 45.6084 20.294 45.6084 20.5769L45.5377 20.5062C45.6084 20.7183 45.1842 20.7183 45.2549 20.789C45.2549 20.9304 45.3256 20.8597 45.3256 21.0011L45.3256 21.1426C45.3256 21.1426 45.3256 21.0011 45.2549 21.0719C45.1842 21.284 45.1842 21.4254 45.0428 21.4254C44.972 21.6375 45.2549 21.4961 45.1135 21.6375C45.0428 21.5668 44.972 21.6375 44.9013 21.7083C44.9013 21.8497 44.972 21.779 44.972 21.9204L44.9013 21.8497C44.8306 21.9204 44.8306 22.0618 44.7599 21.9911C44.7599 22.1325 44.7599 22.1325 44.6185 22.1325C44.6185 22.2739 44.8306 22.2032 44.9013 22.1325C44.6892 22.2032 44.7599 22.2739 44.6185 22.2739L44.6892 22.2032C44.4064 22.3446 44.6892 22.4861 44.4064 22.4861C44.4771 22.4154 44.4771 22.2739 44.4064 22.3446L44.4064 22.4861C44.4064 22.4861 44.4771 22.4154 44.3357 22.4154L44.3357 22.5568L44.1942 22.6982L44.1235 22.9103C44.1235 22.9103 44.0528 22.8396 43.9821 22.9103C43.8407 23.0518 44.0528 23.2639 43.9114 23.2639C43.9114 23.2639 43.9114 23.2639 43.9821 23.1932L43.9114 23.2639C44.0528 23.4053 43.5578 23.6174 43.6993 23.7589C43.5578 23.7589 43.6993 23.7589 43.6993 23.476L43.5578 23.476C43.6285 23.4053 43.6285 23.4053 43.6993 23.3346C43.4871 23.4053 43.4871 23.5467 43.4164 23.6174C43.3457 23.6882 43.3457 23.4053 43.275 23.6174C43.0629 23.8296 43.4164 23.7589 43.275 23.9003L43.0629 23.8296C42.9921 23.9003 42.9214 23.971 42.78 23.971C42.6386 23.971 42.5679 24.0417 42.4972 23.971L42.3558 23.971C42.2143 23.971 42.0022 23.9003 41.9315 23.8296C41.7901 23.6882 41.6486 23.6882 41.6486 23.5467C41.7194 23.6174 41.6486 23.4053 41.6486 23.4053C41.5779 23.3346 41.5779 23.1932 41.5072 23.1225C41.5779 23.1932 41.6486 23.2639 41.7194 23.1932C41.6486 23.1225 41.6486 23.1225 41.6486 22.981L41.7194 23.0518L41.5779 22.7689C41.5779 22.7689 41.5779 22.7689 41.5072 22.8396C41.4365 22.7689 41.4365 22.6275 41.5072 22.5568L41.5779 22.6275C41.5072 22.6982 41.5779 22.7689 41.5779 22.7689C41.5779 22.6275 41.5779 22.7689 41.6486 22.6982C41.6486 22.5568 41.5779 22.4861 41.5072 22.5568C41.5072 22.4154 41.5779 22.3446 41.5072 22.2739L41.5779 22.3446V22.2032L41.7194 22.3446C41.7901 22.1325 41.5072 22.2739 41.6486 21.9911L41.7194 22.0618C41.7194 21.9204 41.5779 21.9204 41.6486 21.8497C41.6486 21.7083 41.5072 21.9911 41.5779 21.779C41.6486 21.7083 41.7194 21.6375 41.7194 21.6375C41.6486 21.5668 41.5779 21.6375 41.6486 21.7083C41.7194 21.3547 41.9315 21.5668 41.9315 21.284C41.8608 21.3547 41.7901 21.1426 41.7901 21.4254C41.7901 21.284 42.0022 21.2133 41.8608 21.0719L41.9315 21.1426L41.9315 21.0011L42.0022 21.0719C41.9315 20.8597 42.1436 20.789 42.0022 20.6476C42.1436 20.789 42.0022 20.5062 42.1436 20.5062C42.2143 20.7183 42.0729 20.8597 42.1436 20.9304C42.2143 20.8597 42.1436 20.789 42.2143 20.7183L42.2143 20.8597C42.3558 20.7183 42.2143 20.5769 42.2143 20.4355L42.1436 20.6476C42.0729 20.5769 42.1436 20.5062 42.0729 20.4355C42.1436 20.3647 42.1436 20.2233 42.2143 20.1526C42.285 19.9405 42.5679 19.9405 42.4972 19.8698C42.5679 19.7991 42.4972 19.5869 42.4265 19.6576C42.4265 19.5162 42.3558 20.0112 42.285 19.7991C42.4972 19.7284 42.285 19.5162 42.4972 19.3041C42.4972 19.4455 42.6386 19.3041 42.6386 19.4455C42.6386 19.3041 42.6386 19.3041 42.5679 19.2334L42.6386 19.1627C42.5679 18.9505 42.5679 19.092 42.5679 18.8091C42.5679 18.9505 42.6386 18.7384 42.7093 18.8091C42.78 18.7384 42.7093 18.6677 42.78 18.597C42.8507 18.3849 42.9214 18.4556 42.9214 18.1727C42.9922 17.8192 43.2043 17.4656 43.275 17.1121L43.2043 17.1828C43.275 17.1121 43.275 16.9706 43.3457 16.8999C43.3457 16.8999 43.3457 16.8999 43.275 16.9706C43.275 16.9706 43.4164 16.9706 43.4871 16.8999L43.4164 16.8292C43.4871 16.7585 43.275 16.8292 43.3457 16.7585C43.4871 16.7585 43.5578 16.2635 43.77 16.1928C43.6285 16.0514 43.6993 16.405 43.5578 16.2635L43.6285 16.1928L43.4871 16.1928C43.6993 15.8393 43.77 15.7686 43.9114 15.4857C43.9821 15.415 44.0528 15.3443 43.9821 15.2736L44.0528 15.3443C43.9114 15.0614 44.3357 15.0614 44.2649 14.8493C44.4064 14.9907 44.6185 14.7786 44.7599 14.92L44.8306 14.8493C44.9013 14.92 44.6892 15.1322 44.7599 15.2029L44.5478 15.415L44.6185 15.4857C44.5478 15.5564 44.6185 15.6271 44.6892 15.5564C44.1942 16.0514 44.1942 16.7585 43.77 17.3242L43.8407 17.3949C43.6993 17.3949 43.8407 17.5363 43.8407 17.5363L43.6285 17.607C43.6993 17.6777 43.6993 17.6777 43.6993 17.6777C43.6285 18.0313 43.3457 18.1727 43.3457 18.4556C43.275 18.5263 43.275 18.3849 43.2043 18.4556C43.4164 18.3849 43.1336 18.8091 43.3457 18.7384C43.1336 18.8091 43.1336 19.092 42.9921 18.9505C42.9214 19.0212 42.9922 19.092 43.0629 19.0212C43.0629 19.1627 42.9214 19.3041 42.9921 19.3748C42.9214 19.4455 42.78 20.0112 42.6386 20.1526C42.78 20.1526 42.7093 20.2233 42.7093 20.2233L42.8507 20.2233H42.285C42.285 20.2233 42.2143 20.1526 42.2143 20.294C42.2143 20.4355 42.2143 20.4355 42.285 20.5062L42.2143 20.5769C42.1436 20.6476 42.2143 20.294 42.0729 20.5769C42.0729 20.5769 42.2143 20.7183 42.1436 20.789C42.2143 20.7183 42.1436 20.6476 42.0729 20.7183L42.0022 20.789L42.1436 20.789C42.0022 21.2133 41.8608 21.6375 41.7901 22.1325C41.6486 22.1325 41.7194 22.4861 41.5779 22.3446C41.5779 22.2032 41.4365 22.3446 41.4365 22.4861C41.5072 22.4154 41.5779 22.6275 41.6486 22.4154L41.6486 22.5568C41.9315 22.6982 41.5779 23.0518 41.7901 23.1225C41.8608 23.1932 41.8608 23.1932 41.8608 23.1932L41.9315 23.2639V23.4053C42.0729 23.2639 42.0729 23.2639 42.285 23.1932C42.285 23.1932 42.285 23.1932 42.3558 23.2639C42.4265 23.1932 42.3558 23.1225 42.4972 22.981C42.5679 22.9103 42.6386 22.8396 42.7093 22.7689C42.9214 22.981 42.9921 22.3446 43.1336 22.4861C43.1336 22.3446 43.2043 22.2739 43.2043 22.1325C43.2043 21.9911 43.4164 21.9204 43.4871 21.8497C43.5578 21.779 43.4164 21.779 43.4164 21.779C43.6285 21.7083 43.5578 21.3547 43.6993 21.3547C43.77 21.284 43.8407 21.3547 43.8407 21.3547C43.9821 21.2133 43.6285 21.284 43.8407 21.0719C43.9114 21.0011 44.2649 21.0719 44.2649 20.9304L44.1942 21.0011C44.1942 20.8597 44.5478 20.789 44.4771 20.7183L44.4064 20.6476C44.6892 20.5062 44.4771 20.5769 44.6892 20.3648C44.7599 20.294 44.8306 20.2233 44.7599 20.1526C44.8306 20.0819 44.9013 20.0112 44.9013 19.8698L44.972 19.7991C44.9013 19.7284 45.1135 19.5162 45.1842 19.4455C45.1135 19.5162 45.2549 19.5162 45.2549 19.5162C45.1842 19.4455 45.2549 19.3748 45.3256 19.3041C45.2549 19.2334 45.1135 19.092 45.2549 18.9505C45.2549 18.9505 45.1842 19.0212 45.3256 19.0212L45.3963 18.9505L45.467 19.0212C45.3963 18.8091 45.5377 18.8091 45.6084 18.597C45.6792 18.6677 45.6792 18.6677 45.6792 18.6677C45.5377 18.5263 45.962 18.5263 45.7499 18.4556C46.0327 18.1727 46.2448 17.6777 46.457 17.607C46.5277 17.5363 46.457 17.4656 46.5277 17.3949L46.5984 17.4656C46.5277 17.2535 46.5984 17.3242 46.5984 17.0413C46.5984 17.1828 46.6691 17.1121 46.8105 17.1121L46.7398 16.8999L46.8812 16.8999C46.8105 16.8292 46.8812 16.7585 46.9519 16.6878C46.8812 16.6171 46.9519 16.405 47.0227 16.3342C47.1641 16.3342 47.0934 16.1221 47.1641 16.1928C47.1641 16.1928 47.1641 16.1928 47.1641 16.0514C47.0934 15.9807 47.0227 16.0514 47.0934 15.9807L47.1641 16.0514C47.2348 15.9807 47.1641 15.91 47.1641 15.91C47.1641 15.91 47.1641 15.91 47.0934 15.9807L47.1641 15.91L47.2348 15.8393C47.4469 15.7686 47.3055 15.3443 47.5883 15.2029L47.5176 15.2736C47.5883 15.2029 47.7298 15.0615 47.8005 14.9907L47.8712 14.92L47.9419 14.9907L48.0833 14.8493L48.2247 14.8493L48.154 15.0614L48.2955 15.0614L48.0833 15.5564C48.0126 15.7686 47.9419 15.8393 48.0126 15.91ZM44.2649 22.0618C44.1942 22.1325 44.1235 22.0618 44.1942 22.1325C44.2649 22.2032 44.2649 22.0618 44.2649 22.0618Z" fill="white"/>
<path d="M47.659 16.8292C47.8004 16.6878 47.5883 16.7585 47.7297 16.617C47.7297 16.617 47.659 16.6878 47.5883 16.617C47.5883 16.7585 47.5176 16.8292 47.659 16.8292Z" fill="white"/>
<path d="M44.4771 14.4957C44.5478 14.5664 44.5478 14.425 44.4771 14.4957V14.4957Z" fill="white"/>
<path d="M42.8508 23.9003C42.9215 23.8296 42.9215 23.8296 42.9922 23.7589C42.9215 23.8296 42.7801 23.8296 42.8508 23.9003Z" fill="white"/>
<path d="M43.77 15.7686C43.8407 15.6978 43.9114 15.6271 44.1236 15.5564L43.77 15.7686Z" fill="white"/>
<path d="M44.1233 15.2736C44.0526 15.3443 43.8405 15.415 43.8405 15.415L44.4769 14.9201C44.5476 14.8493 44.4769 14.9201 44.4061 14.9908C44.4769 14.9201 44.4769 14.9201 44.4769 14.9201C44.7597 14.7786 44.6183 14.92 44.4769 15.0615C44.3354 15.2029 44.3354 15.2029 44.1233 15.2736C44.0526 15.3443 43.9819 15.5564 43.9819 15.5564C44.0526 15.4857 44.0526 15.4857 44.194 15.3443C44.1233 15.415 44.1233 15.415 44.1233 15.415C44.1233 15.415 44.194 15.3443 44.2647 15.2736L44.4061 15.2736L44.4769 15.2029L45.3254 14.6372L45.3961 14.5665L44.8304 14.4251C44.6183 14.6372 44.5476 14.7079 44.5476 14.8493C44.194 15.0615 44.0526 15.2029 43.9112 15.3443C43.8405 15.415 43.6283 15.4857 43.9819 15.2736C43.9819 15.2736 43.9112 15.3443 43.8405 15.415C43.7697 15.6272 43.6283 15.7686 43.5576 15.9807L43.8405 15.8393C43.4162 15.9807 43.7697 15.6272 44.1233 15.2736ZM44.9718 14.7079C44.9011 14.7786 44.7597 14.92 44.6183 14.92C44.7597 14.92 44.8304 14.8493 44.9718 14.7079Z" fill="white"/>
<path d="M44.1943 16.9C44.265 16.8293 44.3358 16.7586 44.5479 16.6879L44.1943 16.9Z" fill="white"/>
<path d="M46.6693 15.1322L46.9521 14.8494C46.8107 14.9908 46.74 15.0615 46.5278 15.1322C46.6693 14.9908 46.74 15.0615 46.6693 15.1322Z" fill="white"/>
<path d="M42.7091 18.2435C43.3455 17.7485 43.2748 17.8192 43.7698 17.3242L44.2647 16.9707C43.9112 17.1828 44.3355 16.7585 44.6183 16.4757C44.5476 16.5464 44.3355 16.6171 44.3355 16.6171L44.9719 16.1222C45.0426 16.0514 44.9719 16.1222 44.9011 16.1929C44.9719 16.1222 44.9719 16.1222 44.9719 16.1222C45.2547 15.9807 45.1133 16.1222 44.9719 16.2636C44.9011 16.3343 44.8304 16.405 44.689 16.405C44.5476 16.5464 44.4062 16.6878 44.4769 16.7585C44.5476 16.6878 44.5476 16.6878 44.689 16.5464C44.6183 16.6171 44.6183 16.6171 44.6183 16.6171C44.6183 16.6171 44.689 16.5464 44.7597 16.4757L44.9011 16.4757L44.9719 16.405L45.8204 15.8393C46.1032 15.5565 46.3861 15.2736 46.7396 14.9201L46.3861 14.8494C46.1739 15.0615 45.8911 15.2029 45.679 15.415C45.6083 15.4858 45.8204 15.2736 45.7497 15.3443C45.679 15.415 45.6083 15.4858 45.5375 15.5565C45.4668 15.6272 45.6083 15.4858 45.679 15.415C45.1133 15.8393 45.0426 16.0514 45.0426 16.0514C44.689 16.2636 44.5476 16.405 44.4062 16.5464C44.3355 16.6171 44.1233 16.6878 44.4769 16.4757C44.2647 16.6878 43.2041 17.4657 43.2041 17.4657C43.1334 17.5364 42.9212 17.7485 42.8505 17.6778C42.8505 17.6778 42.8505 17.6778 42.7798 17.7485C42.7091 17.9606 42.6384 18.1728 42.5677 18.2435C42.5677 18.2435 42.6384 18.1728 42.7091 18.2435C42.7798 18.0313 42.6384 18.1728 42.7091 18.2435ZM45.4668 15.91C45.3961 15.9807 45.2547 16.1221 45.1133 16.1221C45.184 16.0514 45.3254 15.91 45.4668 15.91Z" fill="white"/>
<path d="M44.689 18.1021C44.7597 18.0313 44.8304 17.9606 45.0425 17.8899L44.689 18.1021Z" fill="white"/>
<path d="M47.0932 16.2635L47.8003 15.6978C47.8003 15.6978 47.8003 15.6978 47.871 15.6271C47.6589 15.8393 47.376 16.1221 47.0225 16.3342C47.2346 16.1221 47.1639 16.1928 47.0932 16.2635Z" fill="white"/>
<path d="M48.0128 15.0615C47.8714 15.2029 47.5178 15.4151 47.4471 15.4858C47.3764 15.5565 47.1643 15.6272 47.3764 15.4151C46.8107 15.8393 46.4572 16.0515 46.1036 16.405C46.0329 16.4757 46.245 16.2636 46.1743 16.3343C46.1036 16.405 46.0329 16.4757 45.9622 16.5464C45.8915 16.6171 46.0329 16.4757 46.1036 16.405C45.5379 16.8293 45.4672 17.0414 45.4672 17.0414C45.1137 17.2535 44.9722 17.395 44.8308 17.5364C44.7601 17.6071 44.548 17.6778 44.9015 17.4657C44.6894 17.6778 43.6287 18.4556 43.6287 18.4556C43.558 18.5263 43.3459 18.7385 43.2752 18.6678C42.7802 19.0213 42.7802 19.0213 42.2852 19.3749L42.4267 19.2334C42.2852 19.3749 42.1438 19.5163 41.861 19.6577C41.861 19.7991 41.7903 19.8698 41.7195 20.082C41.7195 20.082 41.7903 20.0113 41.861 19.9406C42.0024 19.7991 42.6388 19.4456 43.1338 18.9506C43.2045 18.8799 43.063 19.0213 43.1338 19.092C43.7702 18.597 43.6994 18.6678 44.1944 18.1728L44.6894 17.8192C44.3358 18.0314 44.7601 17.6071 45.0429 17.3243C44.9722 17.395 44.7601 17.4657 44.7601 17.4657L45.3965 16.9707C45.4672 16.9 45.3965 16.9707 45.3258 17.0414C45.3965 16.9707 45.3965 16.9707 45.3965 16.9707C45.6793 16.8293 45.5379 16.9707 45.3965 17.1121C45.3258 17.1828 45.2551 17.2535 45.1137 17.2535C44.9722 17.395 44.8308 17.5364 44.9015 17.6071C44.9722 17.5364 44.9722 17.5364 45.1137 17.395C45.0429 17.4657 45.0429 17.4657 45.0429 17.4657C45.0429 17.4657 45.1137 17.395 45.1844 17.3243L45.3258 17.3243L45.3965 17.2535L46.245 16.6879C46.74 16.1929 47.1643 15.7686 47.9421 15.1322C47.9421 15.2736 48.0128 15.2029 48.0128 15.0615ZM45.6086 17.3243C45.6793 17.2535 45.8208 17.1121 45.9622 17.1121C45.8208 17.1121 45.7501 17.1828 45.6086 17.3243Z" fill="white"/>
<path d="M45.1133 19.2334C45.184 19.1627 45.2547 19.092 45.4668 19.0213L45.1133 19.2334Z" fill="white"/>
<path d="M46.6691 17.5363C46.5984 17.607 46.5277 17.6777 46.457 17.7484C46.3863 17.8192 46.5277 17.6777 46.6691 17.5363C46.0328 18.0313 45.962 18.102 45.962 18.2434C45.6085 18.4556 45.4671 18.597 45.3256 18.7384C45.2549 18.8091 45.0428 18.8798 45.3964 18.6677C45.1842 18.8798 44.1236 19.6576 44.1236 19.6576C44.0529 19.7283 43.8407 19.9405 43.77 19.8698C43.275 20.2233 43.275 20.2233 42.7801 20.5769L42.9215 20.4355C42.7094 20.6476 42.5679 20.789 42.1437 21.0719C41.5073 21.5668 41.578 21.4961 41.3658 21.7082C41.3658 21.8497 41.2951 22.0618 41.2951 22.2032C41.3658 22.1325 41.5073 21.9911 41.578 21.9204C41.9315 21.7082 41.5073 21.9911 41.7194 21.9204L42.0022 21.6375C42.073 21.5668 42.073 21.5668 42.0022 21.6375C42.2144 21.4254 41.9315 21.5668 42.3558 21.284C42.4972 21.1426 43.1336 20.789 43.6286 20.294C43.6993 20.2233 43.5579 20.3647 43.6286 20.4355C44.265 19.9405 44.1943 20.0112 44.6893 19.5162L45.1842 19.1627C44.8307 19.3748 45.2549 18.9505 45.5378 18.6677C45.3964 18.8091 45.3256 18.8798 45.2549 18.9505L45.8913 18.4556C45.962 18.3848 45.8913 18.4556 45.8206 18.5263C45.8913 18.4556 45.8913 18.4556 45.8913 18.4556C46.1742 18.3141 46.0328 18.4556 45.8913 18.597C45.8206 18.6677 45.7499 18.7384 45.6085 18.7384C45.4671 18.8798 45.3256 19.0212 45.3964 19.092C45.4671 19.0212 45.4671 19.0212 45.6085 18.8798C45.5378 18.9505 45.5378 18.9505 45.5378 18.9505C45.5378 18.9505 45.6085 18.8798 45.6792 18.8091H45.8206L45.8913 18.7384L46.2449 18.5263C46.3156 18.4556 46.3156 18.4556 46.3156 18.3141C46.2449 18.3848 46.1742 18.4556 46.0328 18.4556C46.1035 18.3848 46.1742 18.3141 46.3863 18.2434C46.5277 17.9606 46.6691 17.8192 46.8106 17.5363C46.7399 17.607 46.7399 17.607 46.6692 17.6777C46.5277 17.6777 46.7399 17.4656 46.6691 17.5363Z" fill="white"/>
<path d="M44.1941 21.1426C43.6991 21.4961 43.6991 21.4961 43.2041 21.8497L43.3455 21.7082C43.1334 21.9204 42.992 22.0618 42.5677 22.3446C41.7192 22.9103 42.2142 22.6982 41.3656 23.2639L41.4363 23.3346L41.3656 23.4053C41.4363 23.476 41.5071 23.5467 41.5778 23.6174C41.7192 23.476 41.8606 23.3346 42.1435 23.1932C42.497 22.981 42.0727 23.2639 42.2849 23.1932L42.5677 22.9103C42.6384 22.8396 42.6384 22.8396 42.5677 22.9103C42.7798 22.6982 42.497 22.8396 42.9213 22.5568C43.0627 22.4154 43.6991 22.0618 44.1941 21.5668C44.2648 21.4961 44.1234 21.6375 44.1941 21.7082C44.2648 21.6375 44.2648 21.6375 44.3355 21.5668C44.5476 21.2133 44.8305 20.9304 45.0426 20.5769C44.8305 20.789 44.6183 20.8597 44.689 20.9304C44.4769 20.8597 44.2648 21.0719 44.1941 21.1426Z" fill="white"/>
<path d="M37.3352 16.8292C37.1938 16.8292 37.123 16.8999 37.123 16.8999L37.1938 16.9706C37.3352 16.8292 37.3352 16.8292 37.3352 16.8292Z" fill="white"/>
<path d="M33.7292 24.5367C33.7292 24.6781 33.7999 24.6074 33.7292 24.5367V24.5367Z" fill="white"/>
<path d="M37.6886 18.4556C37.6179 18.3849 37.6886 18.3142 37.6886 18.3142L37.4058 18.1727L37.6886 18.4556Z" fill="white"/>
<path d="M38.6082 16.5463C38.6082 16.5463 38.396 16.3342 38.3253 16.4049C38.1839 16.5463 38.3253 16.8291 38.5374 16.8999L38.6082 16.5463C38.6789 16.617 38.5374 16.7584 38.6789 16.8999L38.4667 17.112L38.4667 16.9706C38.396 17.0413 38.396 17.0413 38.3253 17.112C38.2546 16.8999 38.0425 16.5463 37.901 16.4049L37.8303 16.4756C37.8303 16.617 38.1132 17.0413 38.2546 17.1827C38.1839 17.2534 37.9718 17.1827 37.9718 17.0413C37.901 17.2534 38.1839 17.3948 38.0425 17.5362L38.1132 17.4655C38.1132 17.4655 37.9718 17.607 38.0425 17.6777C37.901 17.6777 37.8303 17.607 37.8303 17.607L37.901 17.8191C37.901 17.8191 37.6889 17.7484 37.6182 17.6777C37.5475 17.7484 37.7596 17.9605 37.8303 17.8898C37.6182 17.9605 37.7596 17.9605 37.4768 17.9605L37.6889 18.0312C37.6889 18.1726 37.6889 18.1726 37.6182 18.2434C37.6182 18.1019 37.2647 18.0312 37.1232 17.8898L37.4768 18.5262C37.4768 18.5262 37.3354 18.3848 37.2646 18.3141C37.4061 18.4555 37.1939 18.809 37.0525 18.9505C36.9818 18.8798 36.8404 19.0212 36.9111 19.0919C36.699 19.1626 37.0525 19.3747 36.8404 19.4454C36.9111 19.3747 36.8404 19.304 36.7697 19.2333C36.7697 19.3747 36.6283 19.5161 36.8404 19.5869C36.7697 19.6576 36.7697 19.6576 36.699 19.5869L36.699 19.8697C36.699 19.8697 36.6283 19.799 36.5575 19.8697C36.6283 19.799 36.5575 19.5869 36.699 19.5869C36.6283 19.5161 36.4868 19.5161 36.4161 19.4454C36.3454 19.6576 36.4868 19.9404 36.5575 20.1525L36.4161 20.294L36.4868 20.3647L36.3454 20.3647L36.4161 20.4354C36.4161 20.4354 36.4161 20.4354 36.3454 20.3647C36.2747 20.294 36.204 20.2233 36.1333 20.1525L36.2747 20.1525C36.204 20.0818 36.1333 20.0111 36.1333 20.0111C36.0626 19.9404 36.0626 19.9404 36.0626 19.9404L35.9919 20.1525C35.9919 20.1525 36.0626 20.0818 36.1333 20.1525C36.1333 20.294 36.204 20.5061 36.2747 20.4354L36.0626 20.5061C36.1333 20.7182 36.0626 20.6475 36.0626 20.9304L35.9919 20.8597C36.0626 21.0718 35.6383 21.0718 35.709 21.1425C35.709 21.2839 35.7797 21.2132 35.7797 21.3546L35.7797 21.496C35.7797 21.496 35.7797 21.3546 35.709 21.4253C35.709 21.5668 35.709 21.7082 35.5676 21.8496C35.4969 22.0617 35.7797 21.9203 35.709 21.991C35.6383 21.9203 35.4969 21.9203 35.4262 21.991C35.4969 22.0617 35.4969 22.0617 35.4969 22.2032L35.4262 22.1324C35.3555 22.2032 35.4262 22.2739 35.2847 22.2739C35.2847 22.4153 35.2848 22.4153 35.2848 22.4153C35.2848 22.5567 35.4969 22.486 35.6383 22.486C35.4969 22.486 35.4969 22.6274 35.3555 22.6274L35.3555 22.486C35.0726 22.6274 35.3555 22.7688 35.0726 22.7688C35.1433 22.6981 35.1433 22.5567 35.0019 22.5567L35.0019 22.6981C35.0019 22.6981 35.0726 22.6274 34.9312 22.6274C34.9312 22.6274 34.9312 22.7688 35.0019 22.8396L34.9312 23.0517L34.9312 23.1931C34.9312 23.1931 34.8605 23.1224 34.7898 23.1931C34.6484 23.3345 34.9312 23.4759 34.7191 23.5467L34.6484 23.6174C34.8605 23.8295 34.4362 23.9709 34.6484 24.1831C34.5069 24.1831 34.5776 24.1123 34.5776 23.9709L34.4362 23.9709L34.5069 23.9002C34.2948 23.9709 34.3655 24.1831 34.2948 24.2538C34.2241 24.3245 34.1534 24.1123 34.0827 24.1831C34.012 24.3952 34.2948 24.2538 34.1534 24.3952L34.012 24.3952C33.9412 24.6073 33.7998 24.6073 33.6584 24.7487L33.5877 24.8195C33.3756 24.8902 33.3756 25.173 33.3049 25.2437L33.1634 25.2437C33.0927 25.3144 33.022 25.3851 33.0927 25.4558C33.1634 25.3851 33.0927 25.3144 33.022 25.2437C32.9513 25.3144 32.9513 25.3144 32.8806 25.3851C32.8806 25.3851 32.9513 25.3144 32.8099 25.3144L32.6685 25.5973C32.6685 25.5973 32.6685 25.5973 32.7392 25.5266C32.6685 25.5973 32.5977 25.668 32.4563 25.668C32.4563 25.668 32.527 25.5973 32.4563 25.5266C32.527 25.5973 32.527 25.4558 32.5977 25.3851C32.4563 25.5266 32.5977 25.3851 32.4563 25.3851C32.3856 25.4558 32.3856 25.5973 32.3856 25.5973C32.2442 25.5973 32.1735 25.668 32.1028 25.7387V25.5973L32.0321 25.668C32.1028 25.5973 32.1028 25.5973 32.1028 25.4558C31.8199 25.4558 32.0321 25.668 31.7492 25.668L31.8199 25.3144C31.6785 25.3144 31.6078 25.5266 31.6078 25.3851C31.4664 25.3851 31.8199 25.5973 31.4664 25.5266C31.3957 25.4558 31.325 25.3851 31.2542 25.3144C31.1128 25.3144 31.2542 25.4558 31.2542 25.4558C31.0421 25.3851 31.0421 25.2437 30.9714 25.173C30.9714 25.0316 30.9714 25.0316 30.83 24.8902C30.83 25.0316 30.6178 24.9609 30.83 25.173C30.6178 25.1023 30.7593 24.8194 30.5471 24.7487L30.6886 24.7487C30.6178 24.678 30.6178 24.678 30.5471 24.6073L30.6178 24.5366C30.4057 24.4659 30.6178 24.2538 30.335 24.1123C30.5471 24.1831 30.335 23.9709 30.4057 23.9002C30.5471 24.0416 30.4764 24.2538 30.6178 24.2538C30.6886 24.1831 30.5471 24.1831 30.6178 24.1123C30.6178 24.1123 30.6886 24.1831 30.7593 24.2538C30.83 24.0416 30.6178 23.9709 30.5471 23.9002L30.6886 24.1831C30.5471 24.1831 30.6178 24.1123 30.5471 24.0416C30.6178 23.9709 30.4764 23.8295 30.5471 23.7588C30.5471 23.4759 30.83 23.4759 30.83 23.3345C30.9007 23.2638 30.7593 23.1224 30.6886 23.1931C30.6178 23.1224 30.6886 23.4759 30.5471 23.3345C30.83 23.1931 30.4764 23.1224 30.6886 22.7688C30.7593 22.8396 30.83 22.7688 30.9007 22.8396C30.9007 22.6981 30.9007 22.6981 30.83 22.6274L30.9007 22.5567C30.7593 22.4153 30.7593 22.5567 30.6886 22.2032C30.7593 22.2739 30.7593 22.1324 30.83 22.2032C30.9007 22.1324 30.83 22.0617 30.7593 21.991C30.7593 21.7082 30.9007 21.8496 30.9007 21.5668C30.83 21.2132 31.0421 20.8597 31.0421 20.5768L30.9714 20.6475C30.9714 20.6475 30.9714 20.3647 31.1128 20.3647C31.1128 20.3647 31.1128 20.3647 31.0421 20.4354C31.0421 20.4354 31.1835 20.4354 31.2542 20.3647L31.1835 20.294L31.2542 20.2233C31.325 20.1525 31.1128 20.2233 31.1835 20.1525C31.4664 20.1525 31.3957 19.6576 31.6078 19.7283C31.4664 19.5869 31.5371 19.9404 31.3957 19.799L31.4664 19.7283L31.325 19.7283C31.4664 19.4454 31.6078 19.304 31.7492 19.0212C31.8199 18.9505 31.8906 18.8798 31.8199 18.809L31.8906 18.8798C31.7492 18.5969 32.1735 18.5969 32.1028 18.3848C32.3149 18.4555 32.5977 18.3141 32.6685 18.5262L32.6685 18.3848C32.7392 18.4555 32.5977 18.5969 32.6685 18.6676L32.4563 18.8798C32.4563 18.8798 32.527 18.9505 32.5977 18.8798C32.527 18.9505 32.5977 19.0212 32.6685 18.9505C32.1028 19.3747 32.2442 20.0818 31.8199 20.5061L31.8906 20.5768C31.6785 20.6475 31.8906 20.7182 31.8906 20.7182L31.7492 21.1425C31.8199 21.2132 31.8199 21.2132 31.8906 21.1425C31.8906 21.4253 31.5371 21.6375 31.6078 21.8496C31.5371 21.9203 31.4664 21.8496 31.3957 21.9203C31.6078 21.8496 31.3957 22.2032 31.5371 22.2032C31.325 22.2739 31.3957 22.486 31.1835 22.4153C31.1835 22.5567 31.325 22.5567 31.325 22.5567C31.325 22.6981 31.2542 22.7688 31.325 22.981C31.2542 23.0517 31.325 23.5467 31.1128 23.6174C31.2542 23.4759 31.1835 23.6881 31.1835 23.6881L31.2542 23.6174L31.2542 23.7588C31.2542 23.7588 31.1835 23.6881 31.1835 23.8295C31.1835 23.9709 31.2542 23.9002 31.325 23.9709L31.3957 24.0416C31.3957 24.0416 31.2542 23.9002 31.2542 24.0416C31.2542 24.0416 31.4664 24.1123 31.3957 24.1831C31.325 24.1123 31.325 24.1123 31.2542 24.1831L31.2542 24.3245L31.3957 24.1831C31.4664 24.3952 31.5371 24.6073 31.8199 24.6073C31.8199 24.7487 32.0321 24.5366 32.1028 24.7487C32.0321 24.8195 32.1028 24.8902 32.2442 24.8902C32.1735 24.8195 32.3149 24.678 32.1028 24.7487C32.1735 24.678 32.1735 24.678 32.2442 24.6073C32.1735 24.2538 32.527 24.4659 32.6685 24.1831C32.7392 23.9709 33.0927 23.9002 33.0927 23.9002L33.1634 23.9709C33.1634 23.6881 33.1634 23.6881 33.3756 23.6174C33.3756 23.6174 33.3756 23.6174 33.4463 23.6881C33.4463 23.5467 33.3756 23.4759 33.5877 23.4052L33.7291 23.2638C33.9412 23.4759 33.8705 22.8396 34.1534 22.981C34.0827 22.9103 34.1534 22.6981 34.2241 22.6274C34.1534 22.4153 34.4362 22.4153 34.5069 22.3446C34.5069 22.2032 34.4362 22.2739 34.3655 22.2032C34.5776 22.1324 34.4362 21.8496 34.5069 21.7789C34.5776 21.7082 34.6484 21.7789 34.7191 21.8496C34.7191 21.7082 34.4362 21.7082 34.6484 21.6375C34.6484 21.6375 34.5776 21.7082 34.7191 21.7082C34.7898 21.6375 35.1433 21.7082 35.214 21.6375L35.1433 21.7082C35.1433 21.5668 35.5676 21.5668 35.4262 21.4253L35.3555 21.3546C35.6383 21.2132 35.3555 21.2132 35.6383 21.0718C35.709 21.0011 35.8504 21.0011 35.709 20.8597C35.7797 20.7889 35.7797 20.7889 35.8504 20.5768C35.8504 20.5768 35.8504 20.4354 35.9211 20.5061C35.8504 20.4354 36.0626 20.2233 36.1333 20.1525C36.0626 20.2233 36.204 20.2233 36.204 20.2233C36.1333 20.1525 36.204 20.0818 36.2747 20.0111C36.1333 19.8697 35.9919 19.8697 36.0626 19.6576C36.0626 19.6576 36.0626 19.799 36.1333 19.7283L36.204 19.6576L36.2747 19.7283C36.204 19.5161 36.3454 19.5161 36.3454 19.3747C36.4161 19.4454 36.4161 19.4454 36.4161 19.4454C36.2747 19.304 36.699 19.304 36.4161 19.304C36.7697 19.0919 36.8404 18.5969 37.0525 18.5262C37.1939 18.5262 37.0525 18.3848 37.1232 18.3141L37.1939 18.3848C37.1232 18.1726 37.1939 18.2434 37.1232 18.0312C37.1939 18.1019 37.2647 18.1726 37.3354 18.1019L37.2646 17.8898L37.4061 17.8898C37.3354 17.8191 37.4061 17.7484 37.4768 17.6777C37.4061 17.607 37.4768 17.3948 37.4061 17.3241C37.5475 17.3241 37.4061 17.1827 37.6182 17.2534C37.6182 17.2534 37.5475 17.1827 37.6182 17.112C37.4768 17.112 37.4768 17.112 37.5475 17.0413L37.6889 17.0413L37.6889 16.8999C37.6889 16.8999 37.6889 16.8999 37.6182 16.9706L37.6889 16.8999L37.7596 16.8291C37.9718 16.7584 37.7596 16.4049 38.0425 16.2635L37.9718 16.3342C38.0425 16.2635 38.1839 16.122 38.2546 16.0513L38.396 16.0513L38.5374 16.0513L38.6789 15.9099L38.8203 15.9099L38.7496 16.122L38.891 16.122L38.6082 16.5463ZM31.325 23.8295C31.2542 23.7588 31.2542 23.7588 31.325 23.8295V23.8295ZM35.3555 22.3446C35.2847 22.4153 35.214 22.3446 35.2848 22.4153C35.3555 22.486 35.3555 22.3446 35.3555 22.3446ZM36.4868 20.0818L36.4161 20.1525C36.4868 20.0818 36.4868 20.0818 36.4868 20.0818Z" fill="white"/>
<path d="M38.3253 17.3949C38.396 17.3242 38.2546 17.3242 38.3253 17.2535C38.2546 17.1828 38.2546 17.3242 38.1839 17.2535C38.1839 17.3949 38.1839 17.3949 38.3253 17.3949Z" fill="white"/>
<path d="M32.8803 18.8798L32.951 18.8091L32.8096 18.8091L32.8803 18.8798Z" fill="white"/>
<path d="M32.7393 18.5969C32.81 18.5262 32.8807 18.5969 32.7393 18.5969V18.5969Z" fill="white"/>
<path d="M34.931 23.1931L34.7896 23.1931L34.931 23.1931Z" fill="white"/>
<path d="M34.3656 24.1831L34.4363 24.1124C34.4363 24.1124 34.2242 24.0417 34.3656 24.1831Z" fill="white"/>
<path d="M34.719 16.3343L33.7998 16.6878C33.5169 16.9707 33.2341 17.1121 33.2341 17.2535C33.1634 17.3242 32.8098 17.5364 32.8098 17.5364L32.7391 17.6071C32.6684 17.8192 32.5977 18.0313 32.4563 18.3142C32.527 18.2435 32.5977 18.1728 32.6684 18.1021C32.8098 17.9606 32.5977 18.1728 32.6684 18.2435C33.4462 17.6071 33.3755 17.6778 33.9412 17.1121L34.5069 16.6878C34.224 16.8293 34.4362 16.6171 34.719 16.3343Z" fill="white"/>
<path d="M35.8502 17.1829C35.7795 17.2536 35.7088 17.3243 35.5674 17.4657L35.6381 17.395C35.8502 17.3243 35.8502 17.1829 35.8502 17.1829Z" fill="white"/>
<path d="M35.1431 18.0314C35.2138 17.9607 35.3552 17.9607 35.5673 17.7485L35.1431 18.0314Z" fill="white"/>
<path d="M38.1131 15.7686L38.9616 15.0615L39.0323 14.9908C38.7495 15.2736 38.3252 15.5565 37.9717 15.91C38.2545 15.6272 38.1838 15.6979 38.1131 15.7686Z" fill="white"/>
<path d="M38.8908 14.5665C38.7494 14.7079 38.6787 14.7787 38.608 14.8494C38.5373 14.9201 38.3252 14.9908 38.5373 14.7787C37.8302 15.3443 37.4766 15.5565 36.9817 16.0515C36.9109 16.1222 37.1231 15.91 36.9817 15.91C36.9109 15.9807 36.7695 16.1222 36.6988 16.1929C36.6281 16.2636 36.7695 16.1222 36.9109 15.9807C36.2038 16.5464 36.1331 16.7586 36.1331 16.9C35.7796 17.1121 35.4967 17.2535 35.3553 17.5364C35.1432 17.6071 35.0018 17.7485 35.426 17.3242C35.2139 17.5364 33.7997 18.5263 33.8704 18.597C33.7997 18.6677 33.4461 18.8799 33.4461 18.8799C32.8804 19.3041 32.8097 19.3749 32.244 19.7991L32.3855 19.6577C32.244 19.7991 32.0319 20.0113 31.7491 20.1527C31.6784 20.3648 31.6784 20.5062 31.5369 20.6476C31.6076 20.5769 31.6076 20.5769 31.6784 20.5062C31.7491 20.2941 32.739 19.8698 33.234 19.3749C33.3754 19.2334 33.1633 19.4456 33.234 19.5163C34.0118 18.8799 33.9411 18.9506 34.5068 18.3849L35.0725 17.9606C34.6482 18.2435 35.1432 17.7485 35.5674 17.3242C35.426 17.4657 35.2846 17.4657 35.2139 17.5364L35.921 16.9707C35.9917 16.9 35.921 16.9707 35.8503 17.1828C35.921 17.1121 35.921 17.1121 35.9917 17.0414C36.2745 16.9 36.1331 17.0414 35.9917 17.1828C35.921 17.2535 35.7796 17.2535 35.7089 17.3242C35.5674 17.4657 35.3553 17.6778 35.426 17.7485C35.4967 17.6778 35.5674 17.6071 35.6381 17.5364C35.5674 17.6071 35.5674 17.6071 35.5674 17.6071C35.5674 17.6071 35.6382 17.5364 35.7796 17.395L35.9917 17.3242L36.0624 17.2535L37.0524 16.5464C37.6888 15.91 38.1837 15.4151 39.1737 14.5665C39.2444 14.4958 39.2444 14.3544 39.3151 14.2837L38.8908 14.5665Z" fill="white"/>
<path d="M36.2749 17.0414C36.4163 16.9 36.487 16.8292 36.6992 16.7585C36.6285 16.8292 36.487 16.9707 36.2749 17.0414Z" fill="white"/>
<path d="M35.5674 17.7485C35.4967 17.8192 35.4967 17.8192 35.5674 17.7485C35.4259 17.7485 35.4967 17.8192 35.5674 17.7485Z" fill="white"/>
<path d="M35.709 19.4456C35.7797 19.3748 35.9211 19.3748 36.1332 19.1627L35.709 19.4456Z" fill="white"/>
<path d="M37.618 17.3949C37.5473 17.4656 37.4059 17.6071 37.3352 17.6778C37.1938 17.6778 37.3352 17.5364 37.618 17.3949C36.7695 17.9606 36.6988 18.1728 36.6988 18.3142C36.2745 18.597 36.1331 18.7384 35.8503 19.0213C35.6381 19.092 35.4967 19.2334 35.921 18.8091C35.7088 19.0213 34.2946 20.0112 34.3653 20.0819C34.2946 20.1527 33.9411 20.3648 33.9411 20.3648C33.3754 20.789 33.3047 20.8598 32.739 21.284L32.8804 21.1426C32.739 21.4254 32.3854 21.4962 31.9612 21.9204C31.1834 22.4154 31.3248 22.4154 30.9712 22.6275C30.9005 22.8397 30.9005 22.9811 30.8298 23.1932C30.9712 23.0518 31.0419 22.9811 31.1834 22.8397C31.6076 22.5568 31.1127 22.9104 31.3248 22.8397L31.6783 22.4861C31.749 22.4154 31.749 22.4154 31.6783 22.4861C31.9612 22.2033 31.6783 22.3447 32.1733 21.9911C32.244 21.779 33.234 21.3547 33.7289 20.8598C33.8704 20.7183 33.6582 20.9305 33.7289 21.0012C34.5068 20.3648 34.4361 20.4355 35.0017 19.8698L35.5674 19.4455C35.1432 19.7284 35.6381 19.2334 36.0624 18.8091C35.921 18.9506 35.7796 18.9506 35.7088 19.0213L36.416 18.4556C36.4867 18.3849 36.416 18.4556 36.3452 18.6677C36.416 18.597 36.416 18.597 36.4867 18.5263C36.7695 18.3849 36.6281 18.5263 36.4867 18.6677C36.416 18.7384 36.2745 18.7384 36.2038 18.8091C36.0624 18.9506 35.8503 19.1627 35.921 19.2334C35.9917 19.1627 36.0624 19.092 36.1331 19.0213C36.0624 19.092 36.0624 19.092 36.0624 19.092C36.0624 19.092 36.1331 19.0213 36.2745 18.8799L36.4867 18.8091L36.5574 18.7384L36.9816 18.4556C37.0523 18.3849 37.1231 18.3142 37.1231 18.1728C37.0523 18.2435 36.9109 18.3849 36.7695 18.3849C36.8402 18.3142 36.9816 18.1728 37.1231 18.1728C37.2645 17.8899 37.4766 17.5364 37.618 17.2535C37.5473 17.3242 37.4766 17.3949 37.4059 17.4656C37.4766 17.5364 37.6887 17.3242 37.618 17.3949Z" fill="white"/>
<path d="M34.5775 21.8497C34.0118 22.274 33.9411 22.3447 33.3754 22.769L33.5169 22.6276C33.3754 22.9104 33.0219 22.9811 32.5976 23.4054C31.537 24.1832 32.1734 23.8296 31.042 24.5367L31.1127 24.6075C31.1127 24.6075 31.042 24.6782 30.9713 24.7489C31.042 24.8196 31.042 24.961 31.1834 24.961C31.3955 24.7489 31.537 24.6075 31.8198 24.466C32.2441 24.1832 31.7491 24.5367 31.9612 24.466L32.3148 24.1125C32.3855 24.0418 32.3855 24.0418 32.3148 24.1125C32.5976 23.8296 32.3148 23.9711 32.8098 23.6175C32.8805 23.4054 33.8704 22.9811 34.3654 22.4861C34.5068 22.3447 34.2947 22.5568 34.3654 22.6276C34.4361 22.5568 34.5068 22.4861 34.5068 22.4861C34.7897 22.0619 35.0725 21.6376 35.3553 21.2133C35.0725 21.4962 34.8604 21.5669 34.8604 21.7083C34.8604 21.5669 34.6482 21.779 34.5775 21.8497Z" fill="white"/>
<path d="M27.4355 19.6576C27.3648 19.7283 27.2234 19.7283 27.2941 19.799L27.4355 19.799C27.3648 19.7283 27.4355 19.6576 27.4355 19.6576Z" fill="white"/>
<path d="M26.5164 23.2638C26.5164 23.1224 26.5164 23.1224 26.5164 23.2638V23.2638Z" fill="white"/>
<path d="M27.86 21.3547C27.7893 21.284 27.86 21.2133 27.86 21.2133L27.5771 21.0719L27.86 21.3547Z" fill="white"/>
<path d="M28.7087 19.2333C28.7087 19.2333 28.4966 19.0212 28.4259 19.0919C28.3552 19.304 28.4966 19.5869 28.638 19.5869L28.7087 19.2333C28.7794 19.304 28.638 19.4455 28.7794 19.5869L28.638 19.8697L28.638 19.7283C28.638 19.8697 28.5673 19.799 28.4966 19.8697C28.4259 19.6576 28.2137 19.304 28.0016 19.0919L28.0016 19.2333L27.9309 19.304C28.0016 19.5162 28.3552 19.8697 28.4259 19.9404C28.3552 20.0112 28.143 19.9404 28.0723 19.8697C28.0016 20.0819 28.2844 20.2233 28.2137 20.4354L28.2844 20.3647L28.2137 20.5768C28.143 20.6475 27.9309 20.5768 28.0016 20.5061L28.0016 20.6475C28.0016 20.6475 27.7895 20.5768 27.7188 20.5061C27.648 20.5768 27.9309 20.7183 27.9309 20.7183C27.7188 20.789 27.8602 20.789 27.648 20.8597L27.8602 20.9304C27.8602 21.0718 27.8602 21.0718 27.7895 21.1425C27.8602 20.9304 27.4359 20.9304 27.3652 20.8597L27.7895 21.4254C27.7895 21.4254 27.648 21.2839 27.5773 21.3547C27.7188 21.4961 27.648 21.8496 27.5066 21.9911C27.4359 21.9203 27.2945 22.0618 27.3652 22.1325C27.1531 22.2032 27.5066 22.4153 27.2945 22.486C27.3652 22.2739 27.2945 22.2032 27.2238 22.1325C27.2238 22.2739 27.0824 22.4153 27.2945 22.486C27.2238 22.5567 27.2238 22.5567 27.0824 22.5567L27.2238 22.8396C27.2238 22.8396 27.1531 22.7689 27.0824 22.8396C27.1531 22.7689 27.0116 22.486 27.1531 22.486C27.0824 22.4153 26.9409 22.4153 26.8702 22.3446C26.8702 22.6274 26.9409 22.8396 27.0116 23.0517L26.7995 23.2638L26.8702 23.3346C26.8702 23.3346 26.8702 23.3346 26.7995 23.2638C26.7995 23.2638 26.7995 23.2638 26.8702 23.3346C26.7995 23.2638 26.7288 23.1931 26.6581 23.1224L26.7995 23.1224C26.7288 23.0517 26.6581 22.981 26.5874 23.0517C26.5167 22.981 26.5167 22.981 26.5167 22.981L26.5167 23.1224C26.5167 23.1224 26.5874 23.0517 26.6581 23.1224C26.6581 23.2638 26.7288 23.476 26.8702 23.3346L26.7288 23.476C26.7995 23.6881 26.7995 23.6881 26.7995 23.8295L26.7288 23.7588C26.7995 23.971 26.3753 23.971 26.5167 24.1124C26.5167 24.2538 26.5874 24.1831 26.5874 24.3245L26.5874 24.4659C26.5874 24.4659 26.5874 24.3245 26.446 24.4659C26.446 24.6073 26.446 24.7488 26.3045 24.8902C26.2338 25.1023 26.5167 24.9609 26.446 25.0316C26.3045 25.0316 26.2338 24.9609 26.2338 25.1023C26.0924 25.2437 26.0924 25.2437 26.1631 25.3145L26.0924 25.2437C26.0217 25.3145 26.0924 25.3852 25.951 25.3852C25.951 25.5266 25.951 25.5266 25.8803 25.5973C25.8803 25.7387 26.1631 25.5973 26.2338 25.668C26.0217 25.7387 26.0924 25.8094 25.8803 25.8801L25.8803 25.5973C25.5974 25.7387 25.951 25.9508 25.5974 25.8801C25.6681 25.8094 25.6681 25.668 25.5267 25.668L25.5974 25.8801C25.5974 25.8801 25.6681 25.8094 25.5267 25.8094C25.5267 25.8094 25.5267 25.9508 25.5974 26.0216L25.5267 26.2337V26.3751C25.5267 26.3751 25.456 26.3044 25.3853 26.3751C25.2439 26.5165 25.5267 26.658 25.3146 26.7287L25.2439 26.7994C25.456 27.0115 24.961 27.2236 25.2439 27.3651C25.1025 27.3651 25.1732 27.2944 25.1732 27.1529H25.0317L25.1025 27.0822C24.8903 27.1529 24.961 27.3651 24.961 27.5065C24.8903 27.5772 24.8196 27.3651 24.8196 27.5065C24.7489 27.7186 25.0317 27.5772 24.961 27.7893L24.8196 27.7893C24.7489 28.0015 24.6075 28.0015 24.4661 28.1429L24.3954 28.2136C24.1832 28.2843 24.1832 28.5671 24.1125 28.6379L23.9711 28.6379C23.9004 28.7086 23.8297 28.7793 23.759 28.85C23.6882 28.4964 23.6882 28.4964 23.6175 28.4257C23.5468 28.4964 23.5468 28.4964 23.4761 28.5671C23.4761 28.5671 23.5468 28.4964 23.4054 28.4964C23.3347 28.5671 23.3347 28.7086 23.1933 28.7086C23.1933 28.7086 23.1933 28.7086 23.3347 28.7086C23.264 28.7793 23.1226 28.9207 22.9811 28.7793C22.9811 28.7793 23.0519 28.7086 22.9811 28.6379C23.0519 28.7086 23.1226 28.6379 23.1226 28.4964C22.9104 28.5671 23.1226 28.4964 22.9811 28.4964C22.8397 28.4964 22.8397 28.6379 22.9104 28.7086C22.6983 28.7793 22.6983 28.7793 22.4862 28.85L22.5569 28.7793L22.4155 28.7793C22.4862 28.7086 22.4862 28.7086 22.5569 28.6379C22.274 28.4964 22.4862 28.85 22.1326 28.6379L22.2033 28.5671C22.0619 28.5671 21.9912 28.6379 21.9205 28.4257C21.7791 28.4257 22.0619 28.7086 21.7083 28.4964C21.7083 28.355 21.6376 28.2843 21.6376 28.2843C21.5669 28.2136 21.5669 28.355 21.6376 28.4257C21.3548 28.0015 21.7083 27.9307 21.4962 27.7186C21.4962 27.86 21.2841 27.6479 21.3548 28.0015C21.2134 27.86 21.4255 27.6479 21.2134 27.5772L21.3548 27.5772C21.3548 27.5772 21.2841 27.5065 21.2134 27.4358L21.3548 27.4358C21.2134 27.2944 21.3548 27.1529 21.1427 27.0822C21.3548 27.1529 21.1427 26.9408 21.2134 26.8701C21.3548 27.0115 21.2841 27.2236 21.4255 27.2236C21.4962 27.1529 21.3548 27.1529 21.4255 27.0822C21.4255 27.0822 21.4962 27.1529 21.5669 27.2236C21.6376 27.0115 21.4255 26.9408 21.4255 26.7994C21.4962 26.8701 21.4255 26.9408 21.4962 27.0115C21.3548 27.0115 21.4255 26.9408 21.3548 26.8701C21.4255 26.7994 21.2841 26.658 21.3548 26.5872C21.3548 26.3044 21.6376 26.3044 21.6376 26.163C21.7083 26.0923 21.5669 25.9508 21.5669 25.9508C21.4962 25.8801 21.5669 26.2337 21.4255 26.0923C21.7083 25.9508 21.2841 25.8094 21.5669 25.5266C21.6376 25.5973 21.7083 25.5266 21.7791 25.5973C21.7791 25.4559 21.7791 25.4559 21.7083 25.3852L21.7791 25.3145C21.6376 25.173 21.5669 25.2437 21.5669 24.9609C21.6376 25.0316 21.7083 24.8195 21.7083 24.9609C21.6376 25.0316 21.5669 24.9609 21.4962 24.8902C21.4962 24.6073 21.6376 24.7488 21.6376 24.4659C21.5669 24.1124 21.7791 23.7588 21.7791 23.476L21.7083 23.5467C21.7083 23.5467 21.7083 23.2638 21.7791 23.1931C21.7791 23.1931 21.7791 23.1931 21.7791 23.3346C21.7791 23.3346 21.9205 23.3346 21.9912 23.2638L21.9205 23.1931L21.9912 23.1224C21.9912 22.981 21.8498 23.1224 21.9205 23.0517C22.2033 23.0517 22.1326 22.5567 22.3447 22.486C22.2033 22.3446 22.274 22.6982 22.1326 22.5567L22.2033 22.486L22.0619 22.486C22.2033 22.2032 22.3447 22.0618 22.4155 21.7082C22.4862 21.6375 22.4862 21.6375 22.4155 21.5668L22.4862 21.6375C22.3447 21.3547 22.769 21.3547 22.6983 21.1425C22.9104 21.2132 23.1226 21.0011 23.264 21.1425L23.264 21.0011C23.3347 21.0718 23.1933 21.2132 23.3347 21.3547L23.1226 21.5668C23.1226 21.5668 23.1933 21.6375 23.264 21.5668C23.1933 21.6375 23.264 21.7082 23.3347 21.6375C22.8397 22.1325 22.9811 22.8396 22.6276 23.3346L22.6983 23.4053C22.4862 23.476 22.6983 23.5467 22.769 23.6174L22.5569 23.6881C22.6276 23.7588 22.6276 23.7588 22.6983 23.6881C22.6983 23.971 22.4155 24.2538 22.4862 24.4659C22.4155 24.5366 22.3447 24.4659 22.274 24.5366C22.4862 24.4659 22.274 24.8195 22.4155 24.8195C22.2033 24.8902 22.3447 25.173 21.9912 25.1023C21.9912 25.2437 22.1326 25.2437 22.1326 25.2437C22.0619 25.3145 22.0619 25.4559 22.2033 25.5973C22.1326 25.668 22.2033 26.3044 21.9912 26.3751C22.1326 26.2337 22.0619 26.4458 22.1326 26.5165L22.2033 26.4458C22.2033 26.4458 22.2033 26.4458 22.1326 26.5165C22.1326 26.5165 22.0619 26.4458 22.0619 26.5872C22.0619 26.7287 22.1326 26.658 22.2033 26.7287C22.2033 26.7287 22.2033 26.7287 22.274 26.7994C22.274 26.7994 22.2033 26.5872 22.1326 26.7994C22.1326 26.7994 22.3447 26.8701 22.274 26.9408C22.274 26.7994 22.2033 26.8701 22.1326 26.9408L22.1326 27.0822L22.2033 27.0115C22.274 27.3651 22.274 27.7893 22.4862 27.86C22.4155 27.9307 22.6983 27.9307 22.6276 28.1429C22.4862 28.1429 22.6276 28.2843 22.769 28.2843C22.6983 28.2136 22.8397 28.0722 22.6983 28.0722L22.769 28.0015C22.769 27.86 22.8397 27.7893 22.9104 27.86C23.0518 27.86 23.1933 27.86 23.1933 27.7186C23.264 27.5065 23.6175 27.4358 23.6175 27.4358L23.6882 27.5065C23.759 27.1529 23.759 27.1529 23.9004 27.0115C23.9004 27.0115 23.9004 27.0115 23.9711 27.0822C23.9004 27.0115 23.9004 26.8701 24.0418 26.7287L24.1832 26.4458C24.4661 26.5872 24.2539 25.9508 24.5368 26.0923C24.4661 26.0216 24.5368 25.8094 24.6075 25.7387C24.5368 25.5266 24.8196 25.5266 24.8196 25.3852C24.8196 25.2437 24.7489 25.3145 24.7489 25.3145C24.961 25.2437 24.7489 24.8902 24.8903 24.8902C24.961 24.8195 25.0317 24.8902 25.1025 24.9609C25.1025 24.8195 24.8196 24.8195 25.0317 24.7488C25.0317 24.7488 24.961 24.8195 25.1025 24.8195C25.1732 24.7488 25.5267 24.8195 25.5267 24.6781L25.456 24.7488C25.5267 24.5366 25.8803 24.4659 25.6681 24.3952L25.5974 24.3245C25.8096 24.1124 25.5974 24.1831 25.8803 24.0417C25.8803 23.9002 26.0217 23.9002 25.951 23.8295C25.951 23.6881 26.0217 23.7588 26.0924 23.5467C26.0924 23.5467 26.0924 23.4053 26.1631 23.476C26.0924 23.4053 26.2338 23.1224 26.3045 23.0517C26.3045 23.1931 26.3753 23.1224 26.3753 23.1224C26.3045 23.0517 26.3045 22.9103 26.446 22.9103C26.3045 22.7689 26.1631 22.7689 26.2338 22.5567C26.2338 22.5567 26.2338 22.6982 26.3045 22.6274L26.3753 22.5567L26.446 22.6274C26.1631 22.486 26.3045 22.486 26.3753 22.2739C26.446 22.3446 26.446 22.3446 26.5167 22.2739C26.3753 22.2739 26.7288 22.2032 26.5167 22.1325C26.7995 21.8496 26.8702 21.3547 27.0824 21.2839C27.1531 21.2132 27.0824 21.1425 27.1531 21.0718L27.2238 21.1425C27.1531 20.9304 27.2238 21.0011 27.1531 20.789C27.2238 20.8597 27.2945 20.9304 27.3652 20.8597L27.2945 20.6475L27.4359 20.6475C27.3652 20.5768 27.4359 20.5061 27.5066 20.4354C27.3652 20.294 27.5066 20.1526 27.4359 20.0819C27.5773 20.0819 27.4359 19.9404 27.5773 19.9404L27.5066 19.8697C27.3652 19.8697 27.3652 19.8697 27.4359 19.799L27.5066 19.7283C27.5066 19.7283 27.5773 19.6576 27.5066 19.5869C27.5066 19.5869 27.5066 19.5869 27.4359 19.6576L27.5066 19.5869L27.5773 19.5162C27.7895 19.4455 27.5066 19.0212 27.7895 18.8798L27.7188 18.9505C27.7895 18.8798 27.9309 18.7384 28.0016 18.6676L28.0723 18.5969L28.2137 18.5969L28.3552 18.4555L28.638 18.5969L28.5673 18.8091L28.7794 18.7384L28.638 19.1626C28.638 19.1626 28.638 19.1626 28.7087 19.2333ZM22.0619 26.5872C22.1326 26.5165 22.1326 26.5165 22.0619 26.5872V26.5872ZM25.8096 25.5266C25.7389 25.5973 25.6681 25.5266 25.8096 25.668C25.8096 25.668 25.8803 25.5973 25.8096 25.5266ZM26.7995 23.1224L26.7288 23.1931C26.7995 23.1224 26.7995 23.1224 26.7995 23.1224ZM27.3652 20.4354C27.4359 20.5061 27.4359 20.5061 27.3652 20.4354V20.4354Z" fill="white"/>
<path d="M28.4258 20.2233C28.5672 20.0819 28.3551 20.1526 28.4258 20.0819C28.3551 20.0111 28.3551 20.1526 28.2844 20.0819C28.3551 20.1526 28.2136 20.1526 28.4258 20.2233Z" fill="white"/>
<path d="M23.476 21.2133L23.5467 21.1426L23.4053 21.1426L23.476 21.2133Z" fill="white"/>
<path d="M25.3852 26.5165L25.4559 26.4458H25.3145L25.3852 26.5165Z" fill="white"/>
<path d="M24.9611 27.5065L25.0318 27.4358C24.9611 27.5065 24.8197 27.5065 24.9611 27.5065Z" fill="white"/>
<path d="M25.1024 19.0212C24.961 19.1626 24.8196 19.1626 24.7488 19.2333L25.2438 18.7383L25.0317 18.8091C24.961 18.8798 24.8196 19.0212 24.7488 19.0919C24.6074 19.2333 24.3953 19.304 24.8196 18.8798C24.6074 19.0919 23.3346 20.2233 23.4053 20.294C23.3346 20.3647 23.0518 20.6475 23.0518 20.6475L22.9811 20.7182C22.9104 20.9304 22.8397 21.1425 22.8397 21.4254C22.9104 21.3546 22.9811 21.2839 23.0518 21.2132C23.1932 21.0718 22.9811 21.2839 23.0518 21.3546C23.7589 20.6475 23.6882 20.7182 24.1832 20.0819L24.6781 19.7283C24.2539 20.0111 24.6781 19.4455 25.1024 19.0212Z" fill="white"/>
<path d="M26.0216 20.0819C25.9509 20.1526 25.8802 20.2233 25.7388 20.3647L25.8095 20.294C25.9509 20.294 26.0216 20.2233 26.0216 20.0819Z" fill="white"/>
<path d="M28.1431 18.5262L28.9209 17.7484L28.9916 17.6777C28.7087 17.9605 28.3552 18.3141 28.0016 18.6677C28.2138 18.3141 28.2138 18.4555 28.1431 18.5262Z" fill="white"/>
<path d="M28.6381 17.3241C28.5674 17.3948 28.4967 17.4655 28.4967 17.4655C28.426 17.5362 28.2138 17.607 28.426 17.3948C27.7896 18.0312 27.3653 18.3141 27.0118 18.809C26.8703 18.9505 27.0825 18.7383 27.0118 18.809C26.941 18.8797 26.7996 19.0212 26.7289 19.0919C26.6582 19.1626 26.7996 19.0212 26.941 18.8797C26.3046 19.5161 26.2339 19.7283 26.2339 19.8697C25.8097 20.1525 25.739 20.3647 25.4561 20.6475C25.3147 20.7889 25.1026 20.8596 25.5268 20.4354C25.3147 20.6475 24.0419 21.7789 24.1126 21.8496C24.0419 21.9203 23.7591 22.2031 23.7591 22.2031C23.2641 22.6981 23.1934 22.7688 22.6984 23.2638L22.8398 23.1224C22.7691 23.3345 22.4863 23.4759 22.2741 23.6881C22.2741 23.8295 22.2034 24.0416 22.2034 24.183C22.2741 24.1123 22.2741 24.1123 22.3449 24.0416C22.4156 23.8295 23.2641 23.2638 23.8298 22.6981C23.9712 22.5567 23.7591 22.7688 23.8298 22.8395C24.5369 22.1324 24.4662 22.2031 24.9611 21.5667L25.5268 21.1425C25.1026 21.4253 25.5975 20.9304 25.9511 20.4354C25.8097 20.5768 25.6683 20.5768 25.5975 20.6475L26.2339 20.0111C26.3046 19.9404 26.2339 20.0111 26.1632 20.2232C26.2339 20.1525 26.2339 20.1525 26.3046 20.0818C26.5168 19.8697 26.4461 20.0818 26.3046 20.2232C26.2339 20.294 26.1632 20.3647 26.0218 20.3647C25.8804 20.5061 25.739 20.7889 25.8097 20.7182C25.8804 20.6475 25.9511 20.5768 26.0218 20.5061C25.9511 20.5768 25.9511 20.5768 25.9511 20.5768C25.9511 20.5768 26.0218 20.5061 26.1632 20.3647L26.3754 20.294L26.4461 20.2232L27.3653 19.4454C27.8603 18.809 28.3553 18.1726 29.2745 17.2534L29.3452 17.1827L28.6381 17.3241Z" fill="white"/>
<path d="M25.8095 20.7182C25.6681 20.7182 25.7388 20.7889 25.8095 20.7182C25.5974 20.7889 25.5974 20.7889 25.8095 20.7182Z" fill="white"/>
<path d="M26.7994 21.4254C26.7287 21.4961 26.658 21.5668 26.5166 21.7083L26.5873 21.6375C26.7287 21.6375 26.7287 21.4961 26.7994 21.4254Z" fill="white"/>
<path d="M27.7896 20.1526C27.7189 20.2233 27.5775 20.3648 27.5068 20.4355C27.4361 20.5062 27.5068 20.2941 27.7896 20.1526C27.0825 20.8597 27.0118 21.0719 27.0118 21.2133C26.5875 21.4961 26.5168 21.7083 26.234 21.9911C26.0926 22.1325 25.8804 22.2032 26.3047 21.779C26.0926 21.9911 24.8198 23.1225 24.8905 23.1932C24.8198 23.2639 24.5369 23.5467 24.5369 23.5467C24.0419 24.0417 23.9712 24.1124 23.4763 24.6074L23.6177 24.466C23.4763 24.7488 23.1934 24.8903 22.7692 25.3145C21.9913 25.9509 22.2035 25.8802 21.9206 26.163C21.8499 26.3752 21.9206 26.5873 21.9206 26.7287C22.062 26.5873 22.1328 26.5166 22.2742 26.3752C22.6277 26.0216 22.2035 26.4459 22.4156 26.3752L22.557 25.9509C22.6277 25.8802 22.6277 25.8802 22.557 25.9509C22.8399 25.6681 22.557 25.8095 22.9813 25.3852C23.052 25.1731 23.9005 24.6074 24.4662 24.0417C24.6076 23.9003 24.3955 24.1124 24.4662 24.1831C25.1733 23.476 25.1026 23.5468 25.5976 22.9104L26.0926 22.4154C25.6683 22.6982 26.1633 22.2032 26.5168 21.7083C26.3754 21.8497 26.234 21.8497 26.1633 21.9204L26.7997 21.284C26.8704 21.2133 26.7997 21.284 26.729 21.4961C26.7997 21.4254 26.7997 21.4254 26.8704 21.3547C27.0825 21.1426 27.0118 21.3547 26.8704 21.4961C26.7997 21.5669 26.729 21.6376 26.5875 21.6376C26.4461 21.779 26.3047 22.0618 26.3754 21.9911C26.4461 21.9204 26.5168 21.8497 26.5875 21.779C26.5168 21.8497 26.5168 21.8497 26.5168 21.8497C26.5168 21.8497 26.5875 21.779 26.729 21.6376L27.0118 21.6376L27.0825 21.5669L27.4361 21.2133C27.5068 21.1426 27.5068 21.0012 27.5068 21.0012C27.6482 20.7183 27.7896 20.4355 27.931 20.0112C27.8603 20.0819 27.7896 20.1526 27.7189 20.2233C27.6482 20.2941 27.8603 20.0819 27.7896 20.1526Z" fill="white"/>
<path d="M25.1731 24.8902C24.6781 25.3852 24.6074 25.4559 24.1124 25.9509L24.2539 25.8094C24.1124 26.0923 23.8296 26.2337 23.4053 26.658C22.4154 27.5065 22.9811 27.0822 21.9911 27.9308L22.1325 27.9308C22.1325 27.9308 22.0618 28.0015 21.9911 28.0722C22.0618 28.1429 22.1325 28.2136 22.2033 28.2843C22.4154 28.0722 22.5568 27.9308 22.7689 27.7186C23.1225 27.3651 22.6982 27.7893 22.9104 27.7186L23.1932 27.2944C23.2639 27.2236 23.2639 27.2236 23.1932 27.2944C23.476 27.0115 23.1932 27.1529 23.6175 26.7287C23.6882 26.5165 24.5367 25.9509 25.1024 25.3852C25.2438 25.2437 25.0317 25.4559 25.1024 25.5266C25.1731 25.4559 25.2438 25.3852 25.2438 25.3852C25.5267 24.9609 25.6681 24.5366 25.9509 24.1124C25.6681 24.3952 25.5267 24.5366 25.4559 24.6074C25.5267 24.5366 25.2438 24.8195 25.1731 24.8902Z" fill="white"/>
<path d="M17.6775 24.6074C17.5361 24.6074 17.4654 24.6781 17.5361 24.6074L17.6068 24.6781C17.6068 24.6781 17.6068 24.6781 17.6775 24.6074Z" fill="white"/>
<path d="M17.9607 26.1631C17.89 26.0923 17.9607 26.0216 17.9607 26.0216L17.7485 25.9509L17.9607 26.1631Z" fill="white"/>
<path d="M18.8092 24.4659C18.8092 24.4659 18.5971 24.2538 18.5264 24.3245C18.385 24.4659 18.5264 24.7488 18.7385 24.8195L18.8092 24.4659C18.88 24.5366 18.7385 24.6781 18.88 24.6781L18.6678 24.8902L18.6678 24.7488C18.5971 24.8195 18.5971 24.8195 18.5971 24.8195C18.5264 24.6073 18.3143 24.2538 18.1729 24.1124L18.1021 24.3245C18.1021 24.4659 18.4557 24.8195 18.5971 24.9609C18.5264 25.0316 18.385 24.8902 18.3143 24.8195C18.1729 24.9609 18.5264 25.173 18.385 25.3145L18.4557 25.2437C18.4557 25.2437 18.3143 25.3852 18.385 25.4559C18.2436 25.4559 18.1729 25.3852 18.1729 25.3852L18.3143 25.668C18.3143 25.668 18.1021 25.5973 18.0314 25.5266C17.9607 25.5973 18.2436 25.7387 18.2436 25.7387C18.0314 25.8094 18.1729 25.8094 17.89 25.8094L18.1021 25.8801C18.1021 26.0216 18.1021 26.0216 18.0314 26.0923C18.0314 25.9509 17.6779 25.8801 17.5365 25.7387L17.9607 26.3044C17.9607 26.3044 17.8193 26.163 17.7486 26.0923C17.89 26.2337 17.7486 26.5165 17.6072 26.658C17.5365 26.5872 17.4657 26.658 17.4657 26.7994C17.2536 26.8701 17.6072 27.0822 17.4657 27.0822C17.5365 27.0115 17.4657 26.9408 17.395 26.8701C17.395 27.0115 17.2536 27.1529 17.4657 27.2236C17.395 27.2944 17.395 27.2944 17.3243 27.2236L17.3243 27.5065C17.3243 27.5065 17.2536 27.4358 17.1829 27.5065C17.2536 27.4358 17.1829 27.2236 17.3243 27.2236C17.2536 27.1529 17.1122 27.1529 17.0415 27.0822C16.9708 27.2944 17.1122 27.5772 17.1829 27.7893L17.0415 27.9308L17.1122 28.0015L16.9708 28.0015L17.0415 28.0722C17.0415 28.0722 17.0415 28.0722 16.9708 28.0015C16.9001 27.9308 16.8293 27.86 16.7586 27.7893L16.7586 27.6479C16.6879 27.5772 16.6172 27.5065 16.6172 27.5065C16.5465 27.4358 16.5465 27.4358 16.5465 27.4358L16.5465 27.5772C16.5465 27.5772 16.6172 27.5065 16.6879 27.5772C16.6879 27.7186 16.7586 27.9307 16.9001 27.7893L16.7586 27.7893C16.8293 28.0015 16.7586 27.9308 16.8293 28.1429L16.7586 28.0722C16.8293 28.2843 16.4051 28.2843 16.5465 28.2843C16.5465 28.4257 16.6172 28.355 16.6172 28.4964L16.6172 28.6379C16.6172 28.6379 16.6172 28.4964 16.5465 28.5671C16.5465 28.7086 16.5465 28.85 16.4758 28.9207C16.4051 29.1328 16.6879 28.9914 16.6172 29.0621C16.5465 28.9914 16.4051 28.9914 16.3344 29.0621C16.4051 29.1328 16.4051 29.1328 16.4051 29.2743L16.3344 29.2035C16.2637 29.2743 16.3344 29.345 16.193 29.345C16.193 29.4864 16.193 29.4864 16.193 29.4864C16.193 29.6278 16.4758 29.6278 16.5465 29.5571C16.4051 29.5571 16.4051 29.6985 16.193 29.6278L16.193 29.4864C15.9101 29.6278 16.193 29.7692 15.9808 29.6985C16.0515 29.6278 16.0515 29.4864 15.9101 29.4864L15.9101 29.6278C15.9101 29.6278 15.9808 29.5571 15.8394 29.5571C15.8394 29.5571 15.8394 29.6985 15.9101 29.7692L15.7687 29.9106L15.4151 30.4056C15.4151 30.4056 15.3444 30.3349 15.2737 30.4056C15.1323 30.547 15.4151 30.6885 15.2737 30.6885L15.203 30.6178C15.4151 30.8299 14.9909 30.9713 15.203 31.1834C15.0616 31.1834 15.1323 31.1127 15.1323 30.9713L14.9909 30.9713L15.0616 30.9006C14.9202 30.9006 14.9202 31.1834 14.9202 31.1834C14.8494 31.2542 14.7787 31.042 14.708 31.1127C14.6373 31.3249 14.9202 31.1834 14.7787 31.3249L14.6373 31.3249C14.5666 31.537 14.4252 31.537 14.3545 31.6077C14.3545 31.6077 14.3545 31.6077 14.2838 31.6784C14.1423 31.6784 14.1423 31.9613 14.0716 32.032L13.9302 32.032L13.8595 32.2441C13.9302 32.1734 13.8595 32.1027 13.7888 32.032C13.7181 32.1027 13.7181 32.1027 13.7181 32.1027C13.7181 32.1027 13.7181 31.9613 13.6474 32.032L13.5767 32.2441C13.5767 32.2441 13.5767 32.2441 13.6474 32.1734C13.5767 32.2441 13.5059 32.3148 13.3645 32.3148C13.3645 32.3148 13.4352 32.2441 13.3645 32.1734C13.4352 32.2441 13.4352 32.1027 13.5059 32.032C13.3645 32.1734 13.5059 32.032 13.3645 32.032C13.2938 32.1027 13.2938 32.2441 13.2938 32.2441C13.1524 32.2441 13.1524 32.2441 13.011 32.3855L13.011 32.2441L12.9403 32.3148L13.011 32.1027C12.7281 32.1027 13.0817 32.3148 12.7988 32.3148L12.7988 32.1734C12.7281 32.2441 12.6574 32.4562 12.5867 32.2441C12.516 32.3148 12.7988 32.4562 12.516 32.4562C12.4453 32.3855 12.3746 32.3148 12.2332 32.3148C12.1624 32.3855 12.2332 32.4562 12.3039 32.3855C11.7382 32.6684 12.021 32.3855 11.6675 32.3148C11.7382 32.3855 11.4553 32.3855 11.7382 32.5269C11.526 32.4562 11.5968 32.2441 11.3846 32.1734L11.526 32.1734C11.4553 32.1027 11.4553 32.1027 11.4553 32.1027L11.526 32.032C11.3846 32.032 11.3846 31.8905 11.3139 31.8198C11.2432 31.7491 11.3139 31.6784 11.1725 31.6784C11.3139 31.6784 11.1018 31.6077 11.1018 31.4663C11.3139 31.537 11.2432 31.8905 11.3846 31.7491C11.4553 31.6784 11.3139 31.6784 11.3139 31.537C11.3139 31.537 11.3846 31.6077 11.4553 31.537C11.526 31.3249 11.2432 31.3249 11.1725 31.2542C11.2432 31.3249 11.2432 31.3249 11.2432 31.4663C11.2432 31.7491 11.3846 31.6077 11.2432 31.6077C11.3139 31.537 11.1725 31.3956 11.2432 31.3249C11.1725 31.1127 11.526 31.042 11.4553 30.9713C11.526 30.9006 11.3846 30.7592 11.3139 30.8299C11.2432 30.7592 11.3139 31.1127 11.1725 30.9713C11.4553 30.8299 11.0311 30.6885 11.2432 30.4763C11.3139 30.547 11.3846 30.4763 11.4553 30.547C11.4553 30.4056 11.3846 30.3349 11.3846 30.3349L11.4553 30.2642C11.3139 30.1228 11.3139 30.2642 11.2432 29.9106C11.3139 29.9814 11.3139 29.8399 11.3846 29.9106C11.4553 29.8399 11.3846 29.7692 11.3139 29.6985C11.3139 29.4157 11.4553 29.5571 11.3846 29.345C11.3139 28.9914 11.4553 28.7086 11.5968 28.4257L11.526 28.4964C11.526 28.4964 11.4553 28.2843 11.5968 28.2843C11.5968 28.2843 11.7382 28.2843 11.8089 28.2136L11.7382 28.1429L11.8089 28.0722C11.8796 28.0015 11.6675 28.0722 11.7382 28.0015C12.021 28.0015 11.8796 27.5772 12.1624 27.5772C12.021 27.4358 12.0917 27.7893 11.9503 27.6479L12.021 27.5772L11.8796 27.5772C12.021 27.2944 12.1624 27.1529 12.2332 26.9408C12.3039 26.8701 12.3039 26.8701 12.3039 26.7287L12.3746 26.7994C12.2332 26.5165 12.6574 26.5165 12.516 26.3751C12.7281 26.4458 13.011 26.3044 13.0817 26.5165L13.0817 26.3751C13.1524 26.4458 13.011 26.5872 13.0817 26.658L12.8696 26.8701C12.8696 26.8701 12.9403 26.9408 13.011 26.8701C13.011 26.8701 13.011 27.0115 13.0817 26.9408C12.5867 27.2944 12.6574 27.9308 12.3746 28.355L12.4453 28.4257C12.3039 28.4257 12.516 28.4964 12.4453 28.5671L12.2332 28.6379C12.3039 28.7086 12.3039 28.7086 12.3746 28.6379C12.3746 28.9207 12.0917 29.0621 12.0917 29.345C12.0917 29.6278 12.021 29.5571 12.021 29.5571C12.2332 29.4864 12.021 29.8399 12.2332 29.7692C12.021 29.8399 12.0917 30.0521 11.8796 29.9814C11.8089 30.0521 11.9503 30.0521 12.021 30.1228C12.021 30.2642 11.9503 30.3349 12.021 30.4056C11.9503 30.4763 12.021 30.9713 11.8089 31.042C11.9503 30.9006 11.8796 31.1127 11.8796 31.1127L11.9503 31.042L11.9503 31.1834L11.8796 31.2542C11.8796 31.3956 11.9503 31.3249 12.021 31.3956C12.021 31.3956 11.8089 31.3249 11.8089 31.4663L11.9503 31.4663C11.9503 31.4663 11.8796 31.3956 11.8089 31.4663L11.8796 31.537L12.021 31.3956C12.021 31.537 12.2332 31.7491 12.4453 31.6784C12.4453 31.8198 12.6574 31.6077 12.7281 31.8198C12.6574 31.8905 12.8696 31.9613 12.8696 31.9613C12.7988 31.8905 12.9403 31.7491 12.7281 31.8198C12.7281 31.8198 12.7988 31.7491 12.8696 31.6784C12.7988 31.3249 13.1524 31.537 13.2938 31.2542C13.3645 31.042 13.6474 31.042 13.7181 30.9713L13.7888 31.042C13.7888 30.7592 13.7888 30.7592 14.0009 30.6885C14.0009 30.6885 14.0009 30.6885 14.0716 30.7592C14.0009 30.6885 14.0009 30.547 14.1423 30.547L14.2838 30.4056C14.4959 30.6178 14.4252 29.9814 14.708 30.1228C14.6373 30.0521 14.708 29.8399 14.7787 29.7692C14.708 29.5571 14.9909 29.5571 15.0616 29.4864C15.0616 29.345 14.9909 29.4157 14.9909 29.4157C15.1323 29.4157 15.0616 29.0621 15.1323 28.9914C15.203 28.9207 15.2737 28.9914 15.3444 29.0621C15.3444 28.9207 15.0616 28.9207 15.2737 28.85C15.2737 28.85 15.203 28.9207 15.3444 28.9207C15.4151 28.85 15.7687 28.9207 15.7687 28.9207L15.5566 28.85C15.5566 28.7086 15.9808 28.7086 15.7687 28.6379L15.698 28.5671C15.9101 28.4964 15.698 28.4257 15.9101 28.355C15.9808 28.2843 16.1222 28.2843 15.9808 28.1429C16.0515 28.0722 16.0515 28.0722 16.1222 27.86C16.1222 27.86 16.1222 27.7186 16.193 27.7893C16.1222 27.7186 16.3344 27.5065 16.3344 27.5065C16.2637 27.5772 16.4051 27.5772 16.4051 27.5772C16.3344 27.5065 16.4051 27.4358 16.4758 27.3651C16.3344 27.2236 16.193 27.2236 16.2637 27.0115C16.2637 27.0115 16.2637 27.1529 16.3344 27.0822L16.4051 27.0115L16.4758 27.0822C16.4051 26.8701 16.5465 26.8701 16.5465 26.7287C16.6172 26.7994 16.6172 26.7994 16.6172 26.7994C16.4758 26.658 16.9001 26.658 16.6172 26.658C16.9001 26.5165 17.0415 25.9509 17.1829 25.9509C17.3243 25.9509 17.1829 25.8094 17.2536 25.7387L17.3243 25.8094C17.2536 25.5973 17.3243 25.668 17.2536 25.4559C17.3243 25.5266 17.395 25.5973 17.4657 25.5266L17.395 25.3145L17.5365 25.4559L17.6072 25.3852C17.5365 25.3145 17.6072 25.1023 17.5365 25.0316C17.7486 25.1023 17.5365 24.8902 17.7486 24.9609L17.6779 24.8902C17.6072 24.8195 17.5365 24.8902 17.6072 24.8195L17.7486 24.8195L17.7486 24.6781C17.7486 24.6781 17.7486 24.6781 17.6779 24.7488C17.6779 24.7488 17.6779 24.7488 17.7486 24.6781L17.8193 24.6073C18.0314 24.5366 17.8193 24.1831 18.1021 24.0417L18.0314 24.1124L18.2436 23.9002L18.385 23.9002L18.4557 23.971L18.5971 23.8295L18.7385 23.8295L18.7385 23.971L19.0214 23.971L18.8092 24.4659ZM12.021 31.2542C11.9503 31.1834 11.9503 31.1834 12.021 31.2542V31.2542ZM15.8394 29.6985C15.7687 29.7692 15.698 29.6985 15.7687 29.7692C15.8394 29.8399 15.8394 29.6985 15.8394 29.6985ZM16.9001 27.6479C16.8293 27.5772 16.8293 27.5772 16.9001 27.6479V27.6479Z" fill="white"/>
<path d="M18.5967 25.2438C18.6674 25.1731 18.526 25.1731 18.5967 25.1024C18.526 25.0317 18.526 25.1731 18.4553 25.1024C18.526 25.1731 18.4553 25.2438 18.5967 25.2438Z" fill="white"/>
<path d="M13.2934 26.7287L13.3641 26.658L13.2227 26.658L13.2934 26.7287Z" fill="white"/>
<path d="M15.4857 30.4763L15.3442 30.4763L15.4857 30.4763Z" fill="white"/>
<path d="M14.9906 31.3956L15.0613 31.3249C14.9906 31.3956 14.8492 31.2542 14.9906 31.3956Z" fill="white"/>
<path d="M15.7681 25.2438C15.8388 25.1731 15.9802 25.1731 16.1923 24.9609L15.7681 25.2438Z" fill="white"/>
<path d="M17.1823 23.5467C16.8995 23.8295 16.8287 23.9002 16.8287 24.0416C16.4045 24.3245 16.2631 24.4659 15.9802 24.7487C15.7681 24.8195 15.6267 24.9609 16.0509 24.5366C15.8388 24.7487 14.4246 25.7387 14.4953 25.8094C14.2832 25.8801 14.071 26.0923 14.0003 26.163C13.4346 26.5872 13.3639 26.6579 12.7982 27.0822L12.9397 26.9408C12.7982 27.0822 12.5861 27.2943 12.3033 27.4358C12.3033 27.7186 12.2325 27.9307 12.1618 28.0014C12.2325 27.9307 12.2325 27.9307 12.3033 27.86C12.374 27.6479 13.3639 27.2236 13.8589 26.7286C14.0003 26.5872 13.7882 26.7994 13.8589 26.8701C14.6367 26.2337 14.566 26.3044 15.1317 25.7387L15.6974 25.3144C15.2731 25.5973 15.7681 25.1023 16.1923 24.678C16.0509 24.8195 15.9095 24.8195 15.8388 24.8902L16.6166 24.2538C16.6873 24.1831 16.6166 24.2538 16.5459 24.4659C16.6166 24.3952 16.6166 24.3952 16.6873 24.3245C16.9702 24.1831 16.8287 24.3245 16.6873 24.4659C16.6166 24.5366 16.4752 24.5366 16.4045 24.6073C16.2631 24.7487 16.0509 24.9609 16.1216 25.0316C16.1923 24.9609 16.2631 24.8902 16.3338 24.8195C16.2631 24.8902 16.2631 24.8902 16.2631 24.8902C16.2631 24.8902 16.3338 24.8195 16.4752 24.678L16.6873 24.6073L16.758 24.5366L17.748 23.8295C18.0308 23.5467 18.3137 23.2638 18.6672 22.9103L17.1823 23.5467Z" fill="white"/>
<path d="M16.1925 24.9609C16.0511 24.9609 16.0511 24.9609 16.1925 24.9609V24.9609Z" fill="white"/>
<path d="M16.334 26.658C16.4047 26.5872 16.5461 26.5872 16.7582 26.3751L16.334 26.658Z" fill="white"/>
<path d="M18.2431 24.6073C18.1724 24.678 18.031 24.8194 17.9603 24.8901C17.8189 24.8901 18.031 24.678 18.2431 24.6073C17.3946 25.173 17.3239 25.3851 17.3239 25.5265C16.8996 25.8094 16.7582 25.9508 16.4754 26.2337C16.2632 26.3044 16.1218 26.4458 16.5461 26.0215C16.3339 26.2337 14.9197 27.2236 14.9904 27.2943C14.9197 27.365 14.5662 27.5772 14.5662 27.5772C14.0005 28.0014 13.9298 28.0721 13.3641 28.4964L13.5055 28.355C13.3641 28.6378 13.0105 28.7085 12.5863 29.1328C11.8792 29.6985 12.0206 29.6985 11.667 29.9106C11.5963 30.1227 11.5963 30.2642 11.5256 30.4763C11.667 30.3349 11.7377 30.2642 11.8792 30.1227C12.3034 29.8399 11.8085 30.1934 12.0206 30.1227L12.3741 29.7692C12.4448 29.6985 12.4448 29.6985 12.3741 29.7692C12.657 29.4863 12.3741 29.6278 12.8691 29.2742C13.0105 29.1328 13.9298 28.6378 14.4955 28.0721C14.6369 27.9307 14.4247 28.1428 14.4955 28.2135C15.2733 27.5772 15.2026 27.6479 15.7682 27.0822L16.3339 26.6579C15.9097 26.9408 16.4046 26.4458 16.8289 26.0215C16.6875 26.1629 16.5461 26.1629 16.4754 26.2337L17.1825 25.668C17.2532 25.5973 17.1825 25.668 17.1118 25.8801C17.1825 25.8094 17.1825 25.8094 17.2532 25.7387C17.536 25.5973 17.3946 25.7387 17.2532 25.8801C17.1118 25.8801 17.041 25.9508 16.9703 26.0215C16.8289 26.1629 16.6168 26.3751 16.6875 26.4458C16.7582 26.3751 16.8289 26.3044 16.8996 26.2337C16.8289 26.3044 16.8289 26.3044 16.8289 26.3044C16.8289 26.3044 16.8996 26.2337 17.041 26.0922L17.2532 26.0215L17.3239 25.9508L17.7481 25.668C17.8189 25.5973 17.8896 25.5265 17.8896 25.3851C17.8189 25.4558 17.6774 25.5973 17.536 25.5973C17.6067 25.5265 17.7481 25.3851 17.8896 25.3851C18.031 25.1023 18.2431 24.7487 18.3845 24.4659C18.3138 24.5366 18.2431 24.6073 18.1724 24.678C18.1017 24.7487 18.3138 24.5366 18.2431 24.6073Z" fill="white"/>
<path d="M15.2025 29.0621C14.6368 29.4864 14.5661 29.5571 14.0004 29.9814L14.1419 29.84C14.0004 30.1228 13.6469 30.1935 13.2226 30.6178C12.162 31.3956 12.7984 31.042 11.667 31.7491L11.7377 31.8199C11.7377 31.8199 11.667 31.8906 11.5963 31.9613C11.667 32.032 11.667 32.1734 11.8084 32.1734C12.0205 31.9613 12.162 31.8199 12.4448 31.6784C12.8691 31.3956 12.3741 31.7491 12.5862 31.6784L12.9398 31.3249C13.0105 31.2542 13.0105 31.2542 12.9398 31.3249C13.2226 31.042 12.9398 31.1835 13.4348 30.8299C13.5055 30.6178 14.4954 30.1935 14.9904 29.6985C15.1318 29.5571 14.9197 29.7693 14.9904 29.84C15.0611 29.7693 15.1318 29.6985 15.1318 29.6985C15.4147 29.2743 15.6975 28.85 15.9803 28.4257C15.6975 28.7086 15.4854 28.7793 15.4854 28.9207C15.5561 28.7086 15.2732 28.9914 15.2025 29.0621Z" fill="white"/>
<path d="M50.9114 20.5063C50.77 20.6477 50.5579 20.7184 50.6286 20.7891L50.77 20.7891C50.77 20.6477 50.8407 20.577 50.9114 20.5063Z" fill="white"/>
<path d="M43.9821 28.143L43.6992 28.2844C43.8406 28.2844 43.9114 28.2137 43.9821 28.143Z" fill="white"/>
<path d="M31.3245 35.0019L31.1831 35.1433C31.3952 35.0726 31.3245 35.1433 31.3245 35.0019Z" fill="white"/>
<path d="M36.2743 31.8907C36.2036 31.9614 36.2036 31.9614 36.2036 31.9614C36.2743 32.0321 36.345 31.9614 36.2743 31.8907Z" fill="white"/>
<path d="M6.85889 40.8002C6.85889 40.8002 7.00031 40.8002 7.07102 40.8709C7.00031 40.8002 6.9296 40.8709 6.85889 40.8002Z" fill="white"/>
<path d="M22.6977 38.2546C22.5563 38.2546 22.627 38.3253 22.6977 38.2546V38.2546Z" fill="white"/>
<path d="M49.0023 23.8297C49.073 23.6175 49.1437 23.5468 49.3558 23.4761L49.1437 23.4054L49.0023 23.8297Z" fill="white"/>
<path d="M52.467 18.6678C52.467 18.6678 52.3256 18.3849 52.1842 18.5263C52.1842 19.092 52.1135 19.7284 52.2549 19.7284C52.3256 19.3749 52.3256 19.092 52.3256 18.8092C52.467 18.8092 52.3256 19.5163 52.3963 19.4456C52.2549 19.7284 52.2549 20.0113 52.0428 20.2234C52.1135 20.1527 52.1842 19.7991 52.1135 19.8698C51.9721 20.1527 52.0428 20.082 51.9013 20.2234C52.0428 19.7991 51.9013 18.9506 51.8306 18.7385C51.8306 18.8799 51.8306 19.0213 51.8306 19.1627L51.7599 19.2334C51.6892 19.7284 51.8306 20.2941 51.7599 20.5062C51.6185 20.7891 51.4064 20.5769 51.4771 20.5062C51.1235 21.0012 51.4064 21.1426 50.9821 21.7083L51.1235 21.5669C51.0528 21.6376 50.6285 22.0619 50.77 22.0619C50.6993 22.1326 50.4871 22.0619 50.5578 21.9912L50.275 22.5568C50.3457 22.4861 50.1336 22.4154 50.2043 22.3447C50.0629 22.4861 50.0629 22.769 50.2043 22.6276C49.8507 22.8397 49.9214 22.769 49.5679 22.9811C49.4972 23.0518 49.7093 23.1225 49.78 23.0518C49.5679 23.264 49.4265 23.4054 49.3558 23.4761C49.6386 23.0518 49.1436 23.1225 49.1436 22.9811L48.7901 24.0418L48.7194 23.8296C48.7194 23.9711 47.8708 24.8196 47.5173 25.1731L47.588 25.1024C47.6587 25.0317 47.2344 25.3146 47.093 25.456C47.093 25.456 47.1637 25.3853 47.2344 25.3146C46.8809 25.5267 47.0223 25.8095 46.598 25.951C46.8809 25.6681 46.8809 25.6681 46.8102 25.5974C46.598 25.8095 46.0324 26.2338 46.3152 26.2338C46.1738 26.3752 46.0324 26.5166 46.0324 26.3752L45.5374 26.8702C45.6081 26.7995 45.5374 26.7288 45.396 26.8702C45.7495 26.6581 45.8909 26.2338 46.1031 26.1631C46.0324 26.0924 45.8909 26.0924 46.0324 25.951C45.4667 26.5166 45.2545 26.8702 44.9717 27.2945L44.406 27.7187L44.2646 27.7187C44.1939 27.7894 44.1939 27.7894 44.1232 27.8601C44.0525 27.9309 44.0525 27.9309 43.9817 28.0016C43.911 27.9309 43.9817 27.8601 43.9817 27.7187C44.0525 27.648 44.1232 27.7187 44.1939 27.648C44.2646 27.5773 44.2646 27.4359 44.1232 27.4359L44.0525 27.5066C44.1232 27.4359 44.0525 27.3652 44.0525 27.3652L43.6989 27.7187C43.6989 27.7187 43.8403 27.7187 43.911 27.648C43.6989 27.8601 43.4868 28.2137 43.7696 28.0723L43.4161 28.4258C43.0625 28.7794 43.1332 28.7087 42.709 29.1329C42.709 29.1329 42.709 28.9915 42.6382 29.0622C42.4261 29.4158 41.719 29.5572 41.719 29.6986C41.5069 29.9108 41.6483 29.9108 41.5069 30.0522L41.2947 30.2643C41.1533 30.2643 41.4362 30.1229 41.224 30.1936C40.8705 30.5472 40.5876 30.6886 40.2341 30.9007C39.7391 31.2543 40.5169 30.9007 40.0927 31.1836C39.9512 31.1836 39.8805 31.1128 39.5977 31.2543C39.4563 31.3957 39.527 31.4664 39.3148 31.5371L39.2441 31.4664C39.032 31.5371 38.8906 31.6785 38.8199 31.6078C38.6784 31.7492 38.537 31.7492 38.4663 31.8199C38.1128 32.0321 38.8199 31.8907 38.9613 31.8907C38.6077 31.9614 38.3956 32.1735 38.1128 32.1735L38.3956 32.0321C37.7592 32.2442 37.8299 32.4563 37.4764 32.3856C37.6885 32.3149 37.9006 32.1028 37.7592 32.1028L37.4057 32.3149C37.4057 32.3149 37.5471 32.1735 37.4764 32.2442C37.4057 32.3149 37.2642 32.4563 37.1935 32.5271L36.6278 32.8099C36.6985 32.7392 36.6985 32.7392 36.6278 32.8099L36.2743 33.022C36.345 32.9513 36.2036 32.9513 36.0621 33.0927C35.5672 33.3049 35.7793 33.517 35.355 33.517C35.4258 33.4463 35.4258 33.4463 35.4258 33.4463L35.2136 33.517C35.2843 33.7291 34.0822 34.0827 34.153 34.2948C33.7994 34.3655 34.0823 34.2241 34.4358 34.012L34.0822 34.0827C34.153 34.012 34.2944 34.012 34.4358 33.8706C34.0115 34.012 33.658 34.2241 33.5166 34.3655C33.3751 34.3655 33.5873 34.1534 33.0923 34.3655C32.5266 34.6484 33.3044 34.4362 32.9509 34.6484L32.5973 34.4362C32.1731 34.7191 31.8195 34.7898 31.3952 34.9312C31.3245 35.0019 31.3245 35.0019 31.2538 35.0726C30.8296 35.2141 30.476 35.5676 30.1225 35.6383C30.1932 35.5676 29.9103 35.709 29.8396 35.6383L29.2739 35.9212C29.5568 35.7797 29.4861 35.709 29.4861 35.709C29.2739 35.7797 29.2032 35.8505 29.1325 35.9212C29.2032 35.8505 29.2739 35.7797 29.1325 35.7797L28.6375 36.1333C28.6375 36.1333 28.7789 36.1333 28.8497 36.0626C28.7082 36.0626 28.3547 36.2747 28.1426 36.3454L28.2133 36.2747C28.3547 36.2747 28.4961 36.1333 28.5668 36.0626C28.1426 36.204 28.4254 36.0626 28.2133 36.1333C27.9304 36.2747 27.8597 36.3454 27.9304 36.4161C27.5769 36.4869 27.5062 36.5576 27.1526 36.7697L27.1526 36.6283L26.8698 36.7697L27.0819 36.5576C26.4455 36.7697 27.0112 36.7697 26.3748 36.9818L26.3041 36.9111C26.0212 37.0525 26.0212 37.194 25.7384 37.194C25.4555 37.3354 26.2334 37.1232 25.6677 37.4061C25.7384 37.3354 25.4555 37.3354 25.3141 37.4768C25.1727 37.6182 25.3848 37.5475 25.597 37.4768C24.8192 37.8304 24.9606 37.4061 24.2535 37.8304C24.5363 37.8304 24.0413 38.0425 24.6777 37.8304C24.3949 37.9718 24.0413 37.9011 23.7585 38.1839L23.8999 38.0425C23.7585 38.0425 23.6171 38.1839 23.6171 38.1839L23.6171 38.0425C23.3342 38.3253 22.8393 38.2546 22.6978 38.5375C22.7685 38.3253 22.415 38.6789 22.2736 38.6789C22.6271 38.4668 23.1928 38.3253 23.1928 38.1839C23.0514 38.1839 22.91 38.3253 22.7685 38.3253C22.8393 38.2546 23.0514 38.1839 23.0514 38.1839C22.5564 38.2546 22.2736 38.5375 21.9907 38.6789L22.4857 38.4667C22.4857 38.6082 22.2736 38.5375 22.1321 38.6789C21.8493 38.6789 21.6372 38.891 21.425 38.9617C21.4957 38.891 21.4957 38.891 21.4957 38.891C20.8594 39.1031 20.7179 38.9617 20.4351 38.9617C20.223 39.0324 19.7987 39.1739 20.0108 39.2446C19.7987 39.3153 20.7179 38.9617 20.5058 39.1739C20.1522 39.1031 19.7987 39.4567 19.0916 39.5981C19.3744 39.4567 18.8795 39.5274 19.1623 39.386C18.8087 39.4567 18.8087 39.5981 18.6673 39.5981H18.5259C18.1016 39.881 18.4552 39.8103 17.8188 40.0224C18.0309 39.9517 17.536 40.0224 17.6774 39.881C17.4652 39.9517 17.2531 40.0224 17.1824 40.0931C16.546 40.3052 16.546 40.1638 15.9096 40.3759L15.9803 40.4466C15.1318 40.7295 14.0711 40.9416 13.1519 41.1538L13.4347 41.1538C13.2933 41.1538 12.869 41.2952 12.5862 41.2952C12.5862 41.2952 12.7276 41.2952 12.7983 41.2245C12.7983 41.2245 12.6569 41.083 12.4448 41.1538L12.3741 41.2245L12.3034 41.1538C11.9498 41.2245 12.3741 41.2245 12.0912 41.2245C11.8084 41.083 10.5356 41.3659 10.2528 41.2245C10.0406 41.4366 10.8891 41.1538 10.677 41.3659C10.5356 41.3659 10.5356 41.3659 10.3235 41.2952L10.3942 41.3659C9.40422 41.3659 8.90925 41.4366 8.06072 41.4366C7.77788 41.4366 7.63646 41.4366 7.42432 41.5073C7.35361 41.4366 7.63646 41.4366 7.49504 41.4366C6.92935 41.578 6.36366 41.1538 6.01011 41.2245C6.08082 41.1538 5.44443 40.6588 5.79798 40.7295C5.72727 40.6588 5.65656 40.7295 5.58585 40.6588C5.65656 40.5881 6.22224 40.8709 6.43438 40.8002C6.64651 40.8709 6.85864 40.9416 7.07077 41.0123C7.07077 41.0123 7.14148 40.9416 7.07077 40.8709C7.21219 40.8709 7.35361 40.8709 7.14148 40.8002C7.9193 41.0123 8.83854 40.9416 9.68707 40.8002C10.6063 40.7295 11.4548 40.5881 12.2327 40.5174C12.3741 40.5174 12.3034 40.4466 12.1619 40.4466C12.5155 40.5174 12.4448 40.3052 12.5862 40.3052L13.0812 40.3759C13.2933 40.3052 13.0812 40.2345 13.0812 40.2345C13.9297 40.0931 14.7075 40.0224 15.4146 39.7395C15.6975 39.7395 15.4146 39.881 15.6268 39.8103C15.2025 39.8103 16.4753 39.5274 16.1924 39.5274C16.546 39.5981 17.2531 39.3153 17.1824 39.5274C17.536 39.4567 17.4652 39.386 17.3238 39.386C17.7481 39.2446 18.0309 39.2446 18.3845 39.0324C18.6673 39.0324 20.1522 38.396 20.5058 38.4668C20.223 38.4668 20.5058 38.4668 20.7179 38.2546L20.5058 38.1839L21.0008 37.9718C21.0715 37.9011 21.1422 37.9718 21.1422 37.9718C21.2129 37.9011 21.1422 37.9718 21.425 37.9718C21.7786 37.9011 21.7786 37.7596 21.9907 37.6889L22.2029 37.6182C22.415 37.5475 21.6372 37.9011 22.2029 37.7596C22.2029 37.7596 22.4857 37.4768 22.6271 37.4768C22.3443 37.6182 22.3443 37.6182 22.4857 37.6182L22.91 37.4768L22.6978 37.4061C23.8292 36.9818 25.0313 36.6283 26.2334 36.1333C26.2334 36.2747 27.1526 35.7797 27.0819 35.9919C26.7991 36.1333 27.2233 36.1333 27.4354 35.9212C27.1526 35.9212 27.789 35.5676 27.2233 35.8505L27.6476 35.5676C27.789 35.1433 28.9911 35.0726 29.6275 34.7191C29.5568 34.7898 29.5568 34.7898 29.5568 34.7898C30.1932 34.4362 31.0417 34.2948 31.1831 34.1534L31.2538 34.2241C31.7488 33.8706 31.8195 33.7998 32.4559 33.5877C32.4559 33.5877 32.3852 33.6584 32.5266 33.6584C32.668 33.517 32.8095 33.3756 33.2337 33.2342L33.9408 33.0927C34.0115 33.3049 35.0722 32.3856 35.4258 32.5978C35.5672 32.4563 35.9914 32.1735 36.2036 32.1028C36.2036 32.1028 36.2036 32.1028 36.2743 32.1735C36.4864 31.9614 37.0521 31.8199 37.3349 31.6785C37.4764 31.5371 37.4057 31.6078 37.3349 31.5371C37.7592 31.3957 38.2542 30.9007 38.3956 30.9007C38.6784 30.7593 38.537 30.9007 38.6077 30.9714C38.9613 30.7593 38.4663 30.83 38.9613 30.6179C38.8906 30.6886 38.8199 30.7593 38.8199 30.7593C39.032 30.6886 39.527 30.7593 39.7391 30.5472V30.4057C40.0219 30.1229 40.7291 30.1229 40.6583 29.9108L40.5876 29.84C41.2947 29.5572 40.7998 29.6279 41.5069 29.3451C41.7897 29.2037 42.0018 29.1329 42.0018 28.9915L41.9311 29.0622C42.2847 28.8501 42.2847 28.8501 42.6382 28.638C42.6382 28.638 42.7797 28.4965 42.8504 28.4258C42.7797 28.3551 43.5575 27.8601 43.6989 27.7187C43.4868 27.9309 43.5575 27.8601 43.6989 27.8602C43.7696 27.648 43.8403 27.5773 44.1232 27.4359C44.1232 27.2945 43.9817 27.153 44.406 26.8702C44.3353 26.9409 44.2646 27.0116 44.2646 27.0116L44.406 26.8702C44.406 26.8702 44.3353 26.9409 44.406 27.0116C44.6181 26.6581 44.8303 26.5874 45.1838 26.2338C45.0424 26.3752 45.2545 26.3045 45.2545 26.3045C45.1838 26.2338 45.8909 25.951 45.6081 25.951C46.4566 25.3853 47.4466 24.2539 47.8708 24.1125C48.0123 24.1125 48.1537 23.8296 48.2951 23.6882L48.3658 23.7589C48.6486 23.3347 48.6487 23.4761 49.0022 22.9811C48.9315 23.1932 49.0022 23.1225 49.2143 23.0518L49.4265 22.6983H49.5679C49.7093 22.5568 49.78 22.4861 49.9214 22.3447C49.9922 22.1326 50.3457 21.779 50.3457 21.6376C50.5578 21.5669 50.5578 21.2841 50.77 21.2133C50.8407 21.1426 50.77 21.0719 50.8407 21.0012C50.77 21.0719 50.6993 21.0012 50.77 20.9305H50.9114C50.9821 20.7184 51.0528 20.6477 51.1235 20.5769C51.1235 20.5769 51.0528 20.6477 50.9821 20.7184C51.0528 20.6477 51.0528 20.6477 51.1235 20.5769C51.1235 20.5769 51.1235 20.5769 51.1942 20.5062C51.2649 20.4355 51.3357 20.3648 51.3357 20.2234C51.7599 19.7991 51.6185 19.092 51.8306 18.597C51.7599 18.6678 51.7599 18.8092 51.7599 18.8092C51.7599 18.6678 51.9013 18.1021 51.8306 17.8899L51.9013 17.6778L52.0428 17.6778C52.0428 17.5364 52.0428 17.2535 51.972 17.0414L52.0428 16.8293C52.1135 17.0414 52.1842 17.1121 52.2549 17.3243C52.2549 17.1828 52.2549 17.0414 52.3256 16.9707C52.467 17.395 52.5377 17.8899 52.5377 18.3142C52.3963 18.4556 52.3963 18.597 52.467 18.6678ZM21.3543 38.1839C21.1422 38.2546 21.2129 38.1839 21.3543 38.1839V38.1839ZM38.4663 31.6785C38.3249 31.6785 38.2542 31.7492 38.1835 31.8199C38.2542 31.8907 38.3956 31.7492 38.4663 31.6785Z" fill="white"/>
<path d="M44.0527 28.0723C43.982 28.143 43.982 28.143 44.0527 28.0723C43.9113 28.0723 43.982 28.143 44.0527 28.0723Z" fill="white"/>
<path d="M51.5481 21.284C51.831 21.0012 51.5481 21.1426 51.7603 20.789C51.7603 20.6476 51.5481 21.0012 51.6188 20.9305C51.4774 21.2133 51.336 21.3547 51.5481 21.284Z" fill="white"/>
<path d="M51.5478 21.0013C51.5478 21.0013 51.6185 20.9305 51.5478 20.8598L51.5478 21.0013Z" fill="white"/>
<path d="M6.01047 40.5174L5.79834 40.4467L5.86905 40.5174H6.01047Z" fill="white"/>
<path d="M39.1736 31.5371C39.1028 31.4664 39.0321 31.5371 38.9614 31.6078L39.1736 31.5371Z" fill="white"/>
<path d="M35.9916 33.022H36.133L35.9209 32.9513L35.9916 33.022Z" fill="white"/>
<path d="M33.3755 34.3656C33.4462 34.2949 33.5876 34.2949 33.729 34.1535C33.4462 34.2949 33.3048 34.2949 33.3755 34.3656Z" fill="white"/>
</g>
<defs>
<clipPath id="clip0_73_215">
<rect width="54.8" height="31.7" fill="white" transform="translate(0 38.7495) rotate(-45)"/>
</clipPath>
</defs>
</svg>
