<?xml version="1.0" encoding="UTF-8" standalone="no"?>
<svg
   xmlns:dc="http://purl.org/dc/elements/1.1/"
   xmlns:cc="http://creativecommons.org/ns#"
   xmlns:rdf="http://www.w3.org/1999/02/22-rdf-syntax-ns#"
   xmlns:svg="http://www.w3.org/2000/svg"
   xmlns="http://www.w3.org/2000/svg"
   viewBox="0 0 2267.72 2267.72"
   height="2267.72"
   width="2267.72"
   xml:space="preserve"
   id="svg2"
   version="1.1"><metadata
     id="metadata8"><rdf:RDF><cc:Work
         rdf:about=""><dc:format>image/svg+xml</dc:format><dc:type
           rdf:resource="http://purl.org/dc/dcmitype/StillImage" /></cc:Work></rdf:RDF></metadata><defs
     id="defs6"><clipPath
       id="clipPath18"
       clipPathUnits="userSpaceOnUse"><path
         id="path16"
         d="M 0,1700.787 H 1700.787 V 0 H 0 Z" /></clipPath></defs><g
     transform="matrix(1.3333333,0,0,-1.3333333,0,2267.72)"
     id="g10"><g
       id="g12"><g
         clip-path="url(#clipPath18)"
         id="g14"><g
           transform="translate(1700.4429,850.2339)"
           id="g20"><path
             id="path22"
             style="fill:#314631;fill-opacity:1;fill-rule:nonzero;stroke:none"
             d="m 0,0 c 0,-469.496 -379.823,-850.234 -849.982,-850.234 -469.954,0 -850.461,380.738 -850.461,850.234 0,470.388 380.507,850.898 850.461,850.898 C -379.823,850.898 0,470.388 0,0" /></g><g
           transform="translate(850.4604,1697.8816)"
           id="g24"><path
             id="path26"
             style="fill:#ffffff;fill-opacity:1;fill-rule:nonzero;stroke:none"
             d="m 0,0 c -114.447,0 -225.436,-22.39 -329.88,-66.548 -100.901,-42.66 -191.502,-103.743 -269.284,-181.553 -77.789,-77.817 -138.857,-168.461 -181.505,-269.413 -44.153,-104.515 -66.541,-215.588 -66.541,-330.133 0,-114.334 22.388,-225.245 66.541,-329.652 42.653,-100.863 103.721,-191.444 181.505,-269.228 77.795,-77.796 168.395,-138.873 269.284,-181.535 104.461,-44.172 215.448,-66.569 329.88,-66.569 114.476,0 225.468,22.397 329.893,66.569 100.841,42.656 191.382,103.733 269.109,181.534 77.698,77.772 138.694,168.354 181.293,269.228 44.085,104.392 66.437,215.303 66.437,329.653 0,114.56 -22.352,225.633 -66.437,330.134 C 737.701,-416.548 676.706,-325.905 599.002,-248.1 521.288,-170.285 430.747,-109.202 329.893,-66.548 225.483,-22.39 114.492,0 0,0 m 0,-1701.131 c -115.306,0 -227.146,22.57 -332.411,67.083 -101.664,42.989 -192.959,104.534 -271.35,182.924 -78.378,78.379 -139.913,169.656 -182.895,271.293 -44.493,105.212 -67.054,216.975 -67.054,332.184 0,115.419 22.56,227.343 67.054,332.662 42.975,101.728 104.51,193.067 182.895,271.48 78.378,78.405 169.673,139.957 271.35,182.944 C -227.161,-16.062 -115.321,6.5 0,6.5 c 115.366,0 227.21,-22.562 332.425,-67.061 101.63,-42.983 192.867,-104.535 271.176,-182.945 78.298,-78.401 139.762,-169.741 182.682,-271.48 44.425,-105.305 66.949,-217.228 66.949,-332.661 0,-115.223 -22.525,-226.984 -66.949,-332.183 -42.926,-101.649 -104.39,-192.924 -182.682,-271.293 -78.323,-78.395 -169.559,-139.941 -271.176,-182.925 C 227.194,-1678.561 115.351,-1701.131 0,-1701.131" /></g><g
           transform="translate(850.4608,1627.8)"
           id="g28"><path
             id="path30"
             style="fill:#ffffff;fill-opacity:1;fill-rule:nonzero;stroke:none"
             d="m 0,0 c -428.814,0 -777.355,-348.317 -777.355,-777.566 0,-428.791 348.541,-776.678 777.355,-776.678 429.02,0 777.342,347.887 777.342,776.678 C 777.342,-348.317 429.02,0 0,0 m 0,-1571.46 c -438.201,0 -794.122,356.586 -794.122,793.894 0,438.635 355.921,794.557 794.122,794.557 437.743,0 794.764,-355.922 794.764,-794.557 0,-437.308 -357.021,-793.894 -794.764,-793.894" /></g><g
           transform="translate(460.7808,947.6343)"
           id="g32"><path
             id="path34"
             style="fill:#ffffff;fill-opacity:1;fill-rule:nonzero;stroke:none"
             d="m 0,0 c 0,31.388 -42.073,29.05 -42.073,29.05 h -39.07 v -58.436 h 39.07 C -25.711,-29.386 0,-25.378 0,0 m -81.143,68.12 h 39.07 c 0,0 38.734,0 38.734,29.049 0,31.391 -38.734,29.718 -38.734,29.718 h -39.07 z M 39.067,-1.001 c 0,-64.112 -65.446,-67.119 -81.14,-67.119 h -77.804 v 233.745 h 77.804 c 0,0 77.801,1.669 77.801,-65.782 0,-30.722 -19.033,-46.416 -39.067,-51.425 44.078,-9.016 42.406,-49.419 42.406,-49.419" /></g><g
           transform="translate(593.332,1077.5281)"
           id="g36"><path
             id="path38"
             style="fill:#ffffff;fill-opacity:1;fill-rule:nonzero;stroke:none"
             d="m 0,0 v -162.282 h 27.383 v -35.731 H -66.45 v 35.731 h 27.383 V 0 h -26.046 v 35.731 h 91.16 L 26.047,0 Z" /></g><g
           transform="translate(650.7564,944.2953)"
           id="g40"><path
             id="path42"
             style="fill:#ffffff;fill-opacity:1;fill-rule:nonzero;stroke:none"
             d="m 0,0 h 39.067 c 0.668,-19.369 16.698,-29.05 34.061,-29.05 18.032,0 34.058,11.687 34.058,30.051 0,19.701 -18.364,31.724 -34.058,32.392 -2.005,0 -18.032,0 -35.062,7.679 C 13.692,52.426 0,73.128 0,100.844 c 0,44.411 35.395,71.459 73.128,71.459 40.403,0 71.459,-27.384 72.127,-67.119 h -38.734 c -0.668,19.369 -15.697,28.049 -33.393,28.049 -18.364,0 -34.061,-10.686 -34.061,-32.389 0,-19.369 16.698,-29.718 34.061,-29.718 1.669,0 18.032,0 34.727,-7.682 C 132.564,52.09 145.92,28.717 145.92,1.001 145.92,-43.742 110.861,-68.12 73.128,-68.12 32.725,-67.118 0.668,-43.742 0,0" /></g><g
           transform="translate(957.6156,1077.5281)"
           id="g44"><path
             id="path46"
             style="fill:#ffffff;fill-opacity:1;fill-rule:nonzero;stroke:none"
             d="M 0,0 H -49.087 V -198.013 H -87.821 V 0 h -49.087 V 35.731 H 0 Z" /></g><g
           transform="translate(1073.1394,1016.0865)"
           id="g48"><path
             id="path50"
             style="fill:#ffffff;fill-opacity:1;fill-rule:nonzero;stroke:none"
             d="m 0,0 c 10.353,1.004 34.061,6.013 34.061,29.053 0,29.05 -39.069,29.05 -39.069,29.05 h -31.388 z m 39.402,-136.572 -60.773,97.505 h -22.371 v -97.505 h -39.07 V -0.333 h 37.067 l -37.067,58.436 v 39.07 h 77.804 c 0,0 78.136,0 78.136,-68.12 0,-41.408 -28.717,-57.77 -51.421,-64.112 L 85.15,-136.572 Z" /></g><g
           transform="translate(1225.7277,1029.7782)"
           id="g52"><path
             id="path54"
             style="fill:#ffffff;fill-opacity:1;fill-rule:nonzero;stroke:none"
             d="m 0,0 c 0,-26.712 21.371,-48.082 48.086,-48.082 26.711,0 48.082,21.37 48.082,48.082 0,26.715 -21.371,48.086 -48.082,48.086 C 21.371,48.086 0,26.715 0,0 M 124.217,-150.263 H -30.051 v 38.734 H 124.217 Z M -38.734,0 c 0,47.75 39.07,86.82 86.82,86.82 47.75,0 86.816,-39.07 86.816,-86.82 0,-47.75 -39.066,-86.82 -86.816,-86.82 -47.75,0 -86.82,39.07 -86.82,86.82" /></g><path
           id="path56"
           style="fill:#ffffff;fill-opacity:1;fill-rule:nonzero;stroke:none"
           d="M 1360.63,584.189 H 340.904 v 11.104 H 1360.63 Z" /><path
           id="path58"
           style="fill:#ffffff;fill-opacity:1;fill-rule:nonzero;stroke:none"
           d="M 1360.63,740.19 H 340.904 v 11.104 H 1360.63 Z" /><g
           transform="translate(350.4381,687.7753)"
           id="g60"><path
             id="path62"
             style="fill:#ffffff;fill-opacity:1;fill-rule:nonzero;stroke:none"
             d="M 0,0 V -15.378 H 25.57 V -25.57 H 0 v -15.378 h 30.753 v -10.281 h -41.034 v 61.51 H 30.753 V 0 Z" /></g><g
           transform="translate(401.9298,652.5398)"
           id="g64"><path
             id="path66"
             style="fill:#ffffff;fill-opacity:1;fill-rule:nonzero;stroke:none"
             d="M 0,0 H 14.94 L 7.472,21.354 Z M 18.279,-8.876 H -3.338 l -2.635,-7.117 H -17.046 L 7.472,47.275 32.075,-15.993 H 21.002 Z" /></g><g
           transform="translate(467.2206,688.6535)"
           id="g68"><path
             id="path70"
             style="fill:#ffffff;fill-opacity:1;fill-rule:nonzero;stroke:none"
             d="M 0,0 H -12.918 V -52.107 H -23.11 V 0 H -36.028 V 9.402 H 0 Z" /></g><g
           transform="translate(486.0284,687.7753)"
           id="g72"><path
             id="path74"
             style="fill:#ffffff;fill-opacity:1;fill-rule:nonzero;stroke:none"
             d="M 0,0 V -15.378 H 25.57 V -25.57 H 0 v -15.378 h 30.753 v -10.281 h -41.034 v 61.51 H 30.753 V 0 Z" /></g><g
           transform="translate(537.6088,672.3973)"
           id="g76"><path
             id="path78"
             style="fill:#ffffff;fill-opacity:1;fill-rule:nonzero;stroke:none"
             d="m 0,0 h 10.195 c 0,0 10.28,0 10.28,7.735 0,7.643 -10.28,7.643 -10.28,7.643 H 0 Z M 8.347,-10.192 H 0 v -25.659 h -10.281 v 61.51 h 20.476 c 0,0 20.561,0 20.561,-17.924 0,-9.929 -6.327,-14.323 -11.862,-16.345 L 31.457,-35.851 H 20.124 Z" /></g><g
           transform="translate(629.6108,698.056)"
           id="g80"><path
             id="path82"
             style="fill:#ffffff;fill-opacity:1;fill-rule:nonzero;stroke:none"
             d="m 0,0 -23.11,-32.424 v -29.085 h -10.281 v 29.085 L -56.5,0 h 12.566 L -28.207,-21.966 -12.566,0 Z" /></g><g
           transform="translate(675.4817,683.1185)"
           id="g84"><path
             id="path86"
             style="fill:#ffffff;fill-opacity:1;fill-rule:nonzero;stroke:none"
             d="m 0,0 c 0,-3.075 2.549,-5.712 5.624,-5.712 3.075,0 5.623,2.637 5.623,5.712 0,3.075 -2.548,5.624 -5.623,5.624 C 2.549,5.624 0,3.075 0,0 m 0.438,-32.249 c 3.693,-5.009 13.092,-6.062 17.575,0.266 L 3.779,-18.19 c -4.835,-3.249 -7.12,-9.05 -3.341,-14.059 m 32.16,-14.323 -7.291,7.295 c -8.613,-10.896 -26.274,-9.577 -33.568,0.615 -6.062,8.61 -4.305,19.683 3.956,26.888 -3.341,2.812 -5.449,7.028 -5.449,11.774 0,8.436 6.942,15.378 15.378,15.378 8.524,0 15.378,-6.942 15.378,-15.378 0,-5.712 -3.078,-10.633 -7.646,-13.356 l 9.313,-9.665 v 11.862 h 16.345 v -9.228 h -7.732 v -5.272 c 0,-1.756 -0.352,-2.723 -0.792,-4.305 l 9.402,-9.313 z" /></g><g
           transform="translate(752.5491,653.5953)"
           id="g88"><path
             id="path90"
             style="fill:#ffffff;fill-opacity:1;fill-rule:nonzero;stroke:none"
             d="m 0,0 h 10.281 c 0.174,-5.097 4.393,-7.646 8.962,-7.646 4.745,0 8.964,3.075 8.964,7.909 0,5.183 -4.834,8.347 -8.964,8.524 -0.527,0 -4.746,0 -9.226,2.02 C 3.601,13.796 0,19.243 0,26.537 c 0,11.685 9.314,18.805 19.243,18.805 10.632,0 18.804,-7.206 18.979,-17.664 H 28.03 c -0.174,5.098 -4.131,7.38 -8.787,7.38 -4.832,0 -8.962,-2.812 -8.962,-8.521 0,-5.098 4.393,-7.821 8.962,-7.821 0.44,0 4.745,0 9.139,-2.022 6.502,-2.986 10.017,-9.139 10.017,-16.431 0,-11.774 -9.228,-18.19 -19.156,-18.19 C 8.61,-17.664 0.174,-11.511 0,0" /></g><g
           transform="translate(830.4031,688.8309)"
           id="g92"><path
             id="path94"
             style="fill:#ffffff;fill-opacity:1;fill-rule:nonzero;stroke:none"
             d="M 0,0 C -26.537,0 -26.623,-43.145 0,-43.145 26.625,-43.145 26.625,0 0,0 m 0,-53.074 c -40.596,0 -40.507,63.091 0,63.091 40.333,0 40.422,-63.091 0,-63.091" /></g><g
           transform="translate(915.726,651.9247)"
           id="g96"><path
             id="path98"
             style="fill:#ffffff;fill-opacity:1;fill-rule:nonzero;stroke:none"
             d="m 0,0 7.206,-7.294 c -5.535,-5.535 -13.179,-8.962 -21.703,-8.962 -16.96,0 -30.842,12.303 -30.842,31.634 0,18.539 12.827,31.634 30.842,31.634 8.524,0 16.168,-3.427 21.703,-9.05 L 0,30.756 c -3.69,3.69 -8.873,5.973 -14.497,5.973 -12.655,0 -20.387,-8.962 -20.387,-21.351 0,-13.181 9.051,-21.354 20.387,-21.354 C -8.873,-5.976 -3.69,-3.69 0,0" /></g><path
           id="path100"
           style="fill:#ffffff;fill-opacity:1;fill-rule:nonzero;stroke:none"
           d="m 933.744,698.056 h 10.281 v -61.509 h -10.281 z" /><g
           transform="translate(968.1874,652.5398)"
           id="g102"><path
             id="path104"
             style="fill:#ffffff;fill-opacity:1;fill-rule:nonzero;stroke:none"
             d="M 0,0 H 14.94 L 7.472,21.354 Z M 18.279,-8.876 H -3.338 l -2.635,-7.117 H -17.046 L 7.472,47.275 32.075,-15.993 H 21.002 Z" /></g><g
           transform="translate(1040.2432,646.8274)"
           id="g106"><path
             id="path108"
             style="fill:#ffffff;fill-opacity:1;fill-rule:nonzero;stroke:none"
             d="m 0,0 v -10.281 h -33.039 v 61.51 h 10.281 l 0,-51.229 z" /></g><g
           transform="translate(1127.8544,698.056)"
           id="g110"><path
             id="path112"
             style="fill:#ffffff;fill-opacity:1;fill-rule:nonzero;stroke:none"
             d="m 0,0 v -61.509 h -10.283 v 25.658 h -25.57 V -61.509 H -46.134 V 0 h 10.281 v -25.481 h 25.57 V 0 Z" /></g><g
           transform="translate(1169.7664,688.8309)"
           id="g114"><path
             id="path116"
             style="fill:#ffffff;fill-opacity:1;fill-rule:nonzero;stroke:none"
             d="M 0,0 C -26.537,0 -26.623,-43.145 0,-43.145 26.625,-43.145 26.625,0 0,0 m 0,-53.074 c -40.596,0 -40.507,63.091 0,63.091 40.333,0 40.422,-63.091 0,-63.091" /></g><g
           transform="translate(1211.8613,656.2298)"
           id="g118"><path
             id="path120"
             style="fill:#ffffff;fill-opacity:1;fill-rule:nonzero;stroke:none"
             d="M 0,0 V 41.826 H 10.281 V 0 c 0.526,-7.117 6.238,-10.281 12.74,-10.281 6.416,0 12.83,3.427 12.83,10.281 v 41.826 h 10.28 V 0 c 0,-13.092 -10.017,-20.561 -23.11,-20.561 C 10.369,-20.561 0,-12.652 0,0" /></g><g
           transform="translate(1269.6833,653.5953)"
           id="g122"><path
             id="path124"
             style="fill:#ffffff;fill-opacity:1;fill-rule:nonzero;stroke:none"
             d="m 0,0 h 10.281 c 0.174,-5.097 4.393,-7.646 8.962,-7.646 4.745,0 8.964,2.989 8.964,7.82 0,5.187 -4.834,8.436 -8.964,8.613 -0.527,0 -4.746,0 -9.226,2.02 C 3.601,13.796 0,19.243 0,26.537 c 0,11.685 9.314,18.805 19.243,18.805 10.632,0 18.804,-7.206 18.979,-17.664 H 28.03 c -0.175,5.098 -4.131,7.38 -8.787,7.38 -4.832,0 -8.962,-2.812 -8.962,-8.521 0,-5.098 4.393,-7.821 8.962,-7.821 0.44,0 4.745,0 9.139,-2.022 6.502,-2.986 10.017,-9.225 10.017,-16.52 0,-11.773 -9.228,-18.101 -19.156,-18.101 C 8.61,-17.664 0.175,-11.511 0,0" /></g><g
           transform="translate(1329.8767,687.7753)"
           id="g126"><path
             id="path128"
             style="fill:#ffffff;fill-opacity:1;fill-rule:nonzero;stroke:none"
             d="M 0,0 V -15.378 H 25.57 V -25.57 H 0 v -15.378 h 30.753 v -10.281 h -41.034 v 61.51 H 30.753 V 0 Z" /></g></g></g></g></svg>