<svg width="50" height="47" viewBox="0 0 50 47" fill="none" xmlns="http://www.w3.org/2000/svg">
<g clip-path="url(#clip0_73_642)">
<path d="M40.4198 17.5914C40.1574 17.7257 39.7637 17.7257 39.7637 17.86H39.8949C40.0261 17.7257 40.1574 17.7257 40.4198 17.5914Z" fill="white"/>
<path d="M5.38046 8.72853L5.5117 8.45996C5.24923 8.86282 5.38046 8.72853 5.38046 8.72853Z" fill="white"/>
<path d="M8.26795 17.3228C8.13672 17.3228 8.13672 17.1885 8.13672 17.1885C8.26795 17.3228 8.26795 17.457 8.26795 17.3228Z" fill="white"/>
<path d="M43.7006 9.66848C43.7006 9.5342 43.5693 9.39991 43.5693 9.26562C43.5693 9.39991 43.5693 9.5342 43.7006 9.66848Z" fill="white"/>
<path d="M18.7666 0.671393C18.8978 0.537107 19.0291 0.537107 18.7666 0.671393V0.671393Z" fill="white"/>
<path d="M34.1206 19.8743C34.5143 19.74 34.6455 19.74 34.908 19.74L34.6455 19.6057L34.1206 19.8743Z" fill="white"/>
<path d="M43.8319 15.5771C43.8319 15.5771 43.9631 15.04 43.7006 15.3085C43.4382 15.7114 43.1757 16.1142 42.9132 16.3828C42.6508 16.6514 42.5195 16.92 42.6508 16.92C43.0445 16.5171 43.4382 16.1142 43.7006 15.7114C43.8319 15.7114 43.0445 16.6514 43.1757 16.6514C42.782 16.92 42.3883 17.3228 41.9946 17.5914C42.1258 17.4571 42.6508 17.1885 42.3883 17.1885C41.8634 17.5914 42.1258 17.3228 41.7321 17.5914C42.3883 17.1885 43.1757 16.1142 43.3069 15.7114C43.1757 15.8457 43.0445 16.1142 42.9132 16.2485L42.782 16.3828C42.5195 16.6514 41.6009 17.7257 41.3384 17.9942C40.8135 18.2628 40.9447 17.9942 41.076 17.86C40.1573 18.2628 40.1573 18.5314 39.1075 18.8L39.5012 18.6657C39.2387 18.8 38.3201 19.0685 38.4513 19.0685C38.1888 19.0685 38.0576 19.0685 38.1888 18.9342L37.2702 19.3371C37.4014 19.3371 37.2702 19.2028 37.4014 19.2028C37.0077 19.3371 36.7453 19.4714 37.0077 19.4714C36.2203 19.4714 36.4828 19.6057 35.8266 19.6057C35.5642 19.6057 35.8266 19.74 36.0891 19.74C35.5642 19.8742 35.3017 19.8742 35.0392 19.8742C35.8266 19.74 35.1705 19.6057 35.3017 19.4714C34.7768 19.74 34.1206 19.8742 33.5957 20.1428L33.7269 20.0085C33.5957 20.1428 31.6272 20.4114 30.5773 20.4114H30.7085C30.971 20.4114 30.0524 20.4114 29.6587 20.4114C29.6587 20.4114 29.7899 20.4114 29.9211 20.4114C29.2649 20.4114 29.0025 20.68 28.3463 20.5457C29.0025 20.5457 29.1337 20.4114 29.0025 20.4114C28.4776 20.5457 27.2964 20.4114 27.5589 20.5457C27.2964 20.5457 26.9027 20.5457 27.034 20.5457L25.8529 20.68C25.9841 20.68 25.9841 20.68 25.7216 20.68C26.3778 20.68 27.034 20.5457 27.4277 20.68C27.4277 20.5457 27.1652 20.5457 27.5589 20.4114C26.2466 20.5457 25.4592 20.68 24.6718 20.68L23.4907 20.5457L23.2282 20.4114C23.097 20.4114 22.9657 20.4114 22.9657 20.4114C22.9657 20.4114 22.9657 20.4114 23.097 20.4114C22.9657 20.4114 22.8345 20.4114 22.8345 20.4114C22.8345 20.4114 22.9657 20.2771 23.2282 20.2771C23.3594 20.2771 23.4907 20.2771 23.4907 20.2771C23.7531 20.2771 23.8844 20.1428 23.6219 20.1428H23.4907C23.6219 20.1428 23.7531 20.1428 23.6219 20.0085H22.7033C22.8345 20.0085 22.9657 20.0085 23.097 20.1428C22.572 20.1428 21.9159 20.2771 22.4408 20.2771L21.6534 20.1428C20.866 20.2771 20.9972 20.2771 19.9474 20.2771C19.9474 20.2771 20.2098 20.2771 19.9474 20.1428C19.2912 20.2771 18.2413 19.8742 18.1101 20.0085C17.5852 20.0085 17.8476 20.0085 17.4539 20.0085L17.0602 20.1428C16.929 20.1428 17.4539 20.1428 16.929 20.0085C16.1416 20.0085 15.6167 20.0085 14.8293 19.8742C13.7794 19.74 15.223 20.0085 14.4356 19.8742C14.3043 19.74 14.1731 19.74 13.6482 19.6057C13.3857 19.6057 13.3857 19.6057 12.8608 19.6057V19.4714C12.467 19.3371 12.0733 19.3371 12.0733 19.2028C11.6796 19.2028 11.4172 19.0685 11.2859 19.0685C10.6298 18.9342 11.6796 19.3371 11.8109 19.4714C11.1547 19.2028 10.761 19.2028 10.3673 18.9342L10.8922 19.0685C9.71114 18.6657 9.71114 18.8 9.18621 18.5314C9.97361 18.8 10.4985 18.9342 10.2361 18.8L9.57991 18.6657C9.57991 18.6657 9.97361 18.8 9.71114 18.6657C9.57991 18.6657 9.18621 18.5314 9.05498 18.5314L8.13634 18.1285C8.26757 18.1285 8.26757 18.1285 8.13634 18.1285C7.87387 17.9942 7.74264 17.86 7.48017 17.7257C7.74264 17.86 7.48017 17.7257 7.21771 17.4571C6.4303 16.7857 6.4303 17.1885 6.0366 16.5171C6.16784 16.6514 6.16784 16.6514 6.16784 16.6514L5.90537 16.3828C5.77414 16.3828 5.38044 15.98 5.11797 15.4428C4.8555 14.9057 4.59303 14.3685 4.59303 14.3685C4.4618 13.8314 4.59303 14.3685 4.98673 15.04C4.8555 14.9057 4.8555 14.6371 4.8555 14.5028C4.98673 14.7714 4.98673 14.9057 5.11797 15.1742C4.72427 14.1 4.4618 13.4285 4.4618 13.0257C4.4618 12.7571 4.59303 13.2942 4.4618 12.3542C4.59303 11.1457 4.33057 12.6228 4.33057 11.8171L4.4618 11.28C4.59303 10.4742 4.8555 9.80281 5.2492 9.13138C5.2492 8.9971 5.38044 8.86281 5.38044 8.86281C5.51167 8.45995 5.77414 8.0571 5.90537 7.65424C6.16784 7.38567 6.4303 6.98281 6.56154 6.84853C6.56154 6.98281 6.82401 6.57995 6.95524 6.57995L7.74264 5.77424C7.34894 6.04281 7.34894 6.04281 7.34894 6.1771C7.61141 5.90853 7.61141 5.77424 7.87387 5.63995C7.74264 5.77424 7.74264 5.90853 7.87387 5.77424C8.13634 5.50567 8.39881 5.2371 8.66127 4.96853C8.66127 4.96853 8.53004 5.10281 8.39881 5.10281C8.66128 4.96853 9.05498 4.43138 9.44868 4.2971L9.31744 4.43138C8.92374 4.56567 8.79251 4.83424 8.66127 4.96853C9.31744 4.43138 8.92374 4.83424 9.18621 4.56567C9.57991 4.2971 9.84238 4.02853 9.57991 4.16281C10.1048 3.89424 10.1048 3.89424 10.761 3.3571V3.49138L11.2859 3.22281L10.8922 3.49138C11.9421 2.95424 11.0235 3.22281 12.2046 2.68567C12.5983 2.55138 12.7295 2.4171 13.1232 2.28281C13.5169 2.01424 12.3358 2.55138 13.3857 2.01424C13.5169 2.01424 13.9106 1.87995 14.3043 1.74567C14.5668 1.61138 14.1731 1.74567 13.9106 1.87995C15.3542 1.34281 14.8293 1.74567 16.2728 1.20853C15.6167 1.34281 16.5353 0.939955 15.3542 1.34281C15.8791 1.20853 16.4041 1.07424 17.0602 0.939955C16.929 0.939955 16.7978 1.07424 16.6665 1.07424C16.7978 1.07424 17.0602 0.939955 17.1915 0.939955V1.07424C17.8476 0.805669 18.5038 0.805669 18.8975 0.537098C18.635 0.671384 19.4224 0.402812 19.6849 0.402812C19.16 0.537098 17.9789 0.671383 17.9789 0.805669C18.2413 0.805669 18.5038 0.671383 18.7663 0.671383C18.635 0.671383 18.3726 0.805669 18.2413 0.805669C19.16 0.671383 19.6849 0.537098 20.2098 0.402812L19.2912 0.537098C19.2912 0.402812 19.6849 0.402812 19.9474 0.268526C20.4723 0.268526 20.866 0.134241 21.2597 0.134241C21.1285 0.134241 21.1285 0.134241 20.9972 0.134241C22.0471 -4.50611e-05 22.4408 0.134241 22.8345 0.134241C23.2282 0.134241 24.0156 -4.50462e-05 23.7531 -4.50462e-05C24.1468 -4.50462e-05 22.3096 0.134241 22.9657 -0.134331C23.6219 -4.50611e-05 24.2781 -0.268616 25.5904 -0.134331C25.0655 -0.134331 25.9841 -4.50462e-05 25.4592 -4.50462e-05C26.1153 -4.50462e-05 26.1153 -4.50462e-05 26.3778 -4.50462e-05H26.509C27.2964 -4.50462e-05 26.7715 -0.134331 27.9526 -4.50462e-05C27.5589 -4.50462e-05 28.4775 0.134241 28.0838 0.134241C28.3463 0.134241 28.6088 0.134241 29.0025 0.268526C30.3148 0.402812 30.0524 0.402812 31.2335 0.671383H31.1022C32.677 0.939955 34.5143 1.61138 35.9579 2.14853C35.8266 2.01424 35.6954 2.01424 35.4329 1.87995C35.6954 2.01424 36.4828 2.28281 36.8765 2.55138C36.7453 2.55138 36.614 2.4171 36.4828 2.4171C36.4828 2.4171 36.614 2.55138 37.0077 2.68567H37.139L37.2702 2.81995C37.7951 3.08853 37.139 2.68567 37.6639 2.95424C37.7951 3.08853 38.3201 3.3571 38.845 3.75995C39.3699 4.16281 39.8949 4.56567 40.1573 4.69995C40.551 4.83424 39.2387 4.02853 39.6324 4.16281C39.7636 4.2971 39.8949 4.2971 40.1573 4.56567L40.0261 4.43138C40.6823 4.96853 41.2072 5.37138 41.6009 5.90853C41.8634 6.1771 41.9946 6.31138 42.2571 6.57995C42.5195 6.84853 42.6508 7.1171 42.9132 7.38567C43.3069 7.78853 43.4382 8.19138 43.5694 8.32567C43.5694 8.45995 43.4382 8.0571 43.4382 8.32567C43.8319 8.72853 43.9631 9.13138 44.0943 9.66853C44.2256 10.0714 44.2256 10.4742 44.488 10.7428C44.3568 10.7428 44.488 11.0114 44.488 11.28C44.488 11.5485 44.3568 11.6828 44.3568 11.4142V11.8171C44.3568 11.8171 44.3568 11.4142 44.2256 11.1457C44.0943 10.8771 44.0943 10.4742 43.9631 10.4742C43.9631 10.0714 43.7006 9.66853 43.5694 9.26567C43.5694 9.26567 43.4382 9.13138 43.4382 9.39995C43.3069 9.13138 43.1757 8.86281 43.3069 9.26567C42.782 7.92281 41.7321 6.71424 40.551 5.77424C39.3699 4.83424 38.0576 4.02853 36.8765 3.3571C36.7453 3.22281 36.7453 3.3571 36.8765 3.3571C36.4828 3.08853 36.3516 3.22281 36.0891 3.08853C35.9579 2.81995 35.6954 2.68567 35.4329 2.55138C35.1705 2.4171 35.3017 2.55138 35.3017 2.55138C33.8581 2.01424 32.5458 1.4771 31.3647 1.34281C30.971 1.20853 31.4959 1.20853 30.971 1.07424C31.2335 1.20853 30.971 1.20853 30.5773 1.07424C30.1836 1.07424 29.7899 0.939955 29.9211 1.07424C29.3962 0.805669 28.0838 0.805669 28.3463 0.671383C27.6901 0.537098 27.8214 0.671383 27.9526 0.671383C27.2964 0.671383 26.6403 0.537098 26.1153 0.537098C25.9841 0.537098 25.0655 0.537098 24.2781 0.537098C23.4907 0.537098 22.572 0.537098 22.3096 0.537098C22.7033 0.537098 22.3096 0.537098 21.9159 0.671383H22.3096L21.3909 0.805669C21.2597 0.805669 21.1285 0.805669 21.1285 0.805669C20.9972 0.805669 21.1285 0.805669 20.7348 0.805669C20.0786 0.939955 20.0786 0.939955 19.6849 1.07424H19.8161L19.4224 1.20853C19.16 1.20853 20.4723 0.939955 19.5537 1.07424C19.5537 1.07424 18.8975 1.34281 18.635 1.34281C19.16 1.20853 19.0287 1.20853 18.8975 1.20853C18.635 1.20853 18.3726 1.34281 18.1101 1.34281H18.3726C16.2728 1.74567 14.1731 2.4171 12.2046 3.3571C12.2046 3.22281 10.761 4.16281 10.8922 3.89424H11.0235C11.5484 3.62567 10.761 3.89424 10.4985 4.16281C10.8922 3.89424 9.84238 4.69995 10.8922 4.16281C10.4985 4.16281 10.2361 4.43138 9.97361 4.56567C9.71114 4.96853 8.00511 5.90853 7.21771 6.98281C7.21771 6.84853 7.21771 6.84853 7.21771 6.84853C6.69277 7.92281 5.77414 8.9971 5.77414 9.39995H5.6429C5.51167 9.9371 5.38044 10.2057 5.2492 10.4742C5.2492 10.7428 5.11797 11.1457 5.11797 11.6828C5.11797 11.9514 5.11797 12.22 5.2492 13.0257C5.2492 13.4285 5.38043 13.8314 5.51167 14.2342C5.38043 14.2342 5.6429 14.7714 6.0366 15.3085C6.4303 15.7114 6.82401 16.2485 6.95524 16.3828C7.08647 16.3828 7.34894 16.6514 7.61141 16.7857C7.87387 16.92 8.13634 17.0542 8.39881 17.1885C8.39881 17.1885 8.39881 17.1885 8.53004 17.3228C9.05498 17.4571 9.84238 17.9942 10.3673 18.1285C10.761 18.2628 10.6298 18.1285 10.4985 17.9942C11.1547 18.3971 12.467 18.3971 12.5983 18.5314C12.7295 18.8 12.3358 18.8 12.467 18.9342C13.2545 19.0685 12.3358 18.6657 13.3857 19.0685C13.2545 19.0685 12.992 19.0685 13.1232 19.0685C13.5169 19.2028 14.1731 19.4714 14.5668 19.4714L14.4356 19.3371C15.223 19.4714 16.1416 19.74 16.2728 19.6057V19.4714C17.4539 19.74 16.7978 19.4714 18.1101 19.74C18.635 19.74 19.0287 19.8742 19.2912 19.74H19.16C19.8161 19.74 19.9474 19.74 20.6035 19.8742C20.7348 19.8742 20.9972 19.8742 21.1285 19.8742C21.1285 19.74 22.7033 19.8742 23.097 19.8742C22.572 19.8742 22.8345 19.8742 22.9657 20.0085C23.3594 19.8742 23.4907 19.8742 24.0156 20.0085C24.1468 19.8742 24.1468 19.74 25.0655 19.74C24.9342 19.74 24.6718 19.74 24.803 19.74C24.9342 19.74 25.0655 19.74 25.1967 19.74C25.3279 19.74 24.9342 19.74 25.0655 19.8742C25.7216 19.74 26.1153 19.8742 27.034 19.8742C26.7715 19.8742 27.034 19.8742 27.034 20.0085C27.1652 19.8742 28.2151 20.1428 27.9526 19.8742C29.6587 20.0085 32.2833 19.74 32.9395 19.74C33.0707 19.74 33.5957 19.6057 33.8581 19.6057C34.6455 19.4714 34.5143 19.4714 35.4329 19.2028C35.0392 19.3371 35.1705 19.3371 35.5642 19.3371C35.8266 19.2028 35.9579 19.2028 36.2203 19.0685H36.3516C36.614 18.9342 36.8765 18.9342 37.2702 18.9342C37.5327 18.8 38.5825 18.5314 38.7138 18.3971C38.9762 18.3971 39.5012 18.1285 39.7636 18.1285C39.8949 18.1285 40.0261 17.9942 40.1573 17.9942C40.0261 17.9942 39.8949 17.9942 40.1573 17.86H40.2886C40.551 17.7257 40.8135 17.5914 40.9447 17.5914C40.9447 17.5914 40.8135 17.5914 40.6823 17.7257C40.8135 17.7257 40.9447 17.5914 40.9447 17.5914C40.9447 17.5914 40.9447 17.5914 41.076 17.5914C41.2072 17.5914 41.3384 17.4571 41.6009 17.3228C42.5195 16.92 43.1757 15.98 43.8319 15.1742C43.7006 15.3085 43.5694 15.4428 43.5694 15.5771C43.7006 15.4428 44.3568 14.3685 44.3568 14.1L44.488 13.8314H44.6193C44.7505 13.5628 44.7505 13.16 44.7505 12.7571L44.6193 12.3542V13.2942V12.7571C44.6193 13.5628 44.3568 14.3685 44.0943 15.04C43.9631 15.3085 43.8319 15.5771 43.8319 15.5771ZM20.9972 0.671383H21.1285C21.2597 0.671383 21.3909 0.671383 20.9972 0.671383ZM11.4172 19.2028C11.1547 19.0685 11.0235 19.0685 10.761 19.0685C11.0235 19.0685 11.2859 19.2028 11.4172 19.2028ZM24.2781 20.1428C24.1468 20.1428 23.8844 20.1428 23.7531 20.1428C24.0156 20.1428 24.1468 20.2771 24.2781 20.1428Z" fill="white"/>
<path d="M5.24951 8.8628C5.38075 8.72851 5.38075 8.72851 5.24951 8.8628V8.8628Z" fill="white"/>
<path d="M40.1574 18.5314C40.8136 18.2628 40.2886 18.3971 40.9448 18.1285C41.076 17.9943 40.4199 18.2628 40.5511 18.2628C40.1574 18.3971 39.8949 18.5314 40.1574 18.5314Z" fill="white"/>
<path d="M40.5513 18.2628L40.6825 18.1285C40.6825 18.1285 40.5513 18.1285 40.5513 18.2628Z" fill="white"/>
<path d="M12.7296 19.6057C12.7296 19.6057 12.5984 19.4714 12.3359 19.4714L12.7296 19.6057Z" fill="white"/>
<path d="M6.82422 17.3229C6.95545 17.3229 6.95545 17.3229 6.82422 17.3229C6.82422 17.1886 6.95545 17.3229 6.82422 17.3229Z" fill="white"/>
<path d="M4.33057 12.6228C4.33057 12.8914 4.33057 13.16 4.4618 13.2943C4.33057 12.7571 4.33057 12.4886 4.33057 12.6228Z" fill="white"/>
<path d="M43.9634 37.3314C43.9634 37.4657 43.7009 37.7343 43.8322 37.7343H43.9634C43.9634 37.4657 43.9634 37.4657 43.9634 37.3314Z" fill="white"/>
<path d="M38.0576 44.5829C38.1889 44.5829 38.1889 44.4486 38.1889 44.4486C38.1889 44.5829 38.0576 44.5829 38.0576 44.5829Z" fill="white"/>
<path d="M37.9265 44.8514H37.6641C37.7953 44.9857 37.9265 44.9857 37.9265 44.8514Z" fill="white"/>
<path d="M43.1758 41.0915C43.1758 40.8229 43.307 40.8229 43.4382 40.6886H43.1758C43.1758 40.8229 43.1758 40.9572 43.1758 41.0915Z" fill="white"/>
<path d="M44.7509 35.0486C44.7509 35.0486 44.6197 34.78 44.6197 34.9143C44.6197 35.4514 44.7509 35.9886 44.8821 35.9886L44.7509 35.0486C44.7509 35.1828 44.7509 35.8543 44.8821 35.72C44.8821 35.9886 44.8821 36.2571 44.7509 36.5257C44.7509 36.3914 44.7509 36.1228 44.7509 36.2571C44.7509 36.66 44.7509 36.3914 44.6197 36.66C44.6197 36.2571 44.3572 35.4514 44.226 35.3171V35.72V35.8543C44.226 36.3914 44.4884 36.9286 44.4884 37.0628C44.4884 37.3314 44.226 37.1971 44.226 37.1971C44.0947 37.8686 44.3572 37.8686 44.226 38.4057L44.3572 38.1371C44.3572 38.2714 44.226 38.8086 44.226 38.8086C44.0947 38.9428 43.9635 38.9428 44.0947 38.8086V39.3457C44.0947 39.2114 43.9635 39.2114 43.9635 39.2114C43.8323 39.48 43.9635 39.6143 44.0947 39.48C43.8323 39.8828 43.9635 39.7486 43.701 40.0171C43.701 40.1514 43.8323 40.0171 43.8323 40.0171C43.701 40.2857 43.5698 40.42 43.5698 40.5543C43.701 40.1514 43.4386 40.2857 43.3073 40.1514C43.3073 40.5543 43.1761 40.8228 43.0449 41.2257V41.0914C43.0449 41.0914 42.9136 41.4943 42.6512 41.7628C42.3887 42.0314 42.1262 42.3 41.8638 42.5686C41.8638 42.4343 41.6013 42.8371 41.4701 42.9714C41.4701 42.9714 41.4701 42.9714 41.6013 42.8371C41.2076 42.9714 41.3388 43.24 40.9451 43.5086C41.2076 43.24 41.2076 43.24 41.2076 43.24C41.0764 43.5086 40.4202 43.7771 40.6826 43.7771C40.5514 43.9114 40.4202 43.9114 40.2889 43.9114L39.764 44.3143C39.764 44.3143 39.764 44.18 39.6328 44.3143C40.0265 44.18 40.2889 43.7771 40.4202 43.7771C40.4202 43.6428 40.2889 43.7771 40.4202 43.6428C39.764 44.0457 39.5015 44.4486 39.1078 44.7171L38.4517 44.9857H38.3204C38.1892 44.9857 38.1892 45.12 38.1892 45.12C38.1892 45.12 38.058 45.12 38.058 45.2543C38.058 45.2543 38.058 45.12 38.1892 44.9857H38.3204C38.4517 44.8514 38.4517 44.8514 38.3204 44.8514H38.1892C38.1892 44.7171 38.3204 44.7171 38.1892 44.7171C38.058 44.8514 37.9267 44.8514 37.7955 44.9857C37.7955 44.9857 37.9267 44.9857 38.058 44.9857C37.7955 45.12 37.4018 45.3886 37.7955 45.2543L37.4018 45.3886C37.0081 45.6571 37.0081 45.6571 36.6144 45.7914C36.6144 45.7914 36.7456 45.6571 36.6144 45.6571C36.0895 45.6571 35.5645 45.5228 35.4333 45.6571C35.1708 45.7914 35.3021 45.7914 35.1708 45.7914L34.9084 45.9257C34.7771 45.9257 35.1708 45.7914 34.7771 45.9257C34.3834 46.06 33.9897 46.1943 33.596 46.1943C33.0711 46.3286 33.8585 46.3286 33.3336 46.3286C33.2023 46.3286 33.2023 46.1943 32.9399 46.3286C32.8086 46.3286 32.8086 46.4628 32.5462 46.4628V46.3286C32.2837 46.3286 32.1525 46.4628 32.1525 46.3286C32.0212 46.3286 31.7588 46.4628 31.7588 46.4628C31.3651 46.5971 32.0212 46.5971 32.1525 46.5971C31.7588 46.5971 31.4963 46.5971 31.3651 46.5971H31.6275C30.9714 46.5971 30.9714 46.8657 30.5777 46.5971C30.8401 46.5971 31.1026 46.4628 30.9714 46.4628L30.5777 46.5971C30.4464 46.5971 30.3152 46.7314 30.184 46.7314H29.659C29.7903 46.7314 29.7903 46.7314 29.659 46.7314L29.2653 46.8657C29.3966 46.8657 29.2653 46.8657 29.1341 46.8657C28.6092 46.8657 28.7404 47.1343 28.3467 47H28.4779H28.2155C28.2155 47.1343 27.0344 47 26.9031 47.2686C26.6407 47.1343 26.9031 47.2686 27.2968 47.1343H27.0344C27.1656 47.1343 27.2968 47.1343 27.4281 47.1343C27.0344 47 26.6407 47.1343 26.3782 47.2686C26.247 47.2686 26.5094 47.1343 25.9845 47.1343C25.3283 47.1343 26.1157 47.2686 25.722 47.2686L25.4596 47.1343C24.9346 47.1343 24.5409 47.1343 24.1472 47.1343C24.016 47.1343 24.016 47.1343 24.016 47.1343C23.6223 47.1343 23.0973 47.2686 22.7036 47.1343C22.8349 47.1343 22.5724 47 22.4412 47H21.785C22.0475 47 22.0475 47 22.0475 46.8657C21.9162 46.8657 21.785 46.8657 21.6538 46.8657C21.785 46.8657 21.785 46.8657 21.6538 46.8657H20.9976H21.1288C20.9976 46.8657 20.6039 46.8657 20.3414 46.8657H20.4727C20.6039 47 20.7351 46.8657 20.8664 46.8657C20.4727 46.8657 20.7351 46.8657 20.6039 46.7314C20.3414 46.7314 20.2102 46.7314 20.2102 46.8657C19.8165 46.8657 19.8165 46.7314 19.4228 46.8657H19.554C18.8979 46.7314 19.4228 47 18.7666 46.8657C18.5042 46.8657 18.3729 47 18.2417 46.8657C17.9792 46.8657 18.6354 47 18.1105 47C17.9792 47 17.7168 46.8657 17.5855 46.8657C17.4543 46.8657 17.5855 47 17.848 47C17.0606 46.8657 17.3231 46.7314 16.5357 46.5971C16.7981 46.7314 16.2732 46.7314 16.9294 46.7314C16.6669 46.7314 16.2732 46.4628 16.0107 46.5971H16.2732C16.142 46.5971 16.0107 46.5971 16.0107 46.5971C15.617 46.5971 15.2233 46.3286 14.9609 46.4628C15.0921 46.3286 14.6984 46.3286 14.5672 46.3286C14.9609 46.3286 15.4858 46.5971 15.617 46.4628C15.4858 46.3286 15.3546 46.4628 15.2233 46.3286C15.3546 46.3286 15.4858 46.3286 15.4858 46.3286C14.9609 46.1943 14.6984 46.1943 14.3047 46.1943L14.8296 46.3286C14.6984 46.4628 14.5672 46.3286 14.4359 46.3286C14.1735 46.1943 13.911 46.1943 13.7798 46.06H13.911C13.3861 45.9257 13.2548 45.6571 12.9924 45.5228C12.7299 45.3886 12.3362 45.3886 12.4674 45.3886C12.3362 45.3886 13.2548 45.6571 12.8611 45.6571C12.5987 45.3886 12.205 45.5228 11.5488 45.12C11.8113 44.5828 11.2863 44.3143 11.5488 44.4486C11.2863 44.3143 11.1551 44.3143 11.0239 44.3143L10.8926 44.18C10.3677 44.0457 10.7614 44.18 10.1052 43.9114C10.3677 44.0457 9.84275 43.6428 10.1052 43.7771C9.97399 43.6428 9.71152 43.6428 9.58029 43.5086C8.92412 43.1057 9.05535 43.1057 8.53042 42.8371C7.74301 42.4343 6.95561 41.6286 6.29944 40.9571L6.43068 41.2257C6.29944 41.0914 6.03698 40.8228 5.90574 40.5543L6.03698 40.6886C6.03698 40.6886 6.03698 40.5543 5.90574 40.2857H5.77451V40.1514C5.64328 39.8828 5.77451 40.2857 5.64328 40.0171C5.64328 39.7486 4.98711 38.6743 4.98711 38.4057C4.85587 38.2714 5.24958 38.9428 4.98711 38.8086L4.85588 38.4057V38.54C4.59341 37.6 4.59341 37.1971 4.33094 36.2571C4.33094 35.9886 4.33094 35.72 4.19971 35.5857C4.19971 35.4514 4.19971 35.72 4.33094 35.5857C4.06847 35.0486 4.46217 34.5114 4.33094 34.1086C4.46217 34.1086 4.72464 33.4371 4.72464 33.84V33.5714C4.72464 33.7057 4.59341 34.2428 4.72464 34.3771C4.72464 34.6457 4.59341 34.78 4.59341 35.0486C4.59341 35.0486 4.72464 35.1828 4.72464 35.0486C4.72464 35.1828 4.72464 35.3171 4.72464 35.1828C4.59341 36.9286 5.24958 38.54 6.03698 40.0171C6.56191 40.42 6.69315 40.2857 6.82438 40.42C6.82438 40.5543 6.95561 40.6886 6.95561 40.8228C7.08685 40.9571 7.08685 40.8228 7.08685 40.8228C7.61178 41.4943 8.13671 42.0314 8.79288 42.4343C8.92412 42.5686 8.66165 42.4343 8.92412 42.7028C8.66165 42.4343 9.58028 43.1057 9.44905 42.9714C9.58028 43.24 10.3677 43.5086 10.1052 43.6428C10.3677 43.7771 10.3677 43.7771 10.3677 43.6428C10.7614 43.7771 11.0239 44.0457 11.2863 44.0457C11.4176 44.18 12.9924 44.7171 13.2548 44.8514C12.9924 44.7171 13.2548 44.8514 13.5173 44.8514L13.3861 44.7171L13.911 44.8514C14.0422 44.8514 14.0422 44.8514 14.0422 44.8514C14.1735 44.8514 14.0422 44.8514 14.1735 44.9857C14.5672 45.12 14.5672 44.9857 14.6984 44.9857H14.9609C15.0921 44.9857 14.3047 44.8514 14.8296 45.12C14.8296 45.12 15.2233 45.12 15.3546 45.12C15.0921 44.9857 15.0921 45.12 15.2233 45.12L15.617 45.2543L15.4858 45.12C16.6669 45.3886 17.848 45.6571 19.1603 45.7914C19.1603 45.9257 20.079 45.9257 19.9477 46.06C19.6853 46.06 20.079 46.1943 20.3414 46.1943C20.079 46.06 20.8664 46.06 20.2102 46.06C20.3414 46.06 20.6039 46.06 20.7351 46.06C20.9976 45.7914 22.0475 46.1943 22.8349 46.1943H22.7036C23.3598 46.1943 24.2785 46.3286 24.4097 46.3286V46.4628C24.9346 46.3286 25.0659 46.3286 25.722 46.4628C25.8533 46.4628 26.1157 46.3286 26.5094 46.3286H27.2968C27.2968 46.5971 28.6092 46.1943 28.7404 46.3286C28.8716 46.1943 29.3966 46.1943 29.659 46.1943C29.9215 46.06 30.4464 46.1943 30.8401 46.1943C31.1026 46.1943 30.9714 46.06 30.8401 46.06C31.2338 46.06 31.89 45.7914 32.0212 45.7914C32.2837 45.7914 32.1525 45.7914 32.2837 45.9257C32.6774 45.7914 32.1525 45.7914 32.8086 45.7914C32.6774 45.7914 32.6774 45.7914 32.6774 45.7914C32.9399 45.7914 33.3336 45.9257 33.596 45.7914H33.4648C33.8585 45.6571 34.5147 45.7914 34.5147 45.6571C35.1708 45.6571 34.7771 45.5228 35.5645 45.5228C35.827 45.3886 36.0895 45.5228 36.2207 45.3886H36.0895C36.4832 45.2543 36.4832 45.2543 36.8769 45.12L37.1393 44.9857C37.1393 44.8514 37.9267 44.5828 38.1892 44.5828C37.9267 44.7171 38.058 44.7171 38.1892 44.7171C38.3204 44.5828 38.4517 44.5828 38.7141 44.4486C38.7141 44.3143 38.7141 44.18 39.1078 44.0457C39.1078 44.0457 38.9766 44.18 39.1078 44.18C39.3703 43.9114 39.6328 43.9114 40.0265 43.6428C39.8952 43.7771 40.0265 43.6428 40.1577 43.6428C40.1577 43.5086 40.8139 43.3743 40.5514 43.3743C40.9451 43.24 41.4701 42.7028 41.8638 42.4343C42.2575 42.0314 42.5199 41.7628 42.7824 41.6286C42.9136 41.6286 42.9136 41.36 43.0449 41.2257C43.1761 40.8228 43.3073 40.9571 43.4386 40.42C43.4386 40.6886 43.4386 40.5543 43.5698 40.42L43.701 40.0171H43.8323C43.8323 39.8828 43.9635 39.7486 43.9635 39.6143C43.9635 39.48 44.0947 38.9428 44.0947 38.8086C44.226 38.6743 44.226 38.4057 44.3572 38.2714C44.3572 38.2714 44.3572 38.1371 44.3572 38.0028C44.226 38.1371 44.226 38.1371 44.226 38.0028H44.3572C44.3572 37.8686 44.3572 37.7343 44.3572 37.6C44.3572 37.4657 44.3572 37.4657 44.3572 37.3314C44.4884 36.7943 44.3572 36.1228 44.4884 35.4514C44.4884 35.5857 44.4884 35.72 44.4884 35.72C44.4884 35.5857 44.4884 34.9143 44.4884 34.78V34.6457H44.6197C44.6197 34.5114 44.6197 34.2428 44.4884 34.1086V33.9743C44.4884 34.1086 44.6197 34.2428 44.6197 34.5114V34.2428C44.7509 34.6457 44.8821 35.0486 44.8821 35.5857C44.7509 34.9143 44.7509 35.0486 44.7509 35.0486ZM38.7141 44.4486C38.5829 44.4486 38.5829 44.5828 38.4517 44.5828C38.5829 44.5828 38.7141 44.4486 38.7141 44.4486Z" fill="white"/>
<path d="M44.6195 37.7343C44.7507 37.3314 44.6195 37.6 44.6195 37.1971C44.6195 37.0628 44.4883 37.4657 44.4883 37.3314C44.4883 37.7343 44.4883 37.8686 44.6195 37.7343Z" fill="white"/>
<path d="M26.1157 47C26.247 47 26.3782 47 26.5094 47C26.247 47 26.1157 46.8657 26.1157 47Z" fill="white"/>
<path d="M44.0946 19.74C43.9634 19.8743 43.9634 20.1428 43.9634 20.1428C44.0946 19.8743 44.0946 19.8743 44.0946 19.74Z" fill="white"/>
<path d="M38.0576 26.5886C38.1889 26.5886 38.1889 26.5886 38.1889 26.4543C38.1889 26.5886 38.0576 26.5886 38.0576 26.5886Z" fill="white"/>
<path d="M43.5693 23.5C43.5693 23.2315 43.7006 23.2315 43.8318 23.0972H43.5693V23.5Z" fill="white"/>
<path d="M44.4882 17.3228C44.4882 17.3228 44.2257 17.1885 44.2257 17.3228C44.3569 17.86 44.6194 18.3971 44.6194 18.3971C44.6194 18.1285 44.6194 17.7257 44.4882 17.3228C44.4882 17.3228 44.6194 17.9943 44.7506 17.9943C44.7506 18.2628 44.7506 18.5314 44.8819 18.8C44.8819 18.6657 44.8819 18.3971 44.7506 18.5314C44.7506 18.9343 44.7506 18.6657 44.7506 18.9343C44.6194 18.5314 44.2257 17.86 44.0945 17.5914L44.2257 17.9943V18.1285C44.3569 18.6657 44.7506 19.0685 44.7506 19.2028C44.7506 19.4714 44.6194 19.4714 44.4882 19.3371C44.4882 20.0085 44.6194 20.0085 44.6194 20.5457V20.2771C44.6194 20.4114 44.4882 20.9485 44.4882 20.9485C44.3569 21.0828 44.2257 21.0828 44.2257 20.9485V21.4857C44.2257 21.3514 44.0945 21.3514 44.0945 21.3514C44.0945 21.62 44.0945 21.7543 44.2257 21.62C43.9632 22.0228 44.0945 21.8885 43.832 22.1571C43.832 22.2914 43.9632 22.1571 43.9632 22.1571C43.832 22.4257 43.832 22.56 43.7008 22.6943C43.832 22.1571 43.4383 22.4257 43.4383 22.2914C43.4383 22.6943 43.3071 22.9628 43.1758 23.3657V23.2314C43.3071 23.3657 42.3884 24.3057 41.9947 24.5743H42.126C42.2572 24.44 41.7323 24.7085 41.601 24.8428C41.601 24.8428 41.601 24.8428 41.7323 24.7085C41.3386 24.8428 41.4698 25.1114 41.0761 25.2457C41.3386 25.1114 41.4698 24.9771 41.3386 24.9771C41.0761 25.2457 40.5512 25.38 40.6824 25.5143C40.5512 25.5143 40.4199 25.6485 40.2887 25.6485C40.0262 25.7828 39.895 25.9171 39.6325 26.0514C39.6325 26.0514 39.7638 25.9171 39.5013 26.0514C39.895 25.9171 40.1575 25.6485 40.4199 25.6485C40.4199 25.5143 40.2887 25.6485 40.4199 25.38C39.7638 25.7828 39.3701 26.0514 38.9764 26.32C38.7139 26.4543 38.5827 26.4543 38.3202 26.4543H38.189C38.0577 26.4543 38.0577 26.5885 38.0577 26.5885C37.9265 26.5885 37.9265 26.5885 37.9265 26.7228C37.9265 26.7228 37.9265 26.5885 38.0577 26.4543H38.189C38.3202 26.32 38.3202 26.32 38.189 26.32H38.0577C38.189 26.32 38.189 26.1857 38.0577 26.1857L37.5328 26.32C37.5328 26.32 37.664 26.32 37.7953 26.32C37.5328 26.4543 37.1391 26.7228 37.5328 26.5885H37.1391C36.7454 26.7228 36.7454 26.7228 36.2205 26.9914C36.2205 26.9914 36.3517 26.8571 36.2205 26.8571C35.8268 27.1257 35.1706 26.9914 35.1706 26.9914C34.9081 27.1257 35.0394 27.1257 34.9081 27.1257L34.6457 27.26C34.5144 27.26 34.9081 27.1257 34.6457 27.1257C34.1207 27.26 33.8583 27.3943 33.4646 27.3943C32.9396 27.5285 33.727 27.5285 33.2021 27.5285C33.0709 27.5285 33.0709 27.3943 32.8084 27.3943C32.6772 27.3943 32.6772 27.5285 32.4147 27.5285V27.3943C32.1522 27.3943 32.021 27.3943 32.021 27.3943C31.7585 27.3943 31.6273 27.3943 31.6273 27.3943C31.2336 27.5285 31.8898 27.5285 32.021 27.5285C31.6273 27.5285 31.3648 27.5285 31.2336 27.3943H31.4961C30.8399 27.3943 30.8399 27.5285 30.4462 27.3943C30.7087 27.3943 30.9711 27.26 30.8399 27.26L30.4462 27.3943C30.315 27.3943 30.1837 27.5285 30.0525 27.5285H29.5276C29.6588 27.5285 29.6588 27.5285 29.5276 27.5285L29.1339 28.2C29.2651 28.2 29.1339 28.2 29.0026 28.2C28.4777 28.2 28.6089 28.4685 28.2152 28.3343H28.3465H28.084C28.084 28.4685 26.7716 28.3343 26.7716 28.6028C26.5092 28.4685 26.7716 28.6028 27.1653 28.4685H26.9029C27.0341 28.4685 27.1653 28.4685 27.2966 28.4685C26.9029 28.4685 26.5092 28.4685 26.2467 28.6028C26.1155 28.6028 26.3779 28.4685 25.853 28.4685C25.1968 28.4685 25.9842 28.6028 25.5905 28.6028L25.3281 28.4685C24.8031 28.6028 24.4094 28.4685 24.0157 28.4685C23.8845 28.4685 23.8845 28.4685 23.8845 28.4685C23.4908 28.4685 22.9659 28.6028 22.5722 28.4685C22.7034 28.4685 22.4409 28.3343 22.3097 28.3343H21.6535C21.916 28.3343 21.916 28.2 21.916 28.2C21.7848 28.2 21.6535 28.2 21.5223 28.2C21.6535 28.2 21.6535 28.2 21.5223 28.2H20.9974H21.1286C20.9974 28.2 20.6037 28.2 20.3412 28.2H20.4724C20.6037 28.3343 20.7349 28.2 20.8661 28.2C20.4724 28.2 20.7349 28.2 20.6037 28.2C20.3412 28.2 20.21 28.2 20.21 28.3343C19.8163 28.3343 19.685 28.3343 19.4226 28.3343L19.5538 28.2H19.1601L19.4226 28.0657C18.7664 27.9314 19.2913 28.2 18.6352 28.0657V27.9314C18.3727 27.9314 18.2415 28.0657 18.1102 27.9314C17.8478 27.9314 18.5039 28.0657 17.979 28.0657C17.8478 28.0657 17.5853 27.9314 17.4541 27.9314C17.3228 27.9314 17.5853 28.0657 17.7165 28.0657C16.7979 28.0657 17.1916 27.7971 16.4042 27.7971C16.6667 27.9314 16.1417 27.9314 16.7979 27.9314C16.5354 27.9314 16.1417 27.7971 15.8793 27.7971H16.1417C16.0105 27.7971 15.8793 27.7971 15.8793 27.7971C15.4856 27.9314 15.0919 27.6628 14.8294 27.7971C14.9606 27.6628 14.5669 27.7971 14.3045 27.6628C14.6982 27.6628 15.2231 27.7971 15.3543 27.6628C15.2231 27.6628 15.0919 27.6628 14.9606 27.5285C15.0919 27.5285 15.2231 27.5285 15.2231 27.5285C14.6982 27.3943 14.4357 27.5285 14.042 27.3943H14.5669C14.5669 27.5285 14.3045 27.3943 14.1732 27.3943C13.9108 27.26 13.6483 27.3943 13.5171 27.26C13.5171 27.26 13.5171 27.26 13.6483 27.26C12.9921 27.1257 12.8609 26.8571 12.7297 26.8571C12.4672 26.8571 12.0735 26.7228 12.2047 26.8571C11.9422 26.8571 12.9921 26.9914 12.5984 27.1257C12.336 26.8571 11.9422 26.9914 11.1548 26.7228C11.5485 26.7228 11.0236 26.5885 11.2861 26.5885C10.8924 26.4543 10.8924 26.4543 10.7611 26.4543H10.4987C9.97375 26.4543 10.3674 26.4543 9.71128 26.32C9.97375 26.32 9.44881 26.1857 9.71128 26.1857C9.58005 26.0514 9.31758 26.0514 9.18634 26.0514C8.53018 25.7828 8.66141 25.7828 8.00524 25.5143C7.21784 25.1114 6.29921 24.44 5.77427 23.6343L5.9055 23.9028C5.77427 23.7685 5.5118 23.3657 5.38057 23.2314L5.5118 23.3657C5.5118 23.3657 5.5118 23.2314 5.38057 22.9628H5.24934V22.8285C5.1181 22.56 5.24934 22.9628 5.1181 22.6943C5.1181 22.56 4.98687 22.2914 4.85564 21.8885C4.7244 21.4857 4.7244 21.0828 4.7244 20.9485C4.59317 20.68 4.85564 21.62 4.7244 21.3514C4.7244 21.2171 4.7244 21.2171 4.7244 20.9485V21.0828C4.59317 20.0085 4.59317 19.6057 4.7244 18.6657C4.7244 18.3971 4.85564 18.1285 4.7244 17.9943C4.7244 17.9943 4.7244 18.1285 4.85564 17.9943C4.7244 17.3228 5.24934 16.92 5.24934 16.5171C5.24934 16.7857 5.5118 16.1143 5.5118 16.3828L5.64304 16.1143C5.64304 16.2485 5.38057 16.7857 5.5118 16.92C5.38057 17.1885 5.24934 17.4571 5.1181 17.7257C5.1181 17.7257 5.1181 17.86 5.24934 17.7257C5.24934 17.86 5.24934 17.9943 5.24934 17.86C4.98687 18.6657 4.85564 19.4714 4.98687 20.4114C5.1181 21.2171 5.38057 22.0228 5.64304 22.8285C5.64304 23.0971 5.77427 23.0971 5.9055 23.2314L6.03674 23.6343C6.16797 23.7685 6.16797 23.6343 6.16797 23.6343C6.69291 24.3057 7.21784 24.8428 7.87401 25.1114C8.00524 25.2457 7.74277 25.1114 8.00524 25.38C7.74277 25.1114 8.79264 25.6485 8.66141 25.5143C8.79264 25.7828 9.58004 26.0514 9.44881 26.0514C9.71128 26.1857 9.71128 26.0514 9.71128 26.0514C10.105 26.1857 10.3674 26.32 10.7611 26.32C10.8924 26.4543 12.4672 26.8571 12.8609 26.9914C12.5984 26.8571 12.8609 26.9914 13.1234 26.9914L12.9921 26.8571L13.5171 26.9914C13.6483 26.9914 13.6483 26.9914 13.6483 26.9914C13.7795 26.9914 13.6483 26.9914 13.7795 27.1257C14.1732 27.1257 14.1732 27.1257 14.3045 27.1257H14.5669C14.6982 27.1257 13.9108 27.1257 14.4357 27.26C14.4357 27.26 14.8294 27.1257 14.9606 27.26C14.6982 27.26 14.6982 27.26 14.8294 27.26L15.2231 27.3943L15.0919 27.26C16.273 27.3943 17.5853 27.6628 18.7664 27.6628C18.7664 27.7971 19.685 27.6628 19.5538 27.7971C19.2913 27.7971 19.685 27.9314 19.9475 27.9314C19.685 27.9314 20.4724 27.7971 19.8163 27.7971H20.3412C20.6037 27.5285 21.6535 27.7971 22.4409 27.7971H22.3097C22.9659 27.7971 23.8845 27.9314 24.0157 27.7971V27.9314C24.5407 27.7971 24.6719 27.7971 25.3281 27.7971C25.4593 27.7971 25.7218 27.6628 26.1155 27.6628H26.9029C26.9029 27.9314 28.2152 27.5285 28.3465 27.6628C28.4777 27.6628 29.0026 27.5285 29.2651 27.5285C29.5276 27.3943 30.0525 27.5285 30.4462 27.5285C30.7087 27.5285 30.5774 27.3943 30.4462 27.3943C30.8399 27.3943 31.4961 27.26 31.7585 27.26C32.021 27.26 31.8898 27.3943 32.021 27.3943C32.4147 27.3943 31.8898 27.26 32.5459 27.26C32.4147 27.26 32.4147 27.26 32.4147 27.26C32.6772 27.26 33.0709 27.3943 33.3333 27.3943H33.2021C33.5958 27.26 34.252 27.3943 34.252 27.26C34.9081 27.26 34.5144 27.1257 35.3018 27.1257C35.5643 27.1257 35.8268 27.1257 35.958 26.9914H35.8268C36.2205 26.8571 36.2205 26.8571 36.6142 26.8571L36.8766 26.7228C36.8766 26.5885 37.7953 26.4543 37.9265 26.4543C37.664 26.5885 37.7953 26.5885 37.9265 26.5885C38.0577 26.4543 38.189 26.4543 38.4514 26.4543C38.4514 26.32 38.4514 26.1857 38.9764 26.0514C38.8451 26.0514 38.8451 26.1857 38.8451 26.1857C38.8451 26.1857 38.9764 26.1857 38.9764 26.0514C38.9764 26.0514 38.8451 26.1857 38.9764 26.1857C39.2388 25.9171 39.5013 25.9171 40.0262 25.7828C39.895 25.9171 40.0262 25.7828 40.1575 25.9171C40.1575 25.7828 40.8136 25.6485 40.5512 25.6485C41.4698 25.38 42.5197 24.3057 42.9134 24.1714C43.0446 24.1714 43.1758 23.9028 43.1758 23.7685C43.3071 23.3657 43.4383 23.5 43.5695 22.9628C43.5695 23.2314 43.5695 23.0971 43.7008 22.9628V22.56H43.832C43.832 22.4257 43.9632 22.2914 43.9632 22.1571C43.9632 22.0228 44.0945 21.4857 44.0945 21.3514C44.2257 21.2171 44.0945 20.9485 44.2257 20.8143C44.2257 20.8143 44.2257 20.68 44.2257 20.5457C44.2257 20.68 44.0945 20.68 44.0945 20.5457H44.2257C44.2257 20.4114 44.2257 20.2771 44.2257 20.1428C44.2257 20.0085 44.2257 20.0085 44.2257 19.8743C44.3569 19.3371 43.9632 18.6657 43.9632 18.1285C43.9632 18.2628 43.9632 18.3971 43.9632 18.3971C43.9632 18.2628 43.832 17.5914 43.7008 17.4571V17.1885H43.832C43.832 17.0543 43.7008 16.7857 43.7008 16.6514V16.5171L43.9632 16.92V16.6514C44.0945 17.0543 44.3569 17.4571 44.4882 17.86C44.4882 17.1885 44.4882 17.3228 44.4882 17.3228ZM13.6483 26.8571C13.3858 26.8571 13.5171 26.8571 13.6483 26.8571V26.8571ZM31.6273 27.9314C31.4961 27.9314 31.3648 27.9314 31.2336 27.9314C31.3648 28.0657 31.4961 28.0657 31.6273 27.9314ZM38.7139 26.4543C38.5827 26.4543 38.4514 26.4543 38.4514 26.5885C38.5827 26.5885 38.7139 26.5885 38.7139 26.4543Z" fill="white"/>
<path d="M44.8817 20.1429C45.013 19.7401 44.7505 20.0086 44.8817 19.6058C44.8817 19.4715 44.8817 19.8743 44.7505 19.8743C44.7505 20.0086 44.7505 20.1429 44.8817 20.1429Z" fill="white"/>
<path d="M5.64307 16.6514L5.7743 16.3828L5.64307 16.5171V16.6514Z" fill="white"/>
<path d="M5.77441 16.1143L5.90565 15.98C5.77441 15.98 5.77441 16.1143 5.77441 16.1143Z" fill="white"/>
<path d="M28.8715 28.3342L28.7402 28.2L28.8715 28.3342Z" fill="white"/>
<path d="M25.853 28.4686C25.9843 28.4686 26.1155 28.4686 26.2467 28.4686C25.9843 28.4686 25.853 28.3343 25.853 28.4686Z" fill="white"/>
<path d="M29.5276 39.48C29.3963 39.48 29.5276 39.3457 29.5276 39.48V39.48Z" fill="white"/>
<path d="M43.9634 32.6315C43.8322 32.7658 43.701 32.9 43.8322 32.9H43.9634C43.8322 32.7658 43.8322 32.6315 43.9634 32.6315Z" fill="white"/>
<path d="M37.0078 38.1371C37.139 38.1371 37.139 38.1371 37.139 38.0028C37.139 38.1371 37.0078 38.1371 37.0078 38.1371Z" fill="white"/>
<path d="M42.5195 35.8543C42.6508 35.72 42.6508 35.5857 42.782 35.4514H42.5195V35.8543Z" fill="white"/>
<path d="M44.7507 30.4828C44.7507 30.4828 44.6195 30.2142 44.4883 30.3485C44.4883 30.8857 44.6195 31.4228 44.7507 31.4228C44.7507 31.1542 44.7507 30.8857 44.7507 30.4828C44.7507 30.6171 44.7507 31.1542 44.882 31.1542L44.7507 31.96C44.7507 31.8257 44.7507 31.5571 44.7507 31.6914C44.7507 32.0942 44.7507 31.8257 44.6195 32.0942C44.4883 31.6914 44.357 31.02 44.2258 30.7514C44.2258 30.8857 44.2258 31.02 44.2258 31.1542V31.2885C44.2258 31.8257 44.4883 32.3628 44.4883 32.4971C44.357 32.7657 44.2258 32.6314 44.2258 32.6314C44.0946 33.1685 44.357 33.3028 44.0946 33.84L44.2258 33.7057C44.2258 33.84 43.9633 34.2428 43.9633 34.2428C43.8321 34.3771 43.7009 34.3771 43.7009 34.2428C43.7009 34.3771 43.7009 34.6457 43.5696 34.78C43.5696 34.6457 43.4384 34.6457 43.4384 34.6457C43.3072 34.78 43.3072 35.0485 43.4384 34.9142C43.3072 34.9142 43.4384 34.9142 43.0447 35.0485C42.9135 35.1828 43.1759 35.1828 43.1759 35.0485C43.0447 35.3171 42.9135 35.3171 42.7822 35.4514C43.0447 35.0485 42.651 35.1828 42.651 35.0485L42.2573 35.9885C42.2573 35.9885 42.2573 35.8542 42.2573 35.72C42.2573 35.8542 41.3387 36.5257 40.8137 36.7942H40.945C41.0762 36.66 40.5513 36.9285 40.42 37.0628C40.42 37.0628 40.42 37.0628 40.5513 36.9285C40.1576 37.0628 40.1576 37.3314 39.7639 37.3314C40.0263 37.1971 40.1576 37.0628 40.0263 37.0628C40.0263 37.3314 39.3702 37.6 39.5014 37.6C39.3702 37.6 39.2389 37.7342 39.2389 37.6C38.9765 37.7342 38.8452 37.8685 38.5828 37.8685C38.5828 37.8685 38.714 37.7342 38.4515 37.8685C38.8452 37.7342 39.1077 37.4657 39.3702 37.6C39.3702 37.4657 39.2389 37.4657 39.3702 37.3314C38.714 37.6 38.3203 37.8685 37.9266 38.1371L37.2704 38.2714L37.1392 38.1371C37.008 38.1371 37.008 38.2714 37.008 38.1371H36.8767C36.8767 38.1371 36.8767 38.0028 37.008 37.8685H37.1392C37.2704 37.7342 37.2704 37.7342 37.1392 37.7342H37.008C37.1392 37.7342 37.1392 37.6 37.008 37.6L36.7455 38.1371C36.7455 38.1371 36.8767 38.1371 37.008 38.1371C36.7455 38.2714 36.3518 38.4057 36.7455 38.4057H36.3518C35.9581 38.54 35.9581 38.54 35.5644 38.6742C35.5644 38.6742 35.6956 38.54 35.5644 38.54C35.1707 38.6742 34.6458 38.54 34.5145 38.6742C34.1208 38.9428 34.3833 38.9428 34.1208 38.9428L33.8584 39.0771C33.7271 39.0771 34.1208 38.9428 33.8584 38.9428C33.4647 39.0771 33.2022 39.0771 32.8085 39.0771C32.2836 39.2114 33.071 39.2114 32.546 39.2114C32.4148 39.2114 32.4148 39.0771 32.1523 39.0771C32.0211 39.0771 32.0211 39.2114 31.7586 39.2114V39.0771C31.4962 39.0771 31.3649 39.0771 31.3649 39.0771C31.2337 39.0771 31.1024 39.0771 30.9712 39.0771C30.5775 39.2114 31.2337 39.2114 31.3649 39.2114C30.9712 39.2114 30.7087 39.2114 30.5775 39.0771H30.84C30.1838 38.9428 30.1838 39.2114 29.9213 39.0771C30.1838 39.0771 30.4463 39.0771 30.315 38.9428H30.0526C29.9213 38.9428 29.7901 39.0771 29.6589 39.0771H29.1339C29.2652 39.0771 29.2652 39.0771 29.1339 39.0771H28.7402C28.8715 39.0771 28.7402 39.0771 28.609 39.0771C28.0841 39.0771 28.2153 39.3457 27.8216 39.2114H27.9528H27.6904C27.6904 39.3457 26.5093 39.2114 26.5093 39.48C26.2468 39.3457 26.5093 39.48 26.903 39.3457H26.6405C26.7717 39.3457 26.903 39.3457 27.0342 39.3457C26.6405 39.2114 26.2468 39.3457 25.9843 39.48C25.8531 39.48 26.1156 39.3457 25.7219 39.3457C25.0657 39.3457 25.8531 39.48 25.4594 39.48L24.9345 39.6142C24.4095 39.7485 24.1471 39.6142 23.7534 39.6142C23.6221 39.6142 23.6221 39.6142 23.6221 39.6142C23.2284 39.6142 22.7035 39.7485 22.441 39.6142C22.5723 39.6142 22.3098 39.48 22.1786 39.48H21.6536C21.9161 39.48 21.9161 39.3457 21.9161 39.3457C21.7849 39.3457 21.6536 39.3457 21.5224 39.3457C21.6536 39.3457 21.6536 39.3457 21.5224 39.3457L20.8662 39.48H20.9975C20.8662 39.48 20.4725 39.48 20.3413 39.48H20.4725C20.6038 39.6142 20.735 39.48 20.8662 39.48C20.4725 39.48 20.735 39.48 20.6038 39.48C20.3413 39.48 20.2101 39.48 20.2101 39.6142C19.8164 39.6142 19.8164 39.6142 19.4227 39.6142L19.5539 39.48H19.2914L19.5539 39.3457C18.8977 39.2114 19.4227 39.48 18.7665 39.3457V39.2114C18.504 39.2114 18.3728 39.3457 18.2416 39.2114C17.9791 39.2114 18.6353 39.3457 18.1103 39.3457C17.9791 39.3457 17.8479 39.2114 17.5854 39.2114C17.4542 39.2114 17.5854 39.3457 17.8479 39.3457C17.0605 39.3457 17.3229 39.0771 16.5355 39.0771C16.798 39.2114 16.2731 39.2114 16.9292 39.2114C16.6668 39.2114 16.4043 39.0771 16.0106 39.0771H16.2731C16.1418 39.0771 16.0106 39.0771 16.0106 39.0771C15.6169 39.2114 15.3544 38.9428 15.0919 39.0771C15.2232 38.9428 14.8295 39.0771 14.6982 38.9428C15.0919 38.9428 15.6169 39.0771 15.6169 38.9428C15.4857 38.9428 15.3544 38.9428 15.2232 38.8085C15.3544 38.8085 15.4857 38.8085 15.4857 38.8085C14.9607 38.6742 14.6982 38.8085 14.4358 38.6742H14.9607C14.9607 38.8085 14.6982 38.6742 14.567 38.6742C14.3045 38.54 14.0421 38.6742 13.9108 38.54H14.0421C13.5171 38.4057 13.3859 38.2714 13.1234 38.1371C12.861 38.1371 12.4673 38.0028 12.5985 38.1371C12.4673 38.1371 13.3859 38.2714 12.9922 38.4057C12.7297 38.1371 12.336 38.4057 11.6799 38.0028C11.9423 38.0028 11.5486 37.8685 11.8111 37.8685C11.4174 37.7342 11.4174 37.8685 11.2862 37.8685L11.1549 37.7342C10.63 37.7342 11.0237 37.8685 10.3675 37.6C10.63 37.6 10.1051 37.4657 10.3675 37.4657C10.2363 37.3314 9.97384 37.3314 9.84261 37.3314C9.18644 37.0628 9.31767 37.0628 8.79274 36.7942C8.00533 36.5257 7.21793 35.8542 6.56177 35.1828L6.693 35.4514C6.56177 35.3171 6.16806 35.0485 6.16806 34.78L6.2993 34.9142C6.2993 34.9142 6.2993 34.78 6.16806 34.6457H6.03683V34.5114C5.9056 34.2428 6.03683 34.6457 5.77436 34.3771C5.77436 34.2428 5.64313 33.9742 5.38066 33.5714C5.24943 33.3028 4.98696 32.9 5.1182 32.7657C4.98696 32.6314 5.1182 32.7657 5.1182 33.0342C5.1182 33.1685 5.24943 33.3028 5.1182 33.1685C5.1182 33.0342 5.1182 33.0342 4.98696 32.7657V32.9C4.85573 32.3628 4.85573 32.0942 4.7245 31.6914C4.7245 31.4228 4.7245 31.02 4.59326 30.6171C4.59326 30.3485 4.59326 30.08 4.59326 29.9457C4.59326 29.9457 4.59326 30.08 4.7245 29.9457C4.59326 29.4085 4.98696 28.8714 4.85573 28.6028C4.98696 28.6028 5.24943 28.0657 5.24943 28.3342V28.0657C5.24943 28.2 5.1182 28.7371 5.1182 28.8714C4.98696 29.14 4.98696 29.2742 4.98696 29.5428C4.98696 29.5428 5.1182 29.6771 5.1182 29.5428C5.1182 29.6771 5.1182 29.8114 5.1182 29.6771C4.7245 31.2885 5.24943 32.9 6.16806 34.1085C6.2993 34.78 6.43053 34.78 6.56177 34.9142C6.56177 35.0485 6.693 35.1828 6.82423 35.3171C6.95547 35.4514 6.95547 35.3171 6.95547 35.3171C7.21793 35.5857 7.4804 35.8542 7.8741 36.1228C8.13657 36.3914 8.39904 36.5257 8.79274 36.66C8.92397 36.7942 8.6615 36.66 8.92397 36.9285C8.6615 36.66 9.71137 37.1971 9.4489 37.0628C9.58014 37.3314 10.3675 37.4657 10.1051 37.6C10.3675 37.7342 10.3675 37.6 10.3675 37.6C10.4988 37.4657 10.8925 37.6 11.1549 37.6C11.2862 37.6 11.6799 37.7342 12.0736 37.8685C12.4673 38.0028 12.9922 38.1371 13.1234 38.1371C12.861 38.0028 13.1234 38.1371 13.3859 38.1371L13.2547 38.0028C13.3859 38.0028 13.5171 38.1371 13.7796 38.1371C13.9108 38.1371 13.9108 38.1371 13.9108 38.1371C14.0421 38.1371 13.9108 38.1371 14.0421 38.2714C14.4358 38.2714 14.4358 38.2714 14.567 38.2714H14.8295C14.9607 38.2714 14.1733 38.2714 14.8295 38.4057C14.8295 38.4057 15.2232 38.2714 15.3544 38.4057C15.0919 38.4057 15.092 38.4057 15.2232 38.4057C15.3544 38.4057 15.4857 38.4057 15.6169 38.4057L15.4857 38.2714C16.6668 38.4057 17.8479 38.6742 19.029 38.6742C19.029 38.8085 19.9476 38.6742 19.8164 38.8085C19.5539 38.8085 19.9476 38.9428 20.0788 38.9428C19.5539 38.9428 20.3413 38.9428 19.6851 38.9428H20.2101C20.4725 38.6742 21.5224 39.0771 22.1786 38.9428C22.1786 38.9428 22.1786 38.9428 22.0473 38.9428C22.7035 38.9428 23.4909 39.0771 23.6221 38.9428V39.0771C24.1471 38.9428 24.2783 38.9428 24.9345 38.9428C25.0657 38.9428 25.1969 38.8085 25.7219 38.8085H26.378C26.378 39.0771 27.5591 38.6742 27.8216 38.8085C27.9528 38.6742 28.4778 38.6742 28.7402 38.6742C29.0027 38.54 29.5276 38.6742 29.7901 38.6742C29.9213 38.6742 29.9213 38.54 29.7901 38.54C30.1838 38.6742 30.84 38.4057 30.9712 38.4057C31.2337 38.4057 31.1024 38.54 31.1024 38.54C31.4962 38.54 30.9712 38.4057 31.6274 38.4057H31.4961C31.7586 38.4057 32.1523 38.6742 32.2836 38.54H32.1523C32.546 38.4057 33.071 38.54 33.2022 38.4057C33.8584 38.4057 33.4647 38.4057 34.1208 38.2714C34.3833 38.2714 34.6458 38.2714 34.777 38.1371H34.6458C35.0395 38.0028 35.0395 38.1371 35.4332 38.0028H35.6956C35.6956 37.8685 36.483 37.7342 36.7455 37.7342C36.483 37.8685 36.6143 37.8685 36.7455 37.8685C36.8767 37.7342 37.008 37.7342 37.2704 37.7342C37.2704 37.6 37.2704 37.4657 37.7954 37.3314C37.6641 37.3314 37.6641 37.4657 37.6641 37.4657H37.7954C37.7954 37.4657 37.6641 37.6 37.7954 37.6C38.0578 37.4657 38.3203 37.4657 38.714 37.1971C38.5828 37.3314 38.714 37.1971 38.714 37.3314C38.714 37.1971 39.3702 37.1971 39.1077 37.0628C40.0263 36.9285 41.2074 36.1228 41.4699 35.9885C41.6011 35.9885 41.7324 35.72 41.8636 35.72C42.1261 35.3171 42.1261 35.4514 42.3885 35.0485C42.2573 35.1828 42.3885 35.1828 42.5198 35.0485C42.651 34.9142 42.651 34.78 42.651 34.6457H42.7822C42.7822 34.5114 42.9135 34.3771 43.0447 34.2428C43.0447 34.1085 43.3072 33.5714 43.3072 33.4371C43.4384 33.3028 43.4384 33.0342 43.5696 33.0342C43.5696 32.9 43.5696 32.9 43.5696 32.9C43.4384 32.9 43.4384 32.9 43.4384 32.9H43.5696C43.5696 32.7657 43.5696 32.6314 43.7009 32.4971C43.7009 32.4971 43.7009 32.6314 43.5696 32.6314C43.5696 32.6314 43.5696 32.4971 43.7009 32.4971C43.7009 32.3628 43.8321 32.3628 43.8321 32.2285C43.9633 31.6914 43.8321 31.1542 43.9633 30.4828C43.9633 30.6171 43.9633 30.7514 43.9633 30.7514C43.9633 30.6171 43.9633 29.9457 43.9633 29.8114V29.6771H44.0946C44.0946 29.5428 44.0946 29.2742 44.0946 29.14L44.2258 29.0057L44.357 29.5428V29.2742C44.4883 29.6771 44.4883 30.08 44.6195 30.4828C44.7507 30.3485 44.7507 30.4828 44.7507 30.4828ZM13.9108 38.1371C13.6484 38.1371 13.7796 38.1371 13.9108 38.1371V38.1371ZM30.84 39.3457C30.7087 39.3457 30.5775 39.3457 30.5775 39.3457H30.84ZM37.6641 38.1371C37.5329 38.1371 37.5329 38.1371 37.4017 38.1371C37.5329 38.1371 37.6641 38.1371 37.6641 38.1371Z" fill="white"/>
<path d="M44.488 33.0343C44.6192 32.6315 44.488 32.9 44.6192 32.6314C44.6192 32.4972 44.488 32.9 44.488 32.7657C44.488 33.0343 44.3568 33.1686 44.488 33.0343Z" fill="white"/>
<path d="M5.38037 28.4685L5.5116 28.3342C5.38037 28.3342 5.38037 28.4685 5.38037 28.4685Z" fill="white"/>
<path d="M28.2153 39.6143H28.3466L28.2153 39.48V39.6143Z" fill="white"/>
<path d="M25.4595 39.7485C25.5907 39.7485 25.7219 39.7485 25.8532 39.7485C25.5907 39.7485 25.4595 39.6142 25.4595 39.7485Z" fill="white"/>
<path d="M30.4461 20.1829L30.1836 20.3291C30.3148 20.1829 30.3148 20.1829 30.4461 20.1829Z" fill="white"/>
<path d="M47.6377 9.94287C47.6377 10.2354 47.6377 10.528 47.7689 10.528V10.3817C47.7689 10.2354 47.6377 10.0892 47.6377 9.94287Z" fill="white"/>
<path d="M23.7532 22.9623C23.622 22.9623 23.622 22.9623 23.4907 22.9623C23.8844 23.1086 23.7532 22.9623 23.7532 22.9623Z" fill="white"/>
<path d="M3.41188 7.45593C3.28065 7.45593 3.28065 7.60222 3.14941 7.60222C3.14941 7.60222 3.28065 7.45593 3.41188 7.45593Z" fill="white"/>
<path d="M12.5983 22.0846C12.4671 21.9383 12.3358 21.9383 12.5983 22.0846Z" fill="white"/>
<path d="M46.8506 14.9165C46.9818 14.7702 47.2443 14.6239 47.3755 14.4777C47.2443 14.4777 47.2443 14.4777 47.1131 14.4777C47.1131 14.6239 46.9818 14.7702 46.8506 14.9165Z" fill="white"/>
<path d="M46.1943 7.01706C46.1943 7.01706 45.8006 6.87077 45.9318 7.16334C46.588 7.6022 47.1129 8.18734 47.1129 8.04106C46.9817 7.6022 46.588 7.30963 46.1943 7.01706C46.3255 7.01706 46.9817 7.74848 46.9817 7.6022C47.2441 7.89477 47.5066 8.18734 47.6378 8.6262C47.5066 8.47991 47.2441 8.18734 47.3754 8.33363C47.6378 8.77248 47.5066 8.6262 47.6378 8.91877C47.2441 8.47991 46.4567 7.89477 46.063 7.74848C46.1943 7.89477 46.3255 8.04106 46.4567 8.04106L46.588 8.18734C47.1129 8.6262 47.6378 9.06506 47.9003 9.21134C48.0315 9.6502 47.9003 9.50391 47.7691 9.50391C48.0316 10.3816 48.294 10.2353 48.4253 11.2593C48.4253 11.1131 48.4253 10.9668 48.4253 10.9668C48.4253 11.1131 48.4252 11.9908 48.5565 11.8445C48.5565 11.9908 48.4253 12.1371 48.4253 11.9908C48.4253 12.2833 48.4253 12.5759 48.4253 12.8685C48.4253 12.7222 48.294 12.7222 48.294 12.7222C48.1628 13.0148 48.294 13.3073 48.4253 13.1611C48.1628 13.7462 48.1628 13.5999 47.9003 14.0388C47.7691 14.1851 48.0315 14.1851 48.1628 14.0388C48.0315 14.4776 47.7691 14.6239 47.6378 14.7702C48.1628 14.1851 47.6378 14.4776 47.6378 14.1851C47.5066 14.6239 46.9817 14.9165 46.8504 15.3553C46.8504 15.3553 46.8504 15.2091 46.8504 15.0628C46.8504 15.2091 46.588 15.3553 46.588 15.9405C46.588 16.2331 46.588 16.5256 46.4567 16.8182C46.3255 17.1108 46.1943 17.4033 46.063 17.5496L46.1943 17.4033C46.3255 17.2571 45.8006 17.6959 45.5381 17.8422L45.6693 17.6959C45.1444 17.8422 45.1444 18.2811 44.6195 18.2811C45.1444 18.1348 45.1444 17.9885 45.1444 17.9885C44.7507 18.2811 43.8321 18.2811 44.0945 18.4273C43.8321 18.4273 43.5696 18.4273 43.5696 18.4273C43.3071 18.4273 42.9134 18.4273 42.651 18.4273C42.7822 18.4273 42.7822 18.4273 42.5197 18.2811C43.0447 18.4273 43.5696 18.2811 43.8321 18.4273C43.8321 18.2811 43.7008 18.2811 43.8321 18.2811C42.7822 18.2811 42.2573 18.2811 41.6011 18.2811L40.6825 17.9885L40.5512 17.8422C40.42 17.8422 40.42 17.8422 40.2888 17.8422C40.1575 17.8422 40.1575 17.8422 40.0263 17.8422C40.0263 17.8422 40.1575 17.6959 40.2888 17.6959C40.42 17.6959 40.42 17.6959 40.5512 17.8422C40.6825 17.8422 40.8137 17.8422 40.6825 17.6959H40.5512C40.6825 17.6959 40.6825 17.6959 40.6825 17.6959C40.42 17.6959 40.1575 17.6959 40.0263 17.6959C40.1575 17.6959 40.1575 17.6959 40.2888 17.8422C39.8951 17.8422 39.3701 17.9885 39.7638 17.9885C39.6326 17.9885 39.3701 17.9885 39.2389 17.9885C38.9764 18.1348 38.8452 18.1348 38.8452 18.2811C38.714 18.4273 38.5827 18.4273 38.5827 18.7199C38.5827 18.7199 38.5827 18.5736 38.4515 18.7199C38.4515 19.3051 37.7953 20.0365 37.7953 20.1828C37.5329 20.6216 37.7953 20.4753 37.6641 20.6216C37.6641 20.7679 37.5329 20.9142 37.5329 20.9142C37.4016 21.0605 37.6641 20.6216 37.4016 20.9142C37.0079 21.4993 36.7455 21.7919 36.0893 22.0845C35.3019 22.3771 36.483 22.0845 35.8268 22.3771C35.6956 22.3771 35.5644 22.3771 35.1707 22.2308C34.9082 22.2308 34.9082 22.2308 34.5145 22.0845V21.9382C34.252 21.7919 33.9896 21.6456 33.9896 21.6456C33.7271 21.4993 33.5959 21.3531 33.4646 21.3531C33.0709 21.0605 33.7271 21.7919 33.8583 21.7919C33.4646 21.4993 33.2022 21.3531 32.9397 21.0605L33.3334 21.3531C32.546 20.7679 32.546 20.9142 32.2835 20.6216C32.546 20.7679 32.9397 20.9142 32.8085 20.7679C32.6772 20.7679 32.546 20.6216 32.4148 20.6216C31.8898 20.1828 31.6274 20.1828 31.4961 20.1828C31.2336 20.0365 31.1024 20.0365 30.8399 20.0365C30.9712 20.0365 30.9712 20.0365 30.8399 20.0365C30.7087 20.0365 30.5775 20.1828 30.4462 20.1828C30.5775 20.0365 30.4462 20.1828 30.1838 20.1828C29.5276 20.4753 29.7901 20.6216 29.2651 20.9142C29.2651 20.9142 29.3964 20.9142 29.3964 20.7679L29.1339 20.9142C29.2651 21.0605 27.8216 22.0845 27.8216 22.2308C27.4279 22.3771 27.8216 22.2308 28.2153 21.7919C27.6903 22.0845 27.2966 22.5233 27.0342 22.6696C26.7717 22.6696 27.1654 22.5233 26.5092 22.8159C25.5906 23.1085 26.7717 22.9622 26.2468 23.1085C26.1155 23.1085 25.9843 23.1085 25.8531 23.1085C25.1969 23.2548 24.672 23.2548 24.0158 23.1085C23.8846 23.1085 23.7533 23.1085 23.7533 23.1085C23.0972 22.9622 22.441 22.6696 22.0473 22.3771C22.1785 22.3771 21.9161 22.2308 21.7848 22.0845C21.5224 21.9382 21.2599 21.7919 21.1287 21.6456C21.3911 21.7919 21.3911 21.7919 21.5224 21.7919C21.2599 21.6456 21.2599 21.6456 20.9974 21.4993C21.1287 21.4993 21.1287 21.6456 21.1287 21.4993C20.8662 21.3531 20.6037 21.2068 20.3413 21.2068C20.4725 21.2068 20.4725 21.2068 20.4725 21.3531C20.3413 21.2068 19.9476 21.2068 19.6851 21.0605H19.8163C20.0788 21.2068 20.21 21.2068 20.3413 21.2068C19.8163 21.0605 20.21 21.2068 19.9476 21.0605C19.5539 21.0605 19.4226 21.0605 19.5539 21.2068C19.1602 21.2068 19.0289 21.2068 18.504 21.3531L18.6352 21.2068C18.504 21.2068 18.3728 21.3531 18.2415 21.3531C18.3728 21.3531 18.504 21.2068 18.504 21.2068C17.7166 21.3531 18.3728 21.3531 17.4541 21.6456C17.1917 21.7919 17.0604 21.9382 16.798 22.0845C16.5355 22.2308 17.3229 21.9382 16.6667 22.2308C16.5355 22.2308 16.273 22.3771 16.0106 22.3771C15.7481 22.5233 16.1418 22.3771 16.273 22.3771C15.2231 22.8159 15.4856 22.5233 14.4357 22.8159C14.8294 22.8159 14.1733 23.1085 15.0919 22.8159C14.6982 22.9622 14.1733 22.9622 13.7796 22.9622C13.9108 22.9622 14.042 22.9622 14.042 22.8159C13.9108 22.8159 13.6483 22.8159 13.6483 22.8159C12.9922 22.9622 12.5985 22.5233 12.2048 22.5233C12.4672 22.5233 11.8111 22.2308 11.6798 22.0845C12.0735 22.3771 12.8609 22.8159 12.9922 22.6696C12.7297 22.5233 12.5985 22.5233 12.4672 22.3771C12.5985 22.3771 12.8609 22.5233 12.8609 22.5233C12.2048 22.2308 11.8111 21.9382 11.5486 21.6456C11.8111 21.4993 12.0735 21.6456 12.2048 21.7919C12.0735 21.7919 11.9423 21.6456 11.6798 21.4993C11.4174 21.2068 11.1549 20.9142 11.0237 20.7679L11.1549 20.9142C10.63 20.1828 10.63 19.8902 10.3675 19.5976C10.2363 19.3051 9.71134 18.8662 9.84257 19.1588C9.71134 19.0125 10.63 20.0365 10.2363 19.7439C9.9738 19.3051 9.5801 19.0125 8.7927 18.4273C9.1864 18.5736 8.53023 18.2811 8.92394 18.4273C8.53023 18.2811 8.399 18.2811 8.26777 18.2811L8.13653 18.1348C7.48037 18.2811 8.0053 18.1348 7.08666 18.2811C7.34913 18.2811 6.69296 18.2811 6.95543 18.1348C6.69296 18.1348 6.4305 18.1348 6.29926 18.2811C5.77433 18.2811 5.64309 18.2811 5.38063 18.2811C5.24939 18.2811 4.98693 18.2811 4.59323 17.9885L4.72446 18.1348C4.19953 17.8422 3.67459 17.1108 3.54336 16.3793C3.54336 15.9405 3.54336 15.6479 3.54336 15.2091C3.54336 14.9165 3.67459 14.4776 3.54336 14.1851C3.54336 14.3313 3.54336 14.4776 3.54336 14.6239C3.54336 14.4776 3.54336 13.7462 3.41212 13.4536C3.41212 13.4536 3.41212 13.5999 3.54336 13.7462C3.54336 13.7462 3.54336 13.5999 3.54336 13.3073L3.41212 13.1611V13.0148C3.28089 12.5759 3.41212 13.1611 3.28089 12.7222C3.28089 12.5759 3.01842 12.1371 2.75596 11.8445C2.36225 11.5519 1.96855 11.2593 1.83732 11.1131C1.70609 11.1131 1.83732 11.2593 2.09979 11.2593C2.23102 11.4056 2.49349 11.4056 2.23102 11.4056C2.09979 11.2593 2.09979 11.2593 1.83732 11.1131L1.96855 11.2593C1.31239 10.8205 1.18115 10.0891 1.18115 9.50391C1.18115 8.91877 1.44362 8.47991 1.83732 8.04106C2.23102 7.74848 2.36225 7.6022 2.49349 7.45591C2.62472 7.45591 2.36225 7.6022 2.49349 7.6022C3.01842 7.01706 3.93706 7.01706 4.33076 6.72449C4.33076 6.87077 5.24939 6.72448 4.85569 6.87077L5.11816 6.72449C4.85569 6.87077 4.06829 7.01706 3.93706 7.16334C3.67459 7.30963 3.28089 7.30963 3.01842 7.45591C3.01842 7.45591 2.88719 7.6022 3.01842 7.6022C2.75596 7.74848 2.62472 7.74848 2.88719 7.74848C2.36225 8.04106 1.83732 8.33363 1.57485 8.6262C1.31239 9.06506 1.18115 9.6502 1.31239 10.0891C1.44362 10.3816 1.57485 10.5279 1.83732 10.6742C2.09979 10.8205 2.36225 10.9668 2.62472 11.2593C3.14966 11.6982 3.54336 12.2833 3.67459 12.8685C3.80582 13.3073 3.80582 13.3073 3.93706 13.5999C3.93706 13.8925 3.93706 14.0388 3.80582 14.3313C3.80582 14.6239 3.80582 14.3313 3.93706 14.4776C3.93706 15.2091 3.67459 15.6479 3.80582 16.2331C3.80582 16.8182 4.06829 17.2571 4.46199 17.4033C4.59323 17.5496 4.33076 17.4033 4.59323 17.6959C4.46199 17.5496 4.59323 17.6959 4.85569 17.6959C5.11816 17.8422 5.38063 17.8422 5.24939 17.6959C5.51186 17.8422 6.56173 17.6959 6.4305 17.8422C6.95543 17.8422 6.8242 17.6959 6.69296 17.6959C7.2179 17.6959 7.74283 17.6959 8.13653 17.6959C8.26777 17.6959 8.92393 17.9885 9.44887 18.4273C9.9738 18.8662 10.3675 19.4513 10.4987 19.7439C10.3675 19.4513 10.4987 19.7439 10.7612 20.0365L10.63 19.7439L11.0237 20.3291C11.1549 20.4753 11.1549 20.4753 11.1549 20.4753C11.2861 20.6216 11.1549 20.4753 11.2861 20.7679C11.5486 21.2068 11.6798 21.0605 11.8111 21.2068C11.9423 21.2068 11.9423 21.3531 12.0735 21.3531C12.2048 21.4993 11.4174 20.9142 11.9423 21.3531C11.9423 21.3531 12.336 21.4993 12.4672 21.6456C12.2048 21.4993 12.2048 21.4993 12.336 21.6456C12.4672 21.7919 12.5985 21.7919 12.8609 21.9382L12.7297 21.7919C14.1733 22.3771 15.7481 21.4993 17.3229 20.7679C17.3229 20.7679 18.504 20.3291 18.3728 20.6216H18.2415C17.8478 20.7679 18.3728 20.6216 18.7665 20.6216C18.3728 20.6216 19.4226 20.3291 18.504 20.4753C18.7665 20.4753 19.0289 20.3291 19.1602 20.3291C19.2914 20.1828 19.9476 20.1828 20.4725 20.4753C20.9974 20.7679 21.5224 21.2068 21.9161 21.4993H21.7848C22.1785 21.7919 22.5722 22.0845 22.9659 22.2308C23.3596 22.3771 23.6221 22.5233 23.7533 22.5233V22.6696C24.5407 22.6696 24.5407 22.6696 25.4594 22.5233C25.5906 22.3771 25.8531 22.3771 26.378 22.0845C26.6405 21.9382 26.9029 21.7919 27.1654 21.4993C27.2966 21.7919 28.4777 20.1828 28.8714 20.3291C29.0027 20.1828 29.6588 19.7439 30.0525 19.5976C30.0525 19.5976 30.0525 19.5976 30.1838 19.5976C30.7087 19.3051 31.4961 19.8902 31.7586 20.0365C32.0211 20.1828 31.8898 20.0365 31.8898 20.0365C32.4148 20.4753 33.2022 20.7679 33.4646 20.9142C33.8583 21.0605 33.5959 21.0605 33.5959 21.2068C34.1208 21.4993 33.5959 21.0605 34.252 21.3531C34.1208 21.3531 33.9896 21.2068 34.1208 21.3531C34.3833 21.4993 34.777 21.7919 35.0394 21.6456H34.9082C35.4331 21.6456 36.0893 21.2068 36.0893 21.0605H35.9581C36.6142 20.4753 36.2205 20.7679 36.8767 20.0365C37.1392 19.5976 37.2704 19.4513 37.2704 19.1588L37.1392 19.3051C37.4016 18.8662 37.2704 18.8662 37.6641 18.1348C37.6641 17.9885 37.9266 17.8422 38.0578 17.6959C38.0578 17.6959 38.3203 17.4033 38.714 17.4033C39.1077 17.2571 39.5014 17.4033 39.6326 17.4033C39.2389 17.4033 39.3701 17.4033 39.5014 17.5496C39.7638 17.5496 39.8951 17.5496 40.2888 17.5496C40.2888 17.4033 40.42 17.4033 41.0762 17.4033C40.9449 17.4033 40.8137 17.4033 40.8137 17.4033H41.0762H40.9449C41.4699 17.4033 41.7323 17.5496 42.3885 17.5496C42.126 17.5496 42.3885 17.5496 42.3885 17.6959C42.3885 17.5496 43.3071 17.8422 43.0447 17.6959C43.7008 17.6959 44.4882 17.5496 44.8819 16.9645C45.4069 16.5256 45.2756 15.7942 45.4069 15.5016C45.4069 15.3553 45.5381 14.7702 45.8006 14.6239C46.3255 14.0388 46.3255 14.3313 46.7192 13.7462C46.588 14.0388 46.7192 13.8925 46.8504 13.7462C46.9817 13.5999 46.9817 13.4536 47.1129 13.3073H47.2441C47.3754 13.1611 47.3754 12.8685 47.5066 12.7222C47.5066 12.4296 47.6378 11.6982 47.5066 11.5519C47.6378 11.2593 47.3754 10.9668 47.5066 10.6742C47.5066 10.5279 47.3754 10.5279 47.3754 10.3816C47.3754 10.5279 47.3754 10.5279 47.2441 10.3816V10.2353C47.1129 10.0891 47.1129 9.79649 46.9817 9.6502V9.79648C46.9817 9.6502 46.9817 9.6502 46.9817 9.50391C46.9817 9.35763 46.8504 9.21134 46.7192 9.06506C46.4567 8.33363 45.6693 7.74849 45.1444 7.16334C45.2756 7.30963 45.4069 7.30963 45.4069 7.30963C45.2756 7.16334 44.6195 6.5782 44.357 6.43191L44.0945 6.28563V6.13934C43.8321 5.99306 43.7008 5.84677 43.4384 5.70049L43.3071 5.5542C43.5696 5.5542 43.7008 5.70048 43.9633 5.84677L43.5696 5.5542C44.0945 5.70048 44.6195 5.99306 45.1444 6.43191C45.9318 6.87077 46.1943 7.01706 46.1943 7.01706ZM11.5486 20.4753C11.4174 20.3291 11.2861 20.3291 11.5486 20.4753ZM33.2022 21.0605C33.0709 20.9142 32.9397 20.7679 32.8085 20.7679C32.8085 20.9142 33.0709 21.0605 33.2022 21.0605Z" fill="white"/>
<path d="M48.4254 10.0892C48.2941 9.50403 48.2941 9.94289 48.1629 9.50403C48.0317 9.35774 48.2941 9.94289 48.1629 9.7966C48.2941 10.0892 48.4254 10.2355 48.4254 10.0892Z" fill="white"/>
<path d="M48.163 9.79655C48.163 9.79655 48.163 9.65027 48.0317 9.65027C48.163 9.65027 48.163 9.65027 48.163 9.79655Z" fill="white"/>
<path d="M5.11816 6.87092H5.38063C5.2494 6.72464 5.11816 6.87092 5.11816 6.87092Z" fill="white"/>
<path d="M33.9895 21.792C33.9895 21.792 33.8583 21.6458 33.7271 21.6458L33.9895 21.792Z" fill="white"/>
<path d="M26.7714 22.816C26.9027 22.816 27.1651 22.6697 27.2964 22.5234C26.9027 22.816 26.6402 22.816 26.7714 22.816Z" fill="white"/>
<path d="M29.5272 35.4514L29.396 35.5857C29.396 35.4514 29.5272 35.4514 29.5272 35.4514Z" fill="white"/>
<path d="M48.8189 26.4543C48.6877 26.3201 48.5564 26.4543 48.6877 26.4543H48.8189Z" fill="white"/>
<path d="M38.7136 31.4229L38.4512 31.5571C38.4512 31.5571 38.5824 31.5571 38.7136 31.4229Z" fill="white"/>
<path d="M24.0154 37.8685C24.0154 37.8685 23.8842 38.0028 23.7529 38.0028C24.1466 37.8685 24.0154 37.8685 24.0154 37.8685Z" fill="white"/>
<path d="M29.6585 34.5115C29.5273 34.6458 29.5273 34.6458 29.6585 34.5115V34.5115Z" fill="white"/>
<path d="M2.36208 25.2457C2.23084 25.2457 2.23084 25.38 2.09961 25.38C2.23084 25.2457 2.23084 25.2457 2.36208 25.2457Z" fill="white"/>
<path d="M14.698 33.3028C14.5668 33.1686 14.5668 33.3028 14.698 33.3028V33.3028Z" fill="white"/>
<path d="M45.4067 28.7371C45.538 28.6028 45.6692 28.4685 45.8004 28.4685L45.538 28.3342L45.4067 28.7371Z" fill="white"/>
<path d="M48.4251 24.9771C48.4251 24.9771 48.1626 24.9771 48.1626 25.1114C48.6876 25.5143 49.2125 25.7828 49.2125 25.6486L48.4251 24.9771C48.5563 24.9771 49.0813 25.5143 49.0813 25.38L49.9999 26.32C49.8687 26.1857 49.3437 25.7828 49.475 26.0514C49.8687 26.4543 49.7374 26.32 49.8687 26.5886C49.0813 26.0514 48.4251 25.9171 48.1626 25.7828L48.5563 26.0514V26.1857C48.8188 26.32 48.95 26.32 49.0813 26.4543C49.3437 26.5886 49.6062 26.7228 49.8687 26.8571V26.9914C49.3437 27.1257 49.3437 26.9914 49.3437 26.9914C48.8188 27.26 48.8188 27.5286 48.1626 27.7971H48.4251C48.2939 27.9314 47.7689 28.0657 47.7689 28.0657C47.6377 28.0657 47.5065 28.0657 47.6377 27.9314H47.244C47.3752 27.9314 47.244 27.7971 47.244 27.6628C46.9815 27.7971 46.9815 27.9314 47.1128 27.9314C46.5878 28.0657 46.719 28.0657 46.3253 28.0657C46.1941 28.0657 46.4566 28.2 46.4566 28.2C46.1941 28.3343 46.0629 28.4686 45.8004 28.4686C46.3254 28.2 45.8004 28.0657 45.8004 27.9314L44.8818 28.7371V28.4686C44.8818 28.6028 43.7007 29.14 43.0445 29.4086H43.1757C43.307 29.2743 42.782 29.5428 42.5196 29.6771C42.5196 29.6771 42.6508 29.6771 42.6508 29.5428C42.2571 29.5428 42.2571 29.9457 41.7322 29.9457C42.1259 29.8114 42.1259 29.6771 42.1259 29.6771C41.8634 29.8114 41.2072 30.08 41.3385 30.2143C41.076 30.2143 40.9448 30.3486 40.9448 30.2143L40.2886 30.6171C40.2886 30.6171 40.4198 30.4828 40.1574 30.6171C40.5511 30.4828 40.9448 30.2143 41.2072 30.2143C41.2072 30.08 40.9448 30.08 41.2072 29.9457C40.4198 30.3486 40.0261 30.6171 39.6324 31.02L38.9763 31.2886H38.845C38.7138 31.2886 38.7138 31.4228 38.7138 31.4228C38.5826 31.4228 38.5826 31.5571 38.5826 31.5571C38.5826 31.5571 38.5826 31.4228 38.7138 31.2886C38.845 31.2886 38.845 31.2886 38.9763 31.2886C39.1075 31.1543 39.1075 31.02 38.9763 31.1543H38.845C38.9763 31.02 38.9763 31.02 38.845 31.02L38.3201 31.2886C38.3201 31.2886 38.4513 31.2886 38.5826 31.2886C38.3201 31.5571 37.9264 31.6914 38.3201 31.6914L37.9264 31.8257C37.5327 32.0943 37.5327 32.0943 37.0078 32.3628C37.0078 32.3628 37.139 32.2286 37.0078 32.2286C36.6141 32.4971 35.9579 32.4971 35.8267 32.6314C35.433 32.7657 35.6954 32.7657 35.5642 32.9L35.3017 33.0343C35.1705 33.0343 35.5642 32.9 35.1705 33.0343C34.6456 33.3028 34.3831 33.4371 33.9894 33.5714C33.4645 33.84 34.2519 33.5714 33.8582 33.84C33.7269 33.84 33.7269 33.7057 33.3332 33.84C33.202 33.9743 33.202 33.9743 32.9395 34.1086V33.9743C32.6771 34.1086 32.5458 34.2428 32.4146 34.1086C32.2834 34.2428 32.0209 34.2428 32.0209 34.3771C31.6272 34.6457 32.4146 34.5114 32.5458 34.5114C32.1521 34.6457 31.8897 34.78 31.6272 34.78L32.0209 34.6457C31.2335 34.78 31.3647 35.0486 30.971 35.0486C31.2335 34.9143 31.496 34.78 31.3647 34.78L30.971 34.9143C30.8398 34.9143 30.7085 35.1828 30.5773 35.1828L29.9211 35.4514C30.0524 35.4514 30.0524 35.4514 29.9211 35.4514L29.5274 35.72C29.6587 35.5857 29.5274 35.72 29.265 35.72C28.74 35.8543 28.8713 36.1228 28.4776 36.2571H28.6088H28.3463C28.3463 36.5257 27.034 36.7943 27.034 37.0628C26.6403 37.0628 27.034 37.0628 27.2965 36.7943L26.9028 36.9286C27.034 36.9286 27.1652 36.7943 27.2965 36.7943C26.7715 36.9286 26.5091 37.1971 26.2466 37.3314C26.1154 37.3314 26.3778 37.0628 25.8529 37.3314C25.1967 37.6 25.9841 37.4657 25.5904 37.6H25.1967C24.6718 37.8686 24.2781 38.0028 23.8844 38.1371C23.7532 38.1371 23.7532 38.2714 23.7532 38.2714C23.6219 38.2714 23.4907 38.4057 23.2282 38.54C23.097 38.54 22.9658 38.4057 22.8345 38.4057C22.7033 38.4057 22.7033 38.4057 22.5721 38.2714C22.4408 38.2714 22.1784 38.1371 22.1784 38.0028C22.3096 38.0028 22.0471 37.8686 22.0471 37.7343L21.391 37.4657C21.6534 37.6 21.6534 37.4657 21.7847 37.4657C21.6534 37.3314 21.5222 37.3314 21.391 37.3314C21.5222 37.3314 21.5222 37.3314 21.5222 37.3314L20.866 37.0628L20.9973 37.1971C20.866 37.0628 20.4723 36.9286 20.2099 36.7943H20.3411C20.4723 36.9286 20.6036 36.9286 20.7348 36.9286C20.3411 36.66 20.6036 36.7943 20.4723 36.66C20.2099 36.5257 19.9474 36.5257 20.0786 36.66C19.6849 36.5257 19.6849 36.3914 19.2912 36.2571H19.4225L19.0288 36.1228H19.2912C18.6351 35.72 19.16 36.2571 18.3726 35.8543V35.72C18.1101 35.5857 17.9789 35.72 17.7164 35.4514C17.454 35.3171 18.1101 35.72 17.454 35.4514C17.3227 35.3171 17.1915 35.1828 16.929 35.0486C16.7978 35.0486 16.929 35.1828 17.0603 35.1828C16.1416 34.78 16.6666 34.6457 15.7479 34.3771C16.0104 34.5114 15.4855 34.3771 16.1416 34.78C15.7479 34.6457 15.6167 34.3771 15.223 34.2428H15.4855C15.3542 34.2428 15.223 34.1086 15.0918 34.1086C14.5668 33.9743 14.3043 33.7057 14.0419 33.7057C14.3043 33.7057 13.7794 33.5714 13.6482 33.4371C14.0419 33.5714 14.5668 33.9743 14.6981 33.84C14.5668 33.7057 14.4356 33.7057 14.3043 33.5714C14.4356 33.5714 14.5668 33.7057 14.6981 33.7057C14.1731 33.4371 13.7794 33.3028 13.5169 33.1686L14.0419 33.4371C13.9106 33.5714 13.7794 33.3028 13.5169 33.3028C13.2545 33.0343 12.992 33.0343 12.7295 32.9H12.8608C12.2046 32.6314 12.2046 32.3628 11.9421 32.2286C11.6797 32.0943 11.286 31.96 11.4172 32.0943C11.1547 32.0943 12.2046 32.4971 11.8109 32.4971C11.5484 32.0943 11.0235 32.2286 10.3673 31.6914C10.761 31.8257 10.2361 31.5571 10.4986 31.5571C10.1049 31.4228 10.1049 31.4228 9.97364 31.4228L9.84241 31.2886C9.31747 31.1543 9.71117 31.2886 8.92377 31.02C9.18624 31.1543 8.6613 30.7514 8.92377 30.8857C8.79254 30.7514 8.53007 30.7514 8.39884 30.6171C7.61144 30.2143 7.8739 30.2143 7.0865 29.9457C6.16787 29.5428 5.118 29.0057 4.19936 28.6028L4.46183 28.7371C4.3306 28.6028 3.80566 28.4686 3.54319 28.3343C3.54319 28.3343 3.67443 28.3343 3.80566 28.4686C3.80566 28.4686 3.67443 28.3343 3.54319 28.2H3.41196L3.93689 27.9314C3.67443 27.7971 3.93689 28.0657 3.67443 27.9314C3.54319 27.6628 2.23086 27.1257 2.09962 26.8571C1.83716 26.8571 2.75579 27.1257 2.36209 27.1257C2.23086 26.9914 2.23086 26.9914 1.96839 26.8571V26.9914C1.57469 26.7228 1.31222 26.5886 0.918521 26.4543C0.52482 26.1857 0.262353 26.0514 -0.131348 25.9171C-0.000114039 25.7828 0.262353 25.6486 0.52482 25.5143C0.918521 25.2457 1.18099 25.1114 1.31222 24.9771C1.44346 24.9771 1.18099 25.1114 1.31222 25.1114C1.70592 24.5743 2.49332 24.5743 2.75579 24.3057C2.75579 24.44 3.54319 24.1714 3.28073 24.44L3.54319 24.3057C3.54319 24.44 2.88703 24.7086 2.75579 24.8428L1.96839 25.1114C1.96839 25.1114 1.96839 25.2457 2.09962 25.2457C1.96839 25.38 1.83716 25.38 1.96839 25.38C1.31222 25.6486 1.31222 25.6486 1.04975 25.7828C1.18099 25.9171 1.31222 25.9171 1.44346 26.0514L2.36209 26.4543C3.01826 26.7228 3.54319 27.1257 4.19936 27.3943C4.3306 27.3943 4.3306 27.3943 4.19936 27.3943C4.46183 27.6628 4.46183 27.5286 4.7243 27.5286L5.24923 27.9314C5.5117 27.9314 5.38046 27.9314 5.38046 27.7971C6.2991 28.2 7.0865 28.7371 7.74267 29.0057C7.8739 29.2743 7.61143 29.14 7.8739 29.4086C7.4802 29.14 8.79254 29.8114 8.53007 29.5428C8.79254 29.8114 9.57994 30.08 9.31747 30.2143C9.71117 30.3486 9.71117 30.2143 9.57994 30.2143C9.97364 30.4828 10.3673 30.6171 10.6298 30.7514C10.8923 30.8857 12.4671 31.6914 12.8608 31.96C12.5983 31.6914 12.8608 31.96 13.1232 31.96L12.992 31.8257L13.5169 32.0943C13.6482 32.0943 13.6482 32.0943 13.6482 32.2286C13.7794 32.2286 13.6482 32.2286 13.7794 32.3628C14.1731 32.4971 14.1731 32.4971 14.4356 32.6314L14.6981 32.7657C14.8293 32.9 14.0419 32.4971 14.5668 32.9C14.5668 32.9 14.9605 32.9 15.0918 33.0343C14.8293 32.9 14.8293 32.9 14.9605 33.0343L15.3542 33.3028L15.223 33.1686C16.4041 33.84 17.7164 34.5114 19.0288 35.1828C19.0288 35.3171 19.9474 35.72 19.8162 35.72C19.5537 35.5857 19.8162 35.8543 20.0786 35.9886C19.8162 35.8543 20.6036 36.1228 19.9474 35.72L20.4723 35.8543C20.866 35.72 21.7847 36.5257 22.7033 36.9286H22.5721C22.8345 37.0628 22.9658 37.0628 23.2282 37.1971C23.3595 37.1971 23.3595 37.3314 23.4907 37.3314C23.6219 37.3314 23.6219 37.3314 23.6219 37.4657L24.0156 37.3314H24.1469C24.6718 36.9286 24.803 36.9286 25.4592 36.66C25.5904 36.5257 25.7217 36.3914 26.2466 36.2571L27.034 35.8543C27.1652 36.1228 28.3463 35.1828 28.6088 35.3171C28.74 35.1828 29.265 34.9143 29.5274 34.78C29.5274 34.78 29.5274 34.78 29.6587 34.78C29.9212 34.5114 30.5773 34.5114 30.8398 34.2428C31.1023 34.1086 30.971 34.1086 30.8398 34.1086C31.3647 33.9743 32.0209 33.5714 32.1521 33.4371C32.4146 33.3028 32.2834 33.4371 32.4146 33.4371C32.8083 33.1686 32.2834 33.3028 32.9395 33.0343C32.8083 33.0343 32.6771 33.1686 32.8083 33.1686C33.0708 33.0343 33.5957 33.1686 33.8582 33.0343H33.7269C34.1206 32.7657 34.7768 32.7657 34.7768 32.6314H34.6456C35.433 32.3628 34.908 32.4971 35.6954 32.2286C35.9579 32.0943 36.2204 32.0943 36.3516 31.96H36.2204C36.6141 31.8257 36.6141 31.8257 37.139 31.5571L37.4015 31.4228C37.4015 31.2886 38.3201 31.02 38.5826 30.8857C38.3201 31.02 38.4513 31.02 38.5826 31.02C38.7138 30.8857 38.845 30.7514 39.1075 30.7514C39.1075 30.6171 39.1075 30.4828 39.6324 30.2143C39.5012 30.2143 39.37 30.3486 39.5012 30.3486C39.5012 30.3486 39.6324 30.2143 39.7637 30.2143C39.7637 30.2143 39.6324 30.3486 39.7637 30.3486C40.0261 30.08 40.4198 30.08 40.9448 29.8114C40.8135 29.9457 40.9448 29.9457 41.076 29.9457C41.076 29.8114 41.8634 29.8114 41.6009 29.6771C42.6508 29.4086 44.2256 28.6028 44.6193 28.6028C44.7505 28.6028 45.013 28.4686 45.1442 28.3343V28.4686C45.5379 28.2 45.5379 28.2 46.0629 27.9314C45.8004 28.0657 45.9316 28.0657 46.1941 28.0657L46.5878 27.7971H46.719C46.8503 27.6628 47.1128 27.6628 47.244 27.5286C47.3752 27.3943 48.0314 27.1257 48.0314 26.9914C48.2938 26.9914 48.5563 26.7228 48.6875 26.8571C48.6875 26.8571 48.8188 26.7228 48.95 26.7228C48.8188 26.7228 48.8188 26.7228 48.95 26.5886C48.95 26.5886 49.0813 26.5886 49.0813 26.4543C49.0813 26.4543 49.0813 26.4543 48.95 26.4543H49.0813H49.2125C49.2125 26.4543 49.2125 26.4543 49.0813 26.32C49.0813 26.32 49.0813 26.32 48.8188 26.1857C48.5563 25.9171 48.2938 25.7828 48.0314 25.5143C48.1626 25.6486 48.1626 25.6486 48.2938 25.6486C48.1626 25.5143 47.6377 24.9771 47.5065 24.8428L47.3752 24.7086V24.5743L46.9815 24.0371V23.7686L47.3752 24.1714L47.244 23.9028L48.2938 24.8428C48.1626 24.8428 48.2939 24.9771 48.4251 24.9771ZM13.6482 32.2286C13.5169 32.0943 13.5169 32.0943 13.6482 32.2286V32.2286ZM32.0209 34.3771C31.8897 34.3771 31.7584 34.3771 31.6272 34.5114C31.7584 34.5114 31.8897 34.3771 32.0209 34.3771ZM39.5012 31.02C39.37 31.02 39.2387 31.1543 39.2387 31.1543C39.37 31.02 39.5012 31.02 39.5012 31.02Z" fill="white"/>
<path d="M49.0812 27.26C49.7374 26.9915 49.2125 27.1258 49.8686 26.8572C49.9999 26.7229 49.3437 26.9915 49.4749 26.9915C49.0812 27.26 48.8188 27.26 49.0812 27.26Z" fill="white"/>
<path d="M3.28076 24.7086L3.54323 24.5743L3.412 24.7086H3.28076Z" fill="white"/>
<path d="M29.265 35.72V35.5857H29.1338L29.265 35.72Z" fill="white"/>
<path d="M26.2468 37.0629C26.3781 37.0629 26.5093 36.9286 26.6405 36.9286C26.3781 36.9286 26.1156 36.9286 26.2468 37.0629Z" fill="white"/>
</g>
<defs>
<clipPath id="clip0_73_642">
<rect width="50" height="47" fill="white"/>
</clipPath>
</defs>
</svg>
