<svg width="29" height="46" viewBox="0 0 29 46" fill="none" xmlns="http://www.w3.org/2000/svg">
<g clip-path="url(#clip0_73_785)">
<path d="M3.88779 2.15967L3.78271 2.26765C3.78271 2.15967 3.88779 2.15967 3.88779 2.15967Z" fill="white"/>
<path d="M25.6376 1.94363C25.4274 1.83565 25.2173 1.61969 25.2173 1.72767L25.3224 1.83565C25.4274 1.83565 25.5325 1.83565 25.6376 1.94363Z" fill="white"/>
<path d="M0.630371 6.37087L0.840516 6.47885C0.630371 6.26289 0.735444 6.37087 0.630371 6.37087Z" fill="white"/>
<path d="M4.20273 1.61975C4.09766 1.61975 4.09766 1.72773 4.09766 1.72773C4.09766 1.61975 4.20273 1.61975 4.20273 1.61975Z" fill="white"/>
<path d="M28.1594 7.23474C28.0543 7.34272 28.0543 7.34272 27.9492 7.4507C27.9492 7.4507 28.0543 7.34272 28.1594 7.23474Z" fill="white"/>
<path d="M21.3296 1.07983C21.5397 1.07983 21.6448 1.07983 21.855 1.18782L21.7499 1.07983H21.3296Z" fill="white"/>
<path d="M27.7392 3.67138C27.7392 3.67138 28.0544 3.77936 27.9493 3.67138C27.529 3.23946 26.8986 3.02349 26.8986 3.02349C27.1087 3.13147 27.4239 3.34744 27.7392 3.67138C27.6341 3.5634 27.1087 3.13147 27.1087 3.23945C26.8986 3.02349 26.5834 2.91551 26.3732 2.69955C26.4783 2.80753 26.7935 2.91551 26.6884 2.80753C26.2681 2.69955 26.4783 2.80753 26.2681 2.59157C26.4783 2.69955 26.7935 2.80753 27.1087 2.91551C27.3189 3.02349 27.529 3.13147 27.7392 3.23945L27.3189 3.02349L27.2138 2.91551C26.6884 2.59157 26.058 2.48359 25.8479 2.48359C25.5326 2.26762 25.6377 2.26762 25.7428 2.26762C25.2174 1.94368 25.1123 2.15964 24.4819 1.8357C24.587 1.8357 24.6921 1.94368 24.6921 1.94368C24.587 1.8357 23.9566 1.72772 24.0616 1.72772C23.9566 1.61974 23.8515 1.51176 23.9566 1.61974C23.7464 1.61974 23.5363 1.51176 23.3261 1.51176C23.4312 1.51176 23.4312 1.40377 23.4312 1.40377C23.221 1.29579 23.0109 1.40377 23.116 1.40377C22.6957 1.18781 22.8008 1.29579 22.3805 1.07983C22.2754 1.07983 22.3805 1.18781 22.4855 1.18781C22.1703 1.07983 21.9602 1.07983 21.8551 1.07983C22.3805 1.18781 22.0652 0.971849 22.1703 0.863868C21.75 0.863868 21.3297 0.863868 21.0145 0.863868L21.1196 0.755887C21.0145 0.755887 19.6486 0.539924 19.0181 0.539924H19.1232C19.2283 0.539924 18.7029 0.431943 18.4928 0.431943C18.4928 0.431943 18.5979 0.431943 18.7029 0.431943C18.2826 0.323962 18.1776 0.539924 17.6522 0.431943C18.0725 0.431943 18.1776 0.431943 18.0725 0.431943C17.7573 0.431943 17.0218 0.323962 17.1268 0.431943C16.9167 0.431943 16.7066 0.431943 16.7066 0.323962H15.866C15.971 0.323962 15.971 0.323962 15.7609 0.323962C16.1812 0.323962 16.7066 0.323962 16.9167 0.323962C16.9167 0.323962 16.8116 0.21598 17.0218 0.21598C16.1812 0.21598 15.6558 0.21598 15.1305 0.323962H14.395L14.2899 0.21598C14.1848 0.21598 14.0797 0.21598 14.0797 0.21598C13.9747 0.21598 13.9747 0.21598 13.8696 0.21598C13.8696 0.21598 13.9747 0.107999 14.0797 0.107999C14.1848 0.107999 14.1848 0.107999 14.2899 0.107999C14.395 0.107999 14.5 1.80267e-05 14.2899 1.80267e-05H14.1848C14.2899 1.80267e-05 14.2899 1.80267e-05 14.2899 1.80267e-05H13.6594C13.7645 1.80267e-05 13.8696 1.80267e-05 13.9747 1.80267e-05C13.5544 1.80267e-05 13.1341 0.107999 13.5544 0.107999H13.1341C12.6087 0.21598 12.7138 0.21598 12.0834 0.21598C12.0834 0.21598 12.1884 0.21598 12.0834 0.107999C11.6631 0.21598 10.9276 0.107999 10.8225 0.21598C10.4022 0.21598 10.7174 0.323962 10.4022 0.323962L10.1921 0.647905C10.087 0.647905 10.4022 0.539924 10.087 0.647905C9.56162 0.755887 9.2464 0.863868 8.82611 0.863868C8.19568 0.971849 9.14133 0.863868 8.61597 0.971849C8.5109 0.971849 8.40583 0.971849 8.09061 0.971849C7.88046 1.07983 7.88046 1.07983 7.56525 1.18781V1.07983C7.3551 1.18781 7.03988 1.18781 7.03988 1.18781C6.82974 1.29579 6.72467 1.29579 6.61959 1.29579C6.1993 1.40377 6.93481 1.29579 7.03988 1.29579C6.61959 1.40377 6.30438 1.51176 6.09423 1.51176L6.40945 1.40377C5.67394 1.51176 5.67394 1.61974 5.35872 1.61974C5.67394 1.51176 5.98916 1.40377 5.77901 1.40377C5.67394 1.40377 5.56887 1.51176 5.35872 1.51176C5.25365 1.61974 5.04351 1.72772 4.93843 1.72772C4.72829 1.8357 4.51814 1.8357 4.308 1.94368C4.41307 1.94368 4.41307 1.94368 4.308 1.94368L3.88771 2.15964C3.99278 2.05166 3.88771 2.15964 3.67757 2.15964C3.04713 2.48359 3.25728 2.48359 2.83699 2.69955C2.94206 2.69955 2.94206 2.69955 2.94206 2.59157L2.73191 2.69955C2.73191 2.80753 2.4167 2.91551 2.10148 3.13147C1.78626 3.34744 1.57612 3.5634 1.57612 3.5634C1.2609 3.77936 1.57612 3.5634 1.89133 3.23945L1.57612 3.45542C1.68119 3.34744 1.78626 3.34744 1.89133 3.23945C1.47104 3.45542 1.15583 3.77936 1.05075 3.99532C0.945681 4.1033 1.05075 3.88734 0.735536 4.31927C0.420319 4.85917 0.840608 4.21129 0.735536 4.53523L0.525391 4.85917C0.420319 5.2911 0.420319 5.72302 0.630464 6.15495C0.630464 6.26293 0.735536 6.26293 0.735536 6.26293C0.945681 6.69485 1.36597 7.0188 1.68119 7.23476C1.57612 7.23476 1.78626 7.45072 1.78626 7.5587C1.99641 7.66669 2.20655 7.77467 2.4167 7.88265C2.10148 7.66669 2.10148 7.77467 2.10148 7.77467C2.31162 7.88265 2.4167 7.88265 2.52177 7.99063C2.4167 7.99063 2.31162 7.88265 2.4167 7.99063C2.62684 8.09861 2.83699 8.20659 3.04713 8.31457C3.04713 8.31457 2.94206 8.20659 2.83699 8.20659C3.04713 8.31457 3.36235 8.42255 3.57249 8.53054H3.46742C3.36235 8.42255 3.25728 8.31457 3.1522 8.31457C3.57249 8.53053 3.25728 8.42255 3.46742 8.53054C3.78264 8.63852 3.88771 8.63852 3.78264 8.63852C4.20293 8.7465 4.308 8.85448 4.72829 8.96246H4.62322L4.93843 9.07044H4.62322C5.35872 9.2864 4.72829 9.07044 5.56887 9.2864C5.88409 9.39439 5.98916 9.2864 6.1993 9.39438C6.51452 9.39438 5.67394 9.17842 6.40945 9.39438C6.51452 9.50237 6.82974 9.50237 6.93481 9.61035C7.14496 9.61035 6.82974 9.50237 6.72467 9.50237C7.77539 9.71833 7.3551 9.71833 8.30075 9.82631C7.98554 9.82631 8.5109 9.82631 7.77539 9.71833C8.19568 9.71833 8.5109 9.93429 8.82611 9.93429H8.61597C8.72104 9.93429 8.93119 9.93429 9.03626 9.93429C9.56162 9.93429 9.87684 10.0423 10.1921 10.0423C9.98191 10.0423 10.5073 10.0423 10.7174 10.1503C10.2971 10.1503 9.56162 10.0423 9.45655 10.1503C9.6667 10.1503 9.77177 10.1503 9.98191 10.2582C9.87684 10.2582 9.66669 10.2582 9.66669 10.2582C10.2971 10.3662 10.6123 10.3662 10.9276 10.3662H10.2971C10.4022 10.2582 10.6123 10.3662 10.8225 10.3662C11.1377 10.4742 11.3479 10.3662 11.6631 10.4742C11.558 10.4742 11.558 10.4742 11.558 10.4742C12.2935 10.4742 12.3986 10.6902 12.7138 10.6902C13.029 10.6902 13.5544 10.6902 13.3442 10.6902C13.5544 10.6902 12.3986 10.6902 12.8189 10.5822C13.2392 10.6902 13.6594 10.5822 14.5 10.6902C14.0797 10.6902 14.7102 10.7981 14.395 10.7981C14.8152 10.7981 14.8152 10.7981 15.0254 10.6902H15.1305C15.6558 10.5822 15.2355 10.5822 16.0761 10.5822C15.7609 10.5822 16.3913 10.5822 16.1812 10.6902C16.3913 10.6902 16.6015 10.6902 16.8116 10.5822C17.6522 10.4742 17.5471 10.5822 18.2826 10.4742H18.1776C19.1232 10.3662 20.3841 10.1503 21.4348 9.93429L21.0145 9.71833C21.2247 9.71833 21.645 9.50237 21.9602 9.50237C21.8551 9.50237 21.75 9.50237 21.75 9.61035C21.75 9.61035 21.8551 9.61035 22.1703 9.61035H22.2754H22.3805C22.8008 9.50237 22.2754 9.61035 22.5906 9.50237C22.8008 9.50237 24.1667 9.07044 24.4819 9.07044C24.6921 8.96246 23.7464 9.2864 24.0616 9.17842C24.1667 9.17842 24.2718 9.17842 24.4819 9.07044H24.3768C25.4276 8.7465 25.8479 8.53054 26.7935 8.09861C27.0037 7.77467 27.2138 7.66669 27.3189 7.5587C27.7392 7.12678 28.2645 6.80284 28.4747 6.37091C28.5797 6.47889 28.895 5.72302 28.895 6.04697C28.895 5.93899 29 5.831 29 5.72302C29.1051 5.831 28.6848 6.58687 28.5797 6.69485C28.3696 6.91082 28.1595 7.12678 27.9493 7.34274C27.9493 7.34274 27.9493 7.45072 28.0544 7.34274C27.7392 7.5587 27.6341 7.66669 27.8442 7.5587C27.0037 8.20659 26.058 8.63852 25.1123 8.96246C24.1667 9.39438 23.221 9.71833 22.2754 9.82631C21.9602 9.82631 21.9602 9.93429 21.75 9.93429C21.5399 9.93429 21.4348 9.93429 21.2247 9.93429C21.0145 10.0423 21.2247 10.0423 21.2247 10.0423C20.279 10.2582 19.2283 10.2582 18.4928 10.3662C18.2826 10.3662 18.5979 10.2582 18.1776 10.3662C18.5979 10.3662 17.2319 10.4742 17.4421 10.4742C17.1268 10.3662 16.1812 10.4742 16.3913 10.3662C15.971 10.3662 16.0761 10.4742 16.1812 10.4742C15.7609 10.4742 15.3406 10.4742 14.9203 10.5822C14.7102 10.5822 12.7138 10.5822 12.3986 10.4742C12.7138 10.5822 12.3986 10.4742 12.0834 10.4742L12.2935 10.5822H11.6631C11.558 10.5822 11.4529 10.5822 11.4529 10.5822C11.3479 10.5822 11.4529 10.5822 11.2428 10.4742C10.8225 10.4742 10.8225 10.4742 10.6123 10.4742H10.7174H10.4022C10.1921 10.4742 11.1377 10.4742 10.5073 10.3662C10.5073 10.3662 10.087 10.3662 9.87684 10.3662C10.1921 10.3662 10.1921 10.3662 10.087 10.3662H9.56162L9.66669 10.4742C8.30075 10.2582 6.82974 9.93429 5.35872 9.50237C5.35872 9.50237 4.308 9.17842 4.51814 9.17842H4.62322C4.93843 9.2864 4.41307 9.07044 4.20293 8.96246C4.51814 9.07044 3.67756 8.85448 4.308 9.17842L3.78264 8.96246C3.36235 8.96246 2.31162 8.31457 1.57612 7.77467C1.68119 7.77467 1.68119 7.77467 1.68119 7.77467C0.840609 7.45072 0.315246 6.47889 0.210174 6.26293V6.15495C2.87965e-05 5.50706 -0.105044 5.2911 0.210174 4.53523C0.210174 4.31927 0.315246 4.1033 0.735536 3.67138C1.05075 3.45542 1.2609 3.23945 1.47104 3.02349C1.57612 3.13147 2.73191 2.15964 3.04713 2.15964C3.1522 2.05166 3.78264 1.8357 3.99278 1.72772C3.99278 1.72772 3.99278 1.72772 4.09786 1.72772C4.41307 1.51176 5.04351 1.40377 5.35872 1.29579C5.56887 1.18781 5.4638 1.18781 5.35872 1.18781C5.88409 1.07983 6.72467 0.755887 6.82974 0.755887C7.14496 0.647905 6.93481 0.755887 7.03988 0.755887C7.56525 0.647905 6.93481 0.647905 7.67032 0.539924C7.56525 0.539924 7.46017 0.647905 7.46017 0.539924C7.77539 0.539924 8.19568 0.539924 8.5109 0.539924L8.40583 0.647905C8.93119 0.539924 9.56162 0.539924 9.66669 0.431943C10.5073 0.431943 9.98191 0.323962 10.8225 0.323962C11.2428 0.323962 11.3479 0.323962 11.558 0.21598H11.4529C11.8732 0.21598 11.9783 0.21598 12.3986 0.107999C12.5037 0.107999 12.7138 0.107999 12.7138 0.107999C12.7138 1.80304e-05 13.7645 1.80267e-05 13.9747 1.80267e-05C13.5544 1.80267e-05 13.7645 1.80304e-05 13.8696 0.107999C14.0797 0.107999 14.2899 1.80304e-05 14.5 0.107999C14.5 1.80304e-05 14.6051 1.80267e-05 15.2355 1.80267e-05C15.1305 1.80267e-05 15.0254 1.80267e-05 15.0254 1.80267e-05C15.1305 1.80267e-05 15.2355 1.80267e-05 15.2355 1.80267e-05C15.3406 1.80267e-05 15.1305 1.80267e-05 15.1305 1.80267e-05C15.5508 -0.107963 15.866 1.80267e-05 16.3913 1.80267e-05C16.1812 1.80267e-05 16.3913 1.80304e-05 16.3913 0.107999C16.3913 1.80304e-05 17.2319 0.21598 17.0218 0.107999C18.1776 0.21598 19.9638 0.431943 20.3841 0.539924C20.4892 0.539924 20.8044 0.647905 21.0145 0.647905C21.5399 0.647905 21.4348 0.755887 22.0652 0.755887C21.75 0.755887 21.8551 0.755887 22.1703 0.863868C22.2754 0.863868 22.4855 0.863868 22.5906 0.863868L22.8008 1.07983C23.0109 1.07983 23.221 1.18781 23.3261 1.18781C23.5363 1.18781 24.1667 1.40377 24.2718 1.40377C24.4819 1.51176 24.7971 1.51176 24.9022 1.72772C25.0073 1.72772 25.1123 1.72772 25.1123 1.8357C25.0073 1.72772 25.0073 1.72772 25.2174 1.8357L25.3225 1.94368C25.5326 2.05166 25.6377 2.05166 25.7428 2.15964C25.7428 2.15964 25.6377 2.05166 25.5326 2.05166C25.6377 2.05166 25.6377 2.15964 25.7428 2.15964C25.7428 2.15964 25.7428 2.15964 25.8479 2.15964C25.9529 2.15964 26.058 2.15964 26.2681 2.26762C26.7935 2.59157 27.6341 2.91551 28.0544 3.5634C28.0544 3.34744 27.9493 3.23945 27.8442 3.23945C27.9493 3.34744 28.0544 3.45542 28.2645 3.67138C28.3696 3.88734 28.5797 4.1033 28.5797 4.21129C28.5797 4.31927 28.5797 4.42725 28.6848 4.42725L28.7899 4.75119V5.07514V5.2911C28.7899 5.07514 28.7899 4.85917 28.6848 4.75119C28.6848 4.85917 28.6848 4.96715 28.6848 5.07514C28.6848 4.64321 28.3696 4.21129 28.0544 3.77936C27.9493 3.77936 27.7392 3.67138 27.7392 3.67138ZM11.4529 10.5822C11.6631 10.5822 11.6631 10.5822 11.4529 10.5822V10.5822ZM6.51452 1.29579C6.30438 1.29579 6.1993 1.29579 6.09423 1.40377C6.30438 1.40377 6.40945 1.29579 6.51452 1.29579Z" fill="white"/>
<path d="M25.2176 2.15967C25.6379 2.37563 25.3227 2.15967 25.743 2.37563C25.8481 2.37563 25.4278 2.15967 25.5328 2.26765C25.2176 2.15967 25.1126 2.15967 25.2176 2.15967Z" fill="white"/>
<path d="M28.79 6.26296L29.0002 6.047L28.8951 6.15498L28.79 6.26296Z" fill="white"/>
<path d="M0.945517 4.21127C1.05059 4.10329 1.05059 3.99531 1.15566 3.88733C0.945517 4.10329 0.840445 4.21127 0.945517 4.21127Z" fill="white"/>
<path d="M0.945801 7.9906L1.05087 8.20656C0.945801 8.09858 0.945801 8.09858 0.945801 7.9906Z" fill="white"/>
<path d="M24.377 1.40372C24.0618 1.29574 23.7466 1.07977 23.8517 1.18775L23.9567 1.29574C24.0618 1.29574 24.272 1.40372 24.377 1.40372Z" fill="white"/>
<path d="M9.35156 0.647898C9.45663 0.647898 9.56171 0.647898 9.66678 0.539917C9.56171 0.539917 9.45663 0.539917 9.35156 0.647898Z" fill="white"/>
<path d="M4.20303 15.5494L4.3081 15.7653C4.09795 15.3334 4.20303 15.5494 4.20303 15.5494Z" fill="white"/>
<path d="M0.42041 7.55872C0.42041 7.6667 0.525483 7.77468 0.525483 7.77468C0.42041 7.55872 0.42041 7.55872 0.42041 7.55872Z" fill="white"/>
<path d="M28.4747 7.88269C28.4747 7.99067 28.3696 8.09865 28.3696 8.20663C28.3696 8.20663 28.3696 8.09865 28.4747 7.88269Z" fill="white"/>
<path d="M18.7031 0.647827C19.0183 0.647827 19.1234 0.647827 19.3336 0.755808L19.1234 0.647827H18.7031Z" fill="white"/>
<path d="M27.3188 3.23942C27.3188 3.23942 27.6341 3.3474 27.529 3.23942C26.8986 2.69951 26.058 2.48355 26.058 2.59153C26.4783 2.80749 26.7935 2.91547 27.2138 3.13144C27.2138 3.13144 26.3732 2.69951 26.4783 2.80749C26.163 2.59153 25.7428 2.48355 25.4275 2.26759C25.5326 2.26759 25.9529 2.48355 25.8478 2.37557C25.3225 2.1596 25.5326 2.26759 25.2174 2.1596C25.7428 2.26759 26.7935 2.69951 27.2138 2.80749L26.6884 2.48355L26.5833 2.37557C25.8478 2.05162 25.1123 1.94364 24.9022 1.94364C24.4819 1.72768 24.692 1.72768 24.7971 1.72768C23.9565 1.40374 23.9565 1.6197 23.0109 1.29575L23.3261 1.40374C23.1159 1.40374 22.3804 1.18777 22.4855 1.18777C22.1703 1.18777 21.9601 1.07979 22.1703 1.07979H21.4348C21.5399 1.07979 21.5399 0.971811 21.5399 0.971811C21.2246 0.86383 21.0145 0.971811 21.2246 0.971811C20.5942 0.755848 20.8043 0.86383 20.279 0.755848C20.0688 0.755848 20.279 0.86383 20.3841 0.86383C19.9638 0.86383 19.7536 0.755848 19.5435 0.755848C20.279 0.86383 19.7536 0.539886 19.8587 0.539886C19.3333 0.539886 18.808 0.539886 18.2826 0.647867L18.4928 0.539886C18.3877 0.539886 16.6014 0.431905 15.7609 0.431905H15.8659C16.0761 0.431905 15.3406 0.323924 15.0254 0.431905C15.0254 0.431905 15.1304 0.431905 15.2355 0.431905C14.7101 0.323924 14.5 0.539886 13.9746 0.431905C14.5 0.431905 14.6051 0.431905 14.6051 0.323924C14.1848 0.323924 13.2391 0.323924 13.4493 0.431905C13.1341 0.431905 12.9239 0.431905 12.9239 0.431905L11.8732 0.539886C11.9783 0.539886 11.9783 0.539886 11.663 0.539886C12.2935 0.539886 12.8188 0.431905 13.1341 0.431905C13.1341 0.323924 12.9239 0.323924 13.2391 0.323924C12.0833 0.431905 11.4529 0.539886 10.8225 0.647867C10.5072 0.647867 10.192 0.647867 9.87681 0.755848H9.66667C9.56159 0.755848 9.45652 0.755848 9.45652 0.755848C9.45652 0.755848 9.45652 0.755848 9.56159 0.755848C9.45652 0.755848 9.35145 0.755848 9.35145 0.755848C9.35145 0.755848 9.45652 0.647867 9.66667 0.647867C9.77174 0.647867 9.87681 0.647867 9.98188 0.647867C10.192 0.539886 10.2971 0.539886 10.087 0.539886H9.98188C10.087 0.539886 10.192 0.431905 10.087 0.431905L8.93116 0.647867C9.03623 0.647867 9.1413 0.647867 9.35145 0.647867C8.93116 0.755849 8.30072 0.86383 8.82609 0.86383H8.19565C7.35507 1.07979 7.56522 1.07979 6.82971 1.29575C6.82971 1.29575 7.03986 1.18777 6.82971 1.18777C6.30435 1.40374 5.3587 1.51172 5.25362 1.6197C4.83333 1.72768 5.04348 1.72768 4.83333 1.83566L4.41304 1.94364C4.30797 1.94364 4.72826 1.83566 4.30797 1.94364C3.67754 2.26759 3.25725 2.37557 2.73188 2.69951C2.10145 3.13144 3.15217 2.59153 2.52174 2.91547C2.41667 2.91547 2.31159 2.91547 1.8913 3.13144C1.78623 3.3474 1.78623 3.3474 1.47101 3.56336V3.45538C1.1558 3.77932 1.05072 3.99529 0.945652 3.99529C0.735507 4.31923 0.735507 4.31923 0.630435 4.53519C0.525362 4.75115 0.630435 4.75115 0.735507 4.53519C0.84058 4.42721 0.945652 4.21125 1.05072 4.10327C0.84058 4.31923 0.735507 4.53519 0.630435 4.64317C0.525362 4.85914 0.525362 4.96712 0.42029 5.18308C0.42029 5.29106 0.42029 5.39904 0.42029 5.50702C0.42029 5.72298 0.42029 5.83097 0.42029 6.04693C0.42029 5.72298 0.315217 5.29106 0.315217 5.50702C0.315217 5.72298 0.42029 5.83097 0.42029 6.04693C0.315217 5.72298 0.42029 6.15491 0.42029 6.04693C0.42029 6.15491 0.525362 6.47885 0.630435 6.58683C0.735507 6.91078 0.735507 7.12674 0.84058 7.45068C0.84058 7.3427 0.84058 7.3427 0.84058 7.45068L1.05072 7.99059C0.945652 7.77463 1.05072 7.99059 1.05072 8.31453C1.26087 9.0704 1.36594 8.85444 1.57609 9.50233C1.57609 9.39435 1.57609 9.39435 1.47101 9.28637L1.57609 9.61031C1.68116 9.61031 2.31159 11.338 2.41667 11.446C2.52174 11.8779 2.41667 11.446 2.10145 11.0141L2.20652 11.446C2.10145 11.23 2.10145 11.122 1.99638 10.7981C2.20652 11.446 2.52174 11.9859 2.62681 12.2019C2.73188 12.4178 2.41667 12.0939 2.73188 12.7418C3.15217 13.6056 2.73188 12.5258 2.94203 13.0657L3.15217 13.4976C3.46739 14.1455 3.78261 14.6854 3.99275 15.2253C4.09783 15.3333 4.09783 15.4413 4.09783 15.4413C4.41304 16.0892 4.83333 16.6291 5.04348 17.061C5.04348 17.061 5.25362 17.385 5.25362 17.4929C5.46377 17.7089 5.56884 18.0328 5.77899 18.2488C5.56884 17.9249 5.56884 17.9249 5.46377 17.9249C5.56884 18.1408 5.67391 18.2488 5.77899 18.4648C5.67391 18.3568 5.67391 18.2488 5.67391 18.4648C5.88406 18.6807 6.0942 19.0047 6.30435 19.2206C6.19928 19.1127 6.19928 19.1127 6.19928 19.0047C6.30435 19.2206 6.61957 19.6526 6.82971 19.8685L6.72464 19.7605C6.51449 19.4366 6.40942 19.3286 6.30435 19.2206C6.72464 19.7605 6.40942 19.3286 6.51449 19.6526C6.82971 19.9765 6.93478 20.1925 6.93478 20.0845C7.25 20.4084 7.35507 20.5164 7.77536 20.9483H7.67029C7.77536 21.0563 7.88043 21.1643 7.98551 21.2723C7.88043 21.1643 7.77536 21.0563 7.67029 21.0563C8.30072 21.8122 7.88043 21.1643 8.51087 21.9202C8.82609 22.2441 8.93116 22.2441 9.1413 22.4601C9.45652 22.676 8.72101 21.9202 9.35145 22.5681C9.45652 22.676 9.66667 22.892 9.87681 23.108C10.087 23.2159 9.77174 23 9.66667 22.892C10.7174 23.6479 10.192 23.5399 11.2428 24.0798C10.9275 23.8638 11.558 24.1878 10.7174 23.6479C11.1377 23.8638 11.4529 24.1878 11.9783 24.4037L11.663 24.2958C11.8732 24.4037 11.9783 24.4037 12.0833 24.5117C12.7138 24.7277 13.1341 24.9436 13.5543 24.9436C13.3442 24.9436 13.9746 25.0516 14.1848 25.0516C13.6594 25.1596 12.8188 24.8357 12.7138 24.8357C12.9239 24.9436 13.1341 24.9436 13.3442 25.0516C13.2391 25.0516 12.9239 25.0516 12.9239 24.9436C13.6594 25.1596 14.0797 25.1596 14.6051 25.1596C14.2899 25.1596 14.0797 25.1596 13.7645 25.1596C13.8696 25.0516 14.1848 25.1596 14.3949 25.1596C14.8152 25.1596 15.1304 25.1596 15.4457 25.0516C15.3406 25.0516 15.3406 25.0516 15.2355 25.0516C16.0761 24.9436 16.3913 24.8357 16.7065 24.7277C17.0217 24.6197 17.6522 24.2958 17.442 24.2958C17.6522 24.1878 16.3913 24.8357 16.8116 24.5117C17.337 24.4037 17.7572 24.0798 18.7029 23.4319C18.2826 23.7558 19.0181 23.3239 18.5978 23.5399C19.0181 23.2159 19.0181 23.2159 19.2283 23L19.3333 22.892C19.8587 22.3521 19.4384 22.784 20.1739 21.9202C19.9638 22.2441 20.4891 21.5962 20.3841 21.8122C20.5942 21.5962 20.8043 21.3803 20.9094 21.1643C21.6449 20.3004 21.5399 20.5164 22.1703 19.7605L22.0652 19.8685C22.8007 18.7887 23.7464 17.385 24.3768 16.1972L24.1667 16.5211C24.2717 16.3051 24.587 15.7652 24.7971 15.4413C24.7971 15.5493 24.692 15.6573 24.692 15.7652C24.692 15.7652 24.7971 15.6573 25.0072 15.3333V15.2253L25.1123 15.1174C25.3225 14.6854 25.0072 15.2253 25.2174 14.7934C25.4275 14.5774 26.163 12.8497 26.4783 12.5258C26.5833 12.2019 26.058 13.3897 26.163 13.0657C26.2681 12.9577 26.2681 12.8497 26.3732 12.6338L26.2681 12.7418C26.8986 11.338 27.1087 10.7981 27.6341 9.61031C27.8442 9.17838 27.8442 8.96242 27.9493 8.74646C27.9493 8.63848 27.9493 8.96242 27.9493 8.85444C28.1594 7.99059 28.5797 7.23472 28.5797 6.69482C28.6848 6.8028 29 5.72298 28.8949 6.15491C28.8949 6.04693 28.8949 5.93895 28.8949 5.83097C29 5.93895 28.6848 6.91078 28.6848 7.12674C28.5797 7.45068 28.4746 7.77463 28.3696 8.20655C28.3696 8.20655 28.3696 8.31453 28.4746 8.20655C28.3696 8.42251 28.3696 8.74646 28.4746 8.31453C27.529 10.7981 26.5833 13.2817 25.3225 15.5493C25.2174 15.6573 25.3225 15.6573 25.3225 15.5493C25.0072 15.9812 25.1123 15.9812 25.0072 16.1972L24.587 16.7371C24.4819 16.953 24.587 16.8451 24.587 16.8451C23.9565 18.0328 23.1159 19.0047 22.5906 19.8685C22.3804 20.0845 22.5906 19.7605 22.2754 20.0845C22.6957 19.6526 21.5399 21.1643 21.75 20.8404C21.4348 21.1643 20.6993 22.0281 20.6993 21.8122C20.279 22.1361 20.3841 22.1361 20.4891 22.0281C20.0688 22.4601 19.6486 22.784 19.3333 23.108C19.2283 23.2159 18.5978 23.6479 17.9674 24.0798C17.337 24.5117 16.6014 24.7277 16.2862 24.7277C16.7065 24.6197 16.2862 24.7277 15.971 24.9436H16.2862C16.0761 25.0516 15.7609 25.0516 15.4457 25.1596C15.2355 25.1596 15.2355 25.1596 15.2355 25.1596C15.1304 25.1596 15.2355 25.1596 14.9203 25.1596C14.3949 25.1596 14.2899 25.1596 13.9746 25.2676H14.0797H13.6594C13.3442 25.2676 14.6051 25.2676 13.7645 25.1596C13.7645 25.1596 13.2391 25.1596 12.9239 25.0516C13.3442 25.1596 13.3442 25.0516 13.1341 25.0516C12.9239 25.0516 12.7138 24.9436 12.5036 24.8357L12.7138 24.9436C10.9275 24.4037 9.35145 23.108 7.98551 21.7042C8.09058 21.7042 7.03986 20.6244 7.25 20.7324V20.8404C7.56522 21.1643 7.25 20.7324 6.93478 20.4084C7.14493 20.7324 6.40942 19.8685 7.03986 20.6244C6.82971 20.4084 6.72464 20.1925 6.51449 20.0845C6.0942 19.8685 5.25362 18.3568 4.62319 17.385C4.62319 17.4929 4.72826 17.4929 4.72826 17.4929C4.09783 16.6291 3.57246 15.4413 3.46739 15.2253V15.1174C3.0471 14.3615 2.94203 14.2535 2.52174 13.2817C2.41667 13.0657 2.20652 12.8497 1.99638 12.2019L1.57609 11.122C1.68116 11.122 0.735507 9.28636 0.84058 8.96242C0.84058 8.85444 0.630435 8.09857 0.525362 7.77463C0.525362 7.77463 0.525362 7.77463 0.525362 7.66665C0.315217 7.23472 0.105072 6.37087 0.105072 5.93895C0 5.615 0 5.72298 0 5.83097C0 5.50702 0 4.96712 0.105072 4.64317C0.210145 4.21125 0.42029 3.8873 0.525362 3.8873C0.84058 3.56336 0.630435 3.77932 0.84058 3.67134C1.36594 3.13144 0.630435 3.67134 1.36594 3.02345C1.26087 3.13144 1.1558 3.23942 1.26087 3.13144C1.36594 3.02345 1.68116 2.91547 1.8913 2.80749C2.10145 2.69951 2.31159 2.59153 2.52174 2.48355L2.20652 2.69951C2.73188 2.37557 3.57246 2.1596 3.67754 2.05162H3.57246C4.62319 1.72768 3.99275 1.83566 5.04348 1.51172C5.46377 1.29575 5.77899 1.40374 5.98913 1.18777H5.77899C6.30435 1.07979 6.40942 0.971811 7.03986 0.86383C7.14493 0.86383 7.35507 0.755848 7.46014 0.755848C7.46014 0.647867 8.82609 0.431905 9.1413 0.431905C8.61594 0.539886 8.82609 0.539886 9.03623 0.539886C9.24638 0.431905 9.45652 0.431905 9.87681 0.431905C9.87681 0.323924 9.98188 0.215942 10.7174 0.215942C10.6123 0.215942 10.4022 0.215942 10.5072 0.215942C10.6123 0.215942 10.7174 0.215942 10.8225 0.215942C10.9275 0.215942 10.6123 0.215942 10.7174 0.323924C11.2428 0.215942 11.663 0.215942 12.3986 0.215942C12.1884 0.215942 12.3986 0.215942 12.5036 0.323924C12.6087 0.215942 13.5543 0.323924 13.2391 0.215942C14.7101 0.215942 17.0217 0.215942 17.5471 0.431905C17.6522 0.431905 18.0725 0.431905 18.3877 0.539886C19.1232 0.539886 18.913 0.539886 19.7536 0.647867C19.4384 0.647867 19.5435 0.647867 19.8587 0.755848C20.0688 0.755848 20.279 0.755848 20.4891 0.755848L20.5942 0.86383C20.8043 0.86383 21.1196 0.971811 21.3297 0.971811C21.5399 0.971811 22.4855 1.18777 22.5906 1.18777C22.8007 1.07979 23.221 1.07979 23.4312 1.18777C23.5362 1.18777 23.6413 1.18777 23.7464 1.29575C23.6413 1.18777 23.6413 1.18777 23.8514 1.29575C23.8514 1.29575 23.8514 1.29575 23.9565 1.29575L24.0616 1.40374C24.2717 1.51172 24.587 1.51172 24.692 1.6197C24.692 1.6197 24.587 1.51172 24.4819 1.51172C24.587 1.51172 24.692 1.6197 24.7971 1.6197H24.9022C25.0072 1.72768 25.2174 1.72768 25.4275 1.83566C26.163 2.1596 27.2138 2.48355 27.9493 3.23942C27.529 3.02345 27.3188 2.91547 27.3188 2.80749C27.529 2.91547 28.3696 3.67134 28.4746 3.8873L28.5797 4.21125C28.6848 4.53519 28.7899 4.75115 28.7899 5.0751V5.29106C28.7899 5.0751 28.7899 4.75115 28.5797 4.53519C28.5797 4.64317 28.6848 4.85913 28.6848 4.96712C28.5797 4.31923 28.1594 3.8873 27.7391 3.45538C27.529 3.45538 27.3188 3.3474 27.3188 3.23942ZM15.2355 25.3756H15.3406C15.4457 25.2676 15.5507 25.2676 15.2355 25.3756ZM0.630435 4.53519C0.525362 4.75115 0.42029 4.75115 0.42029 4.96712C0.525362 4.85913 0.525362 4.64317 0.630435 4.53519ZM10.4022 0.539886C10.192 0.539886 10.087 0.539886 9.98188 0.539886C10.087 0.539886 10.2971 0.539886 10.4022 0.539886ZM21.3297 0.755848C21.2246 0.755848 21.2246 0.755848 21.3297 0.755848V0.755848Z" fill="white"/>
<path d="M4.09766 15.4413C4.20273 15.5493 4.20273 15.5493 4.09766 15.4413V15.4413Z" fill="white"/>
<path d="M23.7462 1.72771C24.2716 1.94367 23.8513 1.72771 24.3766 1.94367C24.4817 1.94367 23.9564 1.83569 24.0614 1.83569C23.8513 1.72771 23.6411 1.61973 23.7462 1.72771Z" fill="white"/>
<path d="M24.1665 1.72766C24.1665 1.72766 24.2716 1.72766 24.3766 1.72766C24.2716 1.83564 24.1665 1.72766 24.1665 1.72766Z" fill="white"/>
<path d="M28.895 6.47885L29.0001 6.15491L28.895 6.37087V6.47885Z" fill="white"/>
<path d="M1.36591 3.7793C1.36591 3.7793 1.26083 3.88728 1.15576 3.99526L1.36591 3.7793Z" fill="white"/>
<path d="M2.8371 12.6338C2.73203 12.4178 2.62695 12.3098 2.62695 12.0939C2.73203 12.4178 2.8371 12.6338 2.8371 12.6338Z" fill="white"/>
<path d="M24.2719 2.59157C24.0617 2.48359 23.8516 2.37561 23.8516 2.37561C24.0617 2.48359 24.1668 2.48359 24.2719 2.59157Z" fill="white"/>
<path d="M2.31152 6.047L2.4166 6.15498C2.31152 6.047 2.31152 6.047 2.31152 6.047Z" fill="white"/>
<path d="M5.46396 2.26758C5.35889 2.26758 5.35889 2.26758 5.35889 2.37556C5.46396 2.37556 5.56903 2.26758 5.46396 2.26758Z" fill="white"/>
<path d="M26.4782 6.91077C26.3731 6.91077 26.3731 7.01875 26.2681 7.01875C26.2681 7.01875 26.3731 6.91077 26.4782 6.91077Z" fill="white"/>
<path d="M20.4893 1.9436C20.6994 1.9436 20.8045 1.9436 20.9095 2.05158L20.8045 1.9436H20.4893Z" fill="white"/>
<path d="M26.1628 3.88737C26.1628 3.88737 26.373 3.99535 26.2679 3.88737C25.8476 3.56342 25.3223 3.34746 25.3223 3.45544C25.5324 3.56342 25.8476 3.6714 26.1628 3.88737C26.0578 3.88737 25.5324 3.45544 25.5324 3.56342C25.3223 3.45544 25.1121 3.34746 24.7969 3.23948C24.902 3.23948 25.1121 3.45544 25.1121 3.34746C24.7969 3.23948 25.007 3.23948 24.7969 3.1315C25.2172 3.23948 25.8476 3.45544 26.1628 3.56342L25.7426 3.34746C25.7426 3.34746 25.6375 3.34746 25.6375 3.23948C25.1121 3.02352 24.5868 2.91553 24.4817 2.91553C24.1665 2.80755 24.3766 2.69957 24.3766 2.80755C23.8513 2.59159 23.7462 2.69957 23.2208 2.48361L23.431 2.59159C23.3259 2.59159 22.8005 2.37563 22.8005 2.37563C22.6955 2.26765 22.5904 2.26765 22.6955 2.26765C22.4853 2.26765 22.3802 2.26765 22.1701 2.15967C22.2752 2.15967 22.1701 2.05168 22.2752 2.05168C22.065 2.05168 21.8549 2.05168 22.065 2.05168C21.6447 1.9437 21.8549 1.9437 21.4346 1.83572C21.3295 1.83572 21.4346 1.9437 21.5397 1.9437C21.2244 1.9437 21.1194 1.83572 21.0143 1.83572C21.4346 1.9437 21.1194 1.72774 21.2244 1.61976C20.9092 1.61976 20.4889 1.61976 20.1737 1.61976L20.2788 1.51178C20.1737 1.51178 19.0179 1.4038 18.4926 1.29582H18.5976C18.7027 1.29582 18.2824 1.18784 18.0723 1.18784C18.0723 1.18784 18.1773 1.18784 18.2824 1.18784C17.8621 1.07985 17.757 1.29582 17.4418 1.18784C17.757 1.18784 17.8621 1.18784 17.8621 1.18784C17.5469 1.18784 16.9165 1.07985 17.0215 1.18784C16.8114 1.18784 16.7063 1.18784 16.7063 1.07985H15.9708C15.9708 1.07985 16.0759 1.07985 15.8657 1.07985C16.286 1.07985 16.6013 1.07985 16.8114 1.07985C16.8114 1.07985 16.7063 0.971873 16.9165 0.971873C16.181 0.971873 15.7607 0.971873 15.2353 1.07985H14.6049H14.4998C14.3947 1.07985 14.3947 1.07985 14.3947 1.07985C14.3947 1.07985 14.2897 1.07985 14.1846 1.07985C14.1846 1.07985 14.2897 0.971873 14.3947 0.971873C14.4998 0.971873 14.4998 0.971873 14.6049 0.971873C14.7099 0.971873 14.815 0.863892 14.6049 0.863892H14.4998C14.6049 0.863892 14.6049 0.863892 14.6049 0.863892H14.0795C14.0795 0.863892 14.1846 0.863892 14.2897 0.863892C13.9744 0.863892 13.5541 0.971873 13.8694 0.971873H13.4491C13.0288 1.07985 13.0288 1.07985 12.5034 1.07985C12.0831 1.18784 11.5578 1.07985 11.4527 1.18784C11.1375 1.18784 11.3476 1.29582 11.1375 1.29582L10.9273 1.4038C10.8223 1.4038 11.1375 1.4038 10.8223 1.4038C10.1918 1.72774 9.98169 1.72774 9.5614 1.83572C9.03603 1.9437 9.77154 1.83572 9.35125 1.9437C9.24618 1.9437 9.24618 1.9437 8.93096 1.9437C8.82589 1.9437 8.82589 2.05168 8.51067 2.05168C8.30053 2.05168 8.09038 2.15967 8.09038 2.15967C7.88024 2.05169 7.67009 2.05169 7.56502 2.15967C7.2498 2.15967 7.88024 2.15967 7.98531 2.15967C7.56502 2.15967 7.35487 2.26765 7.14473 2.26765L7.45995 2.15967C6.72444 2.26765 6.82951 2.37563 6.51429 2.37563C6.72444 2.37563 7.03966 2.26765 6.82951 2.26765L6.51429 2.37563C6.51429 2.37563 6.30415 2.37563 6.19908 2.48361L5.67372 2.59159C5.77879 2.59159 5.77879 2.59159 5.67372 2.59159L5.25343 2.80755C5.3585 2.80755 5.25343 2.80755 5.04328 2.80755C4.51792 2.91553 4.72806 3.02352 4.30777 3.1315C4.30777 3.1315 4.41285 3.1315 4.41285 3.02352L4.2027 3.1315C4.2027 3.23948 3.15198 3.77938 3.15198 3.88737C2.83676 3.99535 3.15198 3.88737 3.36212 3.6714L3.15198 3.77938C3.25705 3.6714 3.36212 3.6714 3.46719 3.56342C3.25705 3.6714 3.0469 3.77938 2.94183 3.88737C2.83676 3.99535 2.73169 4.10333 2.62661 4.21131C2.52154 4.31929 2.62661 3.99535 2.41647 4.42727C1.99618 4.8592 2.52154 4.31929 2.3114 4.64323L2.10125 4.8592C1.99618 5.29112 1.99618 5.61507 2.20632 5.93901C2.20632 6.04699 2.3114 6.04699 2.3114 6.04699C2.52154 6.47891 2.94183 6.69488 3.25705 6.91084C3.15198 6.80286 3.36212 7.01882 3.36212 7.01882C3.57227 7.1268 3.67734 7.23478 3.88748 7.23478C3.67734 7.23478 3.67734 7.23478 3.67734 7.23478C3.78241 7.23478 3.99256 7.34276 4.09763 7.45075C3.99256 7.45075 3.99256 7.45075 3.99256 7.45075C4.09763 7.45075 4.30777 7.55873 4.51792 7.55873C4.41285 7.55873 4.41285 7.55873 4.41285 7.55873C4.51792 7.55873 4.62299 7.66671 5.04328 7.88267H4.93821C4.72806 7.66671 4.62299 7.66671 4.51792 7.66671C4.93821 7.88267 4.62299 7.66671 4.83314 7.77469C5.14835 7.88267 5.25343 7.88267 5.14835 7.88267C5.46357 7.99065 5.56864 8.09863 5.88386 8.09863H5.77879L6.094 8.20661H5.77879C6.40922 8.42258 5.88386 8.20661 6.61937 8.42258C6.93458 8.42258 7.03966 8.42258 7.14473 8.53056C7.35487 8.53056 6.72444 8.42258 7.35487 8.53056C7.45995 8.53056 7.67009 8.63854 7.88024 8.63854C8.09038 8.63854 7.77516 8.63854 7.67009 8.53056C8.61574 8.63854 8.30053 8.74652 9.14111 8.8545C8.82589 8.74652 9.35125 8.8545 8.72082 8.74652C9.03603 8.74652 9.35125 8.8545 9.66647 8.8545H9.45632C9.5614 8.8545 9.66647 8.8545 9.77154 8.8545C10.1918 8.8545 10.507 8.96248 10.8223 8.96248C10.6121 8.96248 11.1375 8.96248 11.2426 9.07046C10.9273 9.07046 10.2969 8.96248 10.1918 9.07046C10.2969 9.07046 10.507 9.07046 10.6121 9.17844C10.507 9.17844 10.2969 9.17844 10.2969 9.17844C10.8223 9.28643 11.1375 9.17845 11.4527 9.28643H10.9273C10.9273 9.17845 11.1375 9.28643 11.3476 9.28643C11.6628 9.28643 11.873 9.28643 12.0831 9.39441H11.9781C12.6085 9.39441 12.7136 9.50239 13.0288 9.50239C13.2389 9.50239 13.7643 9.50239 13.5541 9.50239C13.7643 9.50239 12.7136 9.50239 13.1339 9.39441C13.4491 9.50239 13.8694 9.39441 14.6049 9.50239C14.2897 9.50239 14.815 9.50239 14.4998 9.61037C14.815 9.61037 14.9201 9.61037 15.0252 9.61037H15.1302C15.5505 9.50239 15.2353 9.50239 15.9708 9.50239C15.7607 9.50239 16.286 9.50239 16.0759 9.50239C16.286 9.50239 16.4962 9.50239 16.6013 9.50239C17.3368 9.50239 17.2317 9.50239 17.8621 9.39441H17.757C18.5976 9.28643 19.7534 9.17844 20.594 8.96248H20.2788C20.2788 8.74652 20.6991 8.63854 21.0143 8.63854C21.0143 8.63854 20.9092 8.63854 20.8041 8.63854C20.8041 8.63854 20.9092 8.63854 21.1194 8.63854H21.2244H21.3295C21.6447 8.53056 21.2244 8.63854 21.5397 8.53056C21.7498 8.53056 22.9056 8.20661 23.2208 8.20661C23.431 8.09863 22.5904 8.42258 22.8005 8.20661C22.9056 8.20661 22.9056 8.20661 23.1157 8.09863H23.0107C23.9563 7.88267 24.3766 7.77469 25.1121 7.34276C25.4273 7.23478 25.5324 7.1268 25.6375 7.01882C25.7426 7.01882 25.5324 7.1268 25.6375 7.1268C26.0578 6.80286 26.5831 6.47891 26.6882 6.15497C26.7933 6.26295 27.1085 5.61507 27.0034 5.93901C27.0034 5.83103 27.1085 5.83103 27.1085 5.72305C27.1085 5.83103 27.0034 5.93901 27.0034 6.15497C27.0034 6.26295 26.7933 6.47891 26.7933 6.47891C26.5831 6.69488 26.373 6.80286 26.1628 6.91084C26.0578 7.01882 25.8476 7.1268 26.0578 7.01882C25.3223 7.45075 24.4817 7.77469 23.6411 8.09863C22.8005 8.42258 21.9599 8.63854 21.1194 8.74652C20.8042 8.74652 20.8042 8.8545 20.6991 8.8545C20.594 8.8545 20.3839 8.8545 20.2788 8.8545C20.0686 8.8545 20.2788 8.8545 20.2788 8.96248C19.4382 9.07046 18.5976 9.17845 17.8621 9.28643C17.652 9.28643 17.8621 9.17845 17.652 9.28643C18.0723 9.28643 16.8114 9.39441 17.0215 9.39441C16.7063 9.28643 15.9708 9.39441 16.0759 9.28643C15.7607 9.28643 15.7607 9.39441 15.8657 9.39441C15.4455 9.39441 15.1302 9.39441 14.815 9.39441C14.6049 9.39441 12.9237 9.39441 12.6085 9.28643C12.8186 9.39441 12.6085 9.28643 12.3984 9.28643H12.6085H12.0831C11.9781 9.28643 11.9781 9.28643 11.9781 9.28643C11.873 9.28643 11.9781 9.28643 11.7679 9.28643C11.4527 9.28643 11.3476 9.28643 11.1375 9.28643H11.2426H11.0324C10.8223 9.28643 11.6628 9.28643 11.1375 9.17844C11.1375 9.17844 10.8223 9.17844 10.6121 9.17844C10.9273 9.17844 10.9273 9.17844 10.7172 9.17844H10.2969L10.402 9.28643C9.14111 9.17845 7.88024 8.8545 6.51429 8.53056C6.51429 8.53056 5.56864 8.3146 5.77879 8.20661C6.094 8.3146 5.67371 8.09863 5.46357 8.09863C5.67371 8.20661 4.93821 7.99065 5.56864 8.20661C5.3585 8.20661 5.25343 8.09863 5.04328 8.09863C4.83314 8.20661 3.88748 7.66671 3.15198 7.34276H3.25705C2.62661 7.01882 1.99618 6.26295 1.99618 6.15497V6.04699C1.68096 5.50708 1.68096 5.29112 1.99618 4.64323C1.99618 4.42727 1.99618 4.42727 2.10125 4.31929C2.20632 4.21131 2.3114 4.10333 2.52154 3.88737C2.73169 3.6714 2.94183 3.56342 3.15198 3.34746C3.15198 3.45544 4.30777 2.69957 4.51792 2.69957C4.62299 2.59159 5.14835 2.37563 5.3585 2.26765C5.3585 2.26765 5.3585 2.26765 5.46357 2.26765C5.77879 2.26765 6.30415 2.15967 6.61937 2.05168C6.82951 1.9437 6.72444 1.9437 6.61937 1.9437C7.03966 1.83572 7.77516 1.61976 7.88024 1.61976C8.19545 1.61976 7.98531 1.61976 8.09038 1.61976C8.51067 1.51178 7.98531 1.51178 8.61574 1.51178C8.51067 1.51178 8.4056 1.51178 8.51067 1.51178C8.72082 1.51178 9.14111 1.51178 9.35125 1.51178H9.24618C9.66647 1.4038 10.2969 1.51178 10.2969 1.4038C11.0324 1.4038 10.6121 1.29582 11.3476 1.29582C11.6628 1.29582 11.873 1.29582 11.9781 1.18784H11.873C12.2933 1.18784 12.2933 1.18784 12.7136 1.18784C12.7136 1.18784 12.9237 1.18784 13.0288 1.18784C13.0288 1.07985 13.9744 1.18784 14.1846 1.18784C13.8694 1.18784 13.9744 1.18784 14.0795 1.18784C14.2897 1.18784 14.3947 1.18784 14.7099 1.18784C14.7099 1.07985 14.815 1.07985 15.3404 1.07985C15.2353 1.07985 15.1302 1.07985 15.2353 1.07985C15.3404 1.07985 15.4455 1.07985 15.4455 1.07985H15.3404C15.6556 1.07985 15.9708 1.07985 16.4962 1.07985C16.4962 0.971873 17.2317 1.18784 17.0215 1.07985C17.9672 1.18784 19.5433 1.29582 19.8585 1.4038C19.9636 1.4038 20.2788 1.4038 20.3839 1.51178C20.9092 1.51178 20.8041 1.51178 21.3295 1.61976C21.1194 1.61976 21.2244 1.61976 21.4346 1.72774H21.8549L21.9599 1.83572C22.1701 1.83572 22.2752 1.9437 22.4853 1.9437C22.6955 1.9437 23.2208 2.05168 23.3259 2.05168C23.431 2.15967 23.7462 2.15967 23.8513 2.26765C23.9563 2.26765 23.9563 2.26765 24.0614 2.26765C23.9563 2.26765 23.9563 2.15967 24.1665 2.26765L24.2715 2.37563C24.3766 2.37563 24.5868 2.48361 24.6918 2.48361C24.6918 2.48361 24.5868 2.48361 24.5868 2.37563C24.6918 2.37563 24.6918 2.48361 24.7969 2.48361C24.7969 2.48361 24.7969 2.48361 24.902 2.48361C25.007 2.48361 25.1121 2.59159 25.2172 2.59159C25.2172 3.02352 25.9527 3.23948 26.373 3.77938C26.2679 3.6714 26.1628 3.6714 26.1628 3.56342C26.2679 3.6714 26.7933 4.21131 26.8984 4.31929C26.8984 4.42727 27.0034 4.42727 27.0034 4.53525C27.1085 4.75122 27.2136 4.96718 27.2136 5.18314V5.29112C27.2136 5.07516 27.2136 4.96718 27.1085 4.75122C27.1085 4.8592 27.1085 4.96718 27.1085 5.07516C27.1085 4.64323 26.7933 4.31929 26.4781 3.99535C26.2679 3.99535 26.1628 3.88737 26.1628 3.88737ZM11.873 9.39441C11.9781 9.39441 12.0831 9.39441 11.873 9.39441V9.39441ZM14.815 1.4038C14.7099 1.4038 14.6049 1.4038 14.4998 1.4038C14.7099 1.4038 14.815 1.4038 14.815 1.4038Z" fill="white"/>
<path d="M23.8513 2.80751C24.2716 2.91549 23.9564 2.80751 24.2716 2.91549C24.3766 2.91549 23.9564 2.80751 24.0614 2.80751C23.8513 2.80751 23.7462 2.69953 23.8513 2.80751Z" fill="white"/>
<path d="M27.1089 6.15488L27.319 5.83093L27.214 6.04689L27.1089 6.15488Z" fill="white"/>
<path d="M27.2139 5.61501V5.39905C27.3189 5.39905 27.3189 5.50703 27.2139 5.61501Z" fill="white"/>
<path d="M2.52197 4.42722C2.62705 4.31923 2.73212 4.21125 2.83719 4.10327C2.62705 4.31923 2.52197 4.42722 2.52197 4.42722Z" fill="white"/>
<path d="M15.1305 30.0188C15.1305 30.2348 15.0254 30.4507 15.0254 30.4507V30.3427C15.1305 30.2348 15.1305 30.1268 15.1305 30.0188Z" fill="white"/>
<path d="M15.9708 41.6808C15.9708 41.5728 15.8657 41.5728 15.8657 41.4648C15.9708 41.5728 15.9708 41.5728 15.9708 41.6808Z" fill="white"/>
<path d="M16.1812 41.7887C16.1812 41.8967 16.2862 42.0047 16.2862 42.0047C16.2862 42.0047 16.2862 41.8967 16.1812 41.7887Z" fill="white"/>
<path d="M9.14111 42.9766C9.24619 42.8686 9.24619 42.9766 9.14111 42.9766V42.9766Z" fill="white"/>
<path d="M15.5509 34.446C15.4458 34.2301 15.5509 34.1221 15.5509 33.9061L15.4458 34.1221L15.5509 34.446Z" fill="white"/>
<path d="M15.6556 27.4273C15.6556 27.4273 15.5505 27.1033 15.5505 27.3193C15.5505 27.9672 15.6556 28.6151 15.6556 28.5071V27.5353C15.7606 27.5353 15.6556 28.2911 15.7606 28.1831V29.155C15.7606 29.047 15.7606 28.723 15.7606 28.831C15.7606 29.263 15.7606 29.047 15.7606 29.263C15.6556 28.831 15.5505 27.9672 15.4454 27.6432V28.0752V28.1831C15.4454 28.831 15.6556 29.3709 15.7606 29.5869C15.7606 29.9108 15.6556 29.8029 15.6556 29.6949C15.6556 30.4507 15.7606 30.3428 15.7606 31.0986V30.8827C15.7606 31.0986 15.7606 31.6385 15.7606 31.6385C15.7606 31.7465 15.6556 31.8545 15.6556 31.7465L15.7606 32.3944C15.7606 32.2864 15.6556 32.3944 15.6556 32.2864C15.6556 32.5024 15.7606 32.7184 15.7606 32.6104C15.6556 33.1503 15.7606 32.9343 15.6556 33.3662C15.6556 33.4742 15.7606 33.3662 15.7606 33.2583C15.7606 33.5822 15.7606 33.7982 15.7606 33.9061C15.7606 33.3662 15.5505 33.7982 15.4454 33.6902L15.7606 34.878L15.6556 34.77C15.7606 34.878 15.7606 36.1738 15.7606 36.8216V36.7137C15.7606 36.6057 15.7606 37.1456 15.7606 37.3615C15.7606 37.3615 15.7606 37.2536 15.7606 37.1456C15.7606 37.5775 15.8657 37.6855 15.8657 38.1174C15.8657 37.6855 15.8657 37.6855 15.7606 37.6855C15.7606 38.0094 15.8657 38.7653 15.8657 38.6573C15.8657 38.8733 15.8657 39.0892 15.8657 39.0892L15.9708 39.8451C15.9708 39.7371 15.9708 39.7371 15.9708 39.9531C15.9708 39.5212 15.7606 39.0892 15.8657 38.8733C15.7606 38.8733 15.7606 39.0892 15.7606 38.8733C15.8657 39.7371 16.0758 40.1691 16.1809 40.709C16.1809 40.9249 16.286 41.2489 16.286 41.4648V41.5728C16.286 41.6808 16.3911 41.6808 16.3911 41.6808C16.3911 41.7888 16.4961 41.7888 16.4961 41.8968C16.4961 41.8968 16.3911 41.7888 16.286 41.6808C16.286 41.5728 16.286 41.5728 16.286 41.4648C16.1809 41.3569 16.1809 41.2489 16.1809 41.4648V41.5728C16.1809 41.4648 16.0758 41.4648 16.0758 41.4648C16.1809 41.6808 16.1809 41.8968 16.286 42.0047C16.286 41.8968 16.286 41.7888 16.1809 41.6808C16.3911 42.0047 16.6012 42.3287 16.4961 42.0047C16.6012 42.1127 16.6012 42.2207 16.7063 42.3287C16.9164 42.4367 17.0215 42.3287 17.1266 42.4367C17.2316 42.4367 17.3367 42.4367 17.6519 42.4367C17.6519 42.4367 17.5469 42.4367 17.6519 42.5446C18.0722 42.5446 18.7027 42.8686 18.8077 42.7606C19.1229 42.8686 19.0179 42.7606 19.228 42.7606H19.5432C19.6483 42.7606 19.3331 42.7606 19.5432 42.8686C20.0686 42.9766 20.3838 43.0845 20.8041 43.3005C21.4345 43.6245 20.594 43.0845 21.1193 43.3005C21.2244 43.4085 21.2244 43.4085 21.5396 43.6245C21.7498 43.7324 21.7498 43.6245 21.9599 43.9484H21.8548C22.065 44.2723 22.065 44.5963 22.065 44.5963C22.17 44.8123 22.17 45.0282 22.17 45.1362C22.17 45.4601 22.17 45.3522 22.2751 45.1362C22.2751 44.9202 22.2751 44.7043 22.2751 44.5963C22.3802 44.8123 22.3802 45.1362 22.2751 45.3522C22.17 45.5681 22.065 45.7841 21.8548 45.7841C21.9599 45.6761 22.17 45.5681 22.17 45.3522C22.065 45.5681 21.8548 45.6761 21.7498 45.7841C21.6447 45.8921 21.5396 45.8921 21.4345 45.8921C21.2244 45.8921 21.2244 45.8921 21.0143 45.8921C21.2244 45.8921 21.6447 45.7841 21.4345 45.7841C21.3295 45.7841 21.1193 45.7841 21.0143 45.7841C20.9092 45.7841 20.699 45.7841 20.594 45.8921H19.9635C20.0686 45.8921 20.0686 45.8921 19.9635 45.8921H19.5432C19.6483 45.8921 19.5432 45.8921 19.3331 45.8921C18.7027 45.8921 18.8077 46 18.3874 46C18.4925 46 18.4925 46 18.4925 46H18.2824C18.2824 46.108 16.9164 46 16.8114 46.108C16.4961 46.108 16.8114 46.108 17.2316 46H16.9164C17.0215 46 17.2316 46 17.3367 46C16.8114 45.8921 16.3911 46 16.1809 46C15.9708 46 16.286 45.8921 15.7606 45.8921C15.0251 45.8921 15.8657 46 15.4454 46L15.1302 45.8921C14.6048 45.8921 14.1845 45.8921 13.6592 45.8921C13.5541 45.8921 13.449 45.8921 13.449 45.8921C12.9237 45.8921 12.3983 46 11.978 45.8921C12.0831 45.8921 11.7679 45.8921 11.7679 45.7841H11.0324C11.3476 45.7841 11.3476 45.6761 11.3476 45.6761C11.1374 45.6761 11.0324 45.6761 10.9273 45.6761C11.0324 45.6761 11.1374 45.6761 11.0324 45.6761L10.2969 45.7841C10.2969 45.7841 10.4019 45.7841 10.507 45.7841C10.2969 45.7841 9.98164 45.7841 9.66643 45.7841H9.7715C9.98164 45.7841 10.0867 45.7841 10.1918 45.7841C9.66643 45.7841 10.0867 45.7841 9.87657 45.7841C9.56135 45.7841 9.35121 45.8921 9.45628 45.8921C9.03599 45.8921 8.93092 45.8921 8.51063 45.8921L8.6157 45.7841H8.19541L8.51063 45.6761C7.77512 45.6761 8.40556 45.7841 7.56498 45.7841C7.24976 45.7841 7.03961 45.8921 6.82947 45.6761C6.51425 45.4601 7.35483 46.108 6.61932 45.5681C6.51425 45.3522 6.51425 45.0282 6.51425 44.8123C6.51425 44.5963 6.40918 44.9202 6.40918 45.1362C6.40918 44.4883 6.61932 44.3803 6.7244 44.2723C6.82947 44.1644 6.93454 44.0564 7.24976 43.7324C6.93454 43.9484 7.35483 43.4085 6.82947 44.0564C7.03961 43.7324 7.4599 43.6245 7.77512 43.3005L7.56498 43.5165C7.67005 43.5165 7.77512 43.4085 7.88019 43.3005V43.4085C8.30048 43.0846 8.72077 43.0846 8.93092 42.8686C8.72077 42.9766 9.24614 42.7606 9.45628 42.7606C9.14106 42.8686 8.40556 43.0846 8.40556 43.1925C8.6157 43.1925 8.72077 43.0846 8.93092 42.9766C8.82585 42.9766 8.6157 43.0846 8.6157 43.0846C9.14106 42.9766 9.45628 42.7606 9.87657 42.6526C9.66643 42.7606 9.45628 42.7606 9.24614 42.8686C9.24614 42.7606 9.56135 42.7606 9.66643 42.6526C9.98164 42.6526 10.1918 42.5446 10.507 42.4367C10.4019 42.4367 10.4019 42.4367 10.4019 42.4367C11.0324 42.3287 11.3476 42.4367 11.5577 42.3287C11.8729 42.3287 12.0831 41.7888 11.978 41.8968C11.978 41.7888 11.8729 42.0047 11.7679 42.1127C11.6628 42.2207 11.4527 42.2207 11.5577 42.1127C11.8729 42.1127 11.978 41.5728 12.2932 40.8169C12.1882 41.2489 12.3983 40.601 12.3983 40.9249C12.5034 40.493 12.5034 40.493 12.5034 40.277L12.6085 40.1691C12.6085 39.6292 12.6085 40.0611 12.6085 39.1972C12.6085 39.5212 12.7135 38.8733 12.7135 39.0892C12.7135 38.8733 12.7135 38.6573 12.7135 38.4414C12.8186 37.5775 12.8186 37.7935 12.8186 37.0376V37.1456C12.8186 36.1738 12.9237 34.878 12.9237 33.9061V34.2301C12.9237 34.1221 12.9237 33.5822 12.9237 33.2583C12.9237 33.3662 12.9237 33.4742 12.9237 33.4742C12.9237 33.4742 13.0287 33.3662 13.0287 33.0423V32.9343V32.8263C13.0287 32.3944 12.9237 32.9343 13.0287 32.6104C13.1338 32.3944 13.0287 30.9907 13.1338 30.6667C13.0287 30.4507 13.1338 31.4226 13.0287 31.0986C13.0287 30.9907 13.0287 30.8827 13.0287 30.6667V30.7747C13.0287 29.5869 13.1338 29.155 13.0287 28.1831C13.0287 27.8592 13.0287 27.6432 13.0287 27.4273C13.0287 27.3193 13.0287 27.6432 13.0287 27.4273C12.9237 26.7794 13.1338 26.1315 13.0287 25.8076C13.1338 25.8076 13.2389 25.0517 13.2389 25.3756V25.1597C13.344 25.2676 13.2389 26.0235 13.344 26.1315L13.2389 26.9953C13.2389 26.9953 13.344 27.1033 13.344 26.9953C13.344 27.2113 13.344 27.4273 13.344 27.1033C13.2389 29.047 13.344 31.0986 13.2389 33.0423C13.2389 33.1503 13.2389 33.1503 13.2389 33.0423C13.1338 33.3662 13.2389 33.3662 13.2389 33.5822L13.1338 34.1221C13.1338 34.3381 13.1338 34.1221 13.2389 34.2301C13.2389 35.2019 13.1338 36.1738 13.1338 37.0376C13.1338 37.2536 13.0287 36.9296 13.0287 37.3615C13.1338 36.9296 13.0287 38.3334 13.0287 38.1174C12.9237 38.4414 12.9237 39.3052 12.8186 39.1972C12.7135 39.6292 12.8186 39.5212 12.8186 39.4132C12.7135 39.8451 12.7135 40.277 12.6085 40.601C12.6085 40.709 12.5034 41.2489 12.2932 41.7888C12.1882 42.0047 11.978 42.3287 11.7679 42.5446C11.6628 42.6526 11.4527 42.6526 11.3476 42.6526C11.2425 42.6526 11.1374 42.6526 11.1374 42.6526C11.4527 42.6526 11.1374 42.6526 10.8222 42.7606H11.0324L10.4019 42.8686C10.2969 42.8686 10.2969 42.8686 10.2969 42.8686C10.1918 42.8686 10.2969 42.8686 10.0867 42.8686C9.66643 42.9766 9.66643 42.9766 9.45628 43.0846H9.56135V43.1925C9.35121 43.1925 10.1918 42.9766 9.56135 43.0846C9.56135 43.0846 9.24614 43.3005 9.03599 43.3005C9.35121 43.1925 9.35121 43.1925 9.24614 43.1925L8.82585 43.3005H9.03599C8.40556 43.5165 7.77512 43.8404 7.35483 44.3803C7.14469 44.5963 7.03961 45.0282 7.14469 45.2442C7.24976 45.4601 7.56498 45.5681 7.88019 45.4601C7.88019 45.5681 8.93092 45.4601 8.82585 45.5681H8.72077C8.40556 45.5681 8.82585 45.6761 9.14106 45.6761C8.82585 45.6761 9.66643 45.5681 8.93092 45.5681H9.45628C9.7715 45.3522 11.0324 45.5681 11.8729 45.5681C11.7679 45.5681 11.7679 45.5681 11.7679 45.5681C12.5034 45.4601 13.5541 45.5681 13.6592 45.5681H13.7643C14.3947 45.4601 14.4998 45.4601 15.3403 45.5681C15.5505 45.5681 15.7606 45.4601 16.286 45.4601H17.1266C17.1266 45.5681 18.5976 45.3522 18.8077 45.5681C19.0179 45.5681 19.5432 45.4601 19.8585 45.4601C19.8585 45.4601 19.8585 45.4601 19.9635 45.4601C20.2787 45.3522 20.9092 45.4601 21.2244 45.4601C21.4345 45.4601 21.3295 45.4601 21.2244 45.3522C21.4345 45.3522 21.6447 45.2442 21.7498 45.1362C21.7498 45.0282 21.7498 44.8123 21.7498 44.7043C21.6447 44.4883 21.7498 44.5963 21.7498 44.4883C21.5396 44.0564 21.7498 44.5963 21.4345 44.1644C21.5396 44.1644 21.5396 44.2723 21.5396 44.2723C21.4345 44.0564 21.1193 43.7324 20.9092 43.6245L21.0143 43.7324C20.594 43.5165 20.0686 43.1925 19.9635 43.3005V43.4085C19.228 43.0846 19.6483 43.3005 18.8077 43.0846C18.4925 42.9766 18.2824 42.8686 18.0722 42.9766H18.1773C17.757 42.8686 17.6519 42.8686 17.2316 42.8686C17.1266 42.8686 16.9164 42.8686 16.9164 42.8686C16.9164 42.8686 16.8114 42.8686 16.7063 42.8686C16.6012 42.8686 16.3911 42.7606 16.286 42.6526C15.9708 42.4367 15.8657 42.1127 15.8657 42.0047C16.0758 42.3287 15.9708 42.2207 15.9708 42.1127C15.8657 41.8968 15.7606 41.7888 15.7606 41.4648C15.6556 41.4648 15.5505 41.3568 15.4454 40.8169C15.4454 40.9249 15.5505 41.0329 15.5505 41.0329C15.5505 40.9249 15.5505 40.8169 15.4454 40.8169C15.4454 40.709 15.4454 40.9249 15.5505 40.9249C15.4454 40.493 15.4454 40.277 15.3403 39.6292C15.3403 39.8451 15.3403 39.6292 15.4454 39.6292C15.3403 39.6292 15.4454 38.8733 15.3403 39.0892C15.3403 37.9015 15.2353 36.1738 15.2353 35.7418C15.2353 35.6338 15.2353 35.3099 15.2353 35.0939C15.1302 34.554 15.2353 34.662 15.1302 34.0141C15.1302 34.3381 15.2353 34.1221 15.2353 33.9061L15.1302 33.4742L15.2353 33.3662C15.2353 33.1503 15.2353 32.9343 15.2353 32.8263C15.1302 32.6104 15.2353 31.9625 15.1302 31.8545C15.2353 31.6385 15.1302 31.3146 15.2353 31.2066C15.2353 31.0986 15.2353 30.9907 15.2353 30.9907C15.2353 31.0986 15.1302 31.0986 15.1302 30.9907V30.8827C15.1302 30.6667 15.1302 30.4507 15.1302 30.3428C15.1302 30.3428 15.1302 30.4507 15.1302 30.5587C15.1302 30.4507 15.1302 30.4507 15.1302 30.3428C15.1302 30.3428 15.1302 30.3428 15.1302 30.2348C15.1302 30.1268 15.1302 30.0188 15.1302 29.8029C15.2353 29.155 15.0251 28.3991 15.2353 27.6432C15.2353 27.7512 15.2353 27.8592 15.2353 27.9672C15.2353 27.7512 15.3403 26.9953 15.3403 26.7794V26.5634H15.4454L15.5505 25.9155L15.6556 25.6996V26.2395L15.7606 25.9155V27.4273C15.6556 27.1033 15.6556 27.3193 15.6556 27.4273ZM10.6121 42.8686C10.7172 42.8686 10.7172 42.8686 10.6121 42.8686V42.8686ZM22.17 45.1362C22.17 45.3522 22.065 45.4601 21.9599 45.5681C22.065 45.5681 22.17 45.3522 22.17 45.1362ZM15.8657 40.9249C15.8657 41.0329 15.8657 41.1409 15.9708 41.2489C15.9708 41.0329 15.8657 40.9249 15.8657 40.9249ZM15.2353 32.3944C15.2353 32.5024 15.2353 32.5024 15.2353 32.3944V32.3944Z" fill="white"/>
<path d="M13.5544 45.892C13.4493 45.9999 13.4493 45.9999 13.5544 45.892V45.892Z" fill="white"/>
<path d="M15.6556 30.3427C15.6556 29.9107 15.5505 30.2347 15.6556 29.8028C15.6556 29.6948 15.6556 30.1267 15.6556 30.0187C15.6556 30.3427 15.5505 30.5586 15.6556 30.3427Z" fill="white"/>
<path d="M13.4492 25.8075L13.5543 25.4835L13.4492 25.6995V25.8075Z" fill="white"/>
<path d="M22.0654 44.1643C22.0654 44.1643 22.0654 44.2723 22.1705 44.3803C22.0654 44.3803 22.0654 44.2723 22.0654 44.1643Z" fill="white"/>
<path d="M19.123 45.9999H19.2281L19.123 45.892V45.9999Z" fill="white"/>
<path d="M4.41312 10.9061C4.30805 10.9061 4.0979 10.7982 3.99283 10.6902C3.67761 10.7982 3.46747 10.9061 3.78269 10.7982C3.67761 10.7982 3.46747 10.7982 3.25732 10.9061C3.25732 10.9061 3.25732 11.0141 3.3624 11.0141C3.46747 11.0141 3.46747 11.0141 3.57254 11.0141C3.67761 11.0141 3.88776 11.0141 4.41312 10.9061Z" fill="white"/>
<path d="M3.25732 11.23C3.3624 11.23 3.3624 11.23 3.25732 11.23C3.46747 11.1221 3.46747 11.1221 3.25732 11.23Z" fill="white"/>
<path d="M5.98923 11.554C6.0943 11.554 6.0943 11.446 6.19937 11.446C5.98923 11.554 5.67401 11.554 5.46387 11.662C5.67401 11.662 6.19937 11.446 5.98923 11.554Z" fill="white"/>
<path d="M4.62299 11.878C4.51792 11.878 4.51792 11.878 4.51792 11.878C4.83314 11.878 5.04328 11.662 5.3585 11.662C5.56864 11.554 5.77879 11.554 5.88386 11.4461L5.25343 11.662C5.56864 11.554 5.77879 11.4461 6.09401 11.3381C5.98893 11.3381 5.88386 11.2301 5.77879 11.2301C5.3585 11.3381 5.56864 11.2301 5.67372 11.2301C5.25343 11.3381 5.25343 11.4461 4.83314 11.554C4.51792 11.662 4.72806 11.554 4.62299 11.554C4.62299 11.554 4.62299 11.554 4.41285 11.554L3.78241 11.77H3.99256C3.78241 11.878 3.46719 11.878 3.78241 11.878C3.78241 11.878 3.67734 11.878 3.57227 11.878C3.57227 11.878 3.57227 11.986 3.67734 11.986C3.88748 12.094 4.09763 12.094 4.62299 11.878ZM4.51792 11.554C4.41285 11.662 4.51792 11.662 4.51792 11.554V11.554Z" fill="white"/>
<path d="M6.61949 12.0938L6.09413 12.2018C5.98905 12.2018 5.88398 12.2018 6.30427 12.0938C6.09413 12.0938 5.67384 12.3098 5.67384 12.3098C4.93833 12.5258 5.98905 12.2018 5.77891 12.2018L5.46369 12.3098H5.56876C5.25355 12.4178 5.25355 12.5258 4.83326 12.6337C4.51804 12.7417 4.72818 12.6337 4.62311 12.6337C4.62311 12.6337 4.62311 12.6337 4.41297 12.6337L3.99268 12.7417H4.09775C4.09775 12.7417 4.09775 12.7417 3.99268 12.7417C3.99268 12.8497 4.09775 12.8497 4.09775 12.9577C4.20282 12.9577 4.41297 12.8497 4.62311 12.8497C4.51804 12.8497 4.51804 12.8497 4.51804 12.8497C4.83326 12.8497 5.0434 12.6337 5.35862 12.6337C5.56876 12.5258 5.77891 12.5258 5.88398 12.4178L5.25355 12.6337C5.67384 12.5258 5.98905 12.3098 6.61949 12.2018C6.61949 12.2018 6.40934 12.3098 6.30427 12.3098C6.51442 12.3098 6.61949 12.2018 6.82963 12.2018C6.82963 12.3098 5.98905 12.4178 5.67384 12.6337C5.88398 12.6337 6.40934 12.4178 6.1992 12.5258C6.51442 12.3098 6.9347 12.3098 7.35499 12.0938C7.46007 12.0938 7.56514 11.9859 7.77528 11.9859L7.56514 12.0938C7.98543 11.9859 8.30065 11.8779 8.72094 11.7699C7.98543 11.9859 8.51079 11.7699 8.19557 11.8779C8.0905 11.9859 8.19557 11.8779 8.30065 11.8779C8.0905 11.8779 7.88036 11.7699 7.67021 11.7699C7.24992 11.8779 6.82963 11.9859 6.51441 12.0938H6.61949Z" fill="white"/>
<path d="M6.09398 13.4977C5.88384 13.6057 5.98891 13.6057 6.09398 13.4977V13.4977Z" fill="white"/>
<path d="M6.61961 13.1737L6.09425 13.2817C5.98917 13.2817 5.8841 13.2817 6.30439 13.1737C6.09425 13.1737 5.67396 13.3896 5.67396 13.3896C4.93845 13.6056 5.98917 13.2817 5.77903 13.2817L5.46381 13.3896H5.56888C5.25367 13.4976 5.25367 13.4976 4.83338 13.6056C4.51816 13.7136 4.7283 13.6056 4.62323 13.6056C4.62323 13.6056 4.62323 13.6056 4.41309 13.6056C4.41309 13.7136 4.51816 13.8216 4.51816 13.9296C4.51816 13.9296 4.51816 13.9296 4.62323 13.9296C4.62323 13.9296 4.62323 13.9296 4.51816 13.9296C4.7283 13.8216 4.93845 13.8216 5.25367 13.7136C5.46381 13.6056 5.67396 13.6056 5.77903 13.4976L5.14859 13.7136C5.56888 13.6056 5.8841 13.3896 6.51454 13.2817C6.51454 13.2817 6.30439 13.3896 6.19932 13.3896C6.40946 13.3896 6.51454 13.2817 6.72468 13.2817C6.72468 13.3896 5.8841 13.4976 5.56888 13.7136C5.77903 13.7136 6.30439 13.4976 6.09425 13.6056C6.40946 13.3896 6.82975 13.3896 7.25004 13.1737C7.35512 13.1737 7.46019 13.0657 7.67033 13.0657L7.46019 13.1737C7.67033 13.1737 7.98555 13.1737 8.40584 12.9577C7.67033 13.1737 8.19569 12.9577 7.88048 13.0657C8.82613 12.7418 8.40584 12.9577 9.45656 12.7418C9.24642 12.7418 9.03627 12.8497 9.24642 12.7418C9.45656 12.7418 9.77178 12.6338 9.87685 12.6338C10.6124 12.4178 9.77178 12.6338 10.087 12.5258C10.2971 12.5258 10.4022 12.4178 10.7174 12.3098C10.8225 12.3098 10.9276 12.3098 10.9276 12.2019C10.6124 12.2019 10.4022 12.0939 10.087 12.0939C8.82613 12.4178 7.56526 12.7418 6.40946 13.0657L6.61961 13.1737Z" fill="white"/>
<path d="M6.09398 14.5775C5.88384 14.6855 5.98891 14.5775 6.09398 14.5775V14.5775Z" fill="white"/>
<path d="M11.8734 12.7417C12.6089 12.5258 11.7683 12.8497 12.0835 12.7417C11.7683 12.8497 11.348 12.9577 11.6632 12.8497H11.7683C11.8734 12.7417 10.8226 13.0657 10.8226 13.0657C9.35161 13.4976 7.8806 13.8216 6.40958 14.2535H6.61973L6.09437 14.3615C5.98929 14.3615 5.88422 14.3615 6.30451 14.2535C6.09437 14.2535 5.67408 14.4694 5.67408 14.4694C4.93857 14.6854 5.98929 14.3615 5.77915 14.3615L5.46393 14.4694H5.569C5.25379 14.5774 5.25379 14.5774 4.8335 14.6854C4.8335 14.7934 4.93857 14.9014 4.93857 14.9014C5.04364 14.9014 5.14871 14.7934 5.25379 14.7934C5.46393 14.6854 5.67408 14.6854 5.77915 14.5774L5.14871 14.7934C5.569 14.6854 5.88422 14.4694 6.51466 14.3615C6.51466 14.3615 6.30451 14.4694 6.19944 14.4694C6.40958 14.4694 6.51466 14.3615 6.7248 14.3615C6.7248 14.4694 5.88422 14.5774 5.569 14.7934C5.77915 14.7934 6.30451 14.5774 6.09437 14.6854C6.40958 14.4694 6.82987 14.4694 7.25016 14.2535C7.35524 14.2535 7.46031 14.1455 7.67045 14.1455L7.46031 14.2535C7.67045 14.2535 7.98567 14.1455 8.40596 14.0375C7.67045 14.2535 8.19582 14.0375 7.8806 14.1455C8.82625 13.8216 8.40596 14.0375 9.45668 13.7136C9.24654 13.7136 9.0364 13.8216 9.24654 13.7136C9.45668 13.7136 9.7719 13.6056 9.87697 13.6056C10.6125 13.3896 9.7719 13.6056 10.0871 13.4976C10.2973 13.4976 10.4023 13.3896 10.7176 13.2816C11.5581 13.0657 10.9277 13.1737 11.6632 12.9577L11.348 13.0657L11.7683 12.9577L11.5581 13.1737C11.9784 13.0657 12.0835 12.9577 12.5038 12.8497C12.3987 12.8497 12.6089 12.7417 12.9241 12.6338C13.1342 12.6338 12.819 12.7417 13.3444 12.5258C13.2393 12.6338 13.1342 12.6338 12.9241 12.6338L12.819 12.7417C13.1342 12.7417 13.4494 12.5258 13.6596 12.5258C13.5545 12.5258 13.5545 12.5258 13.4494 12.5258L14.0799 12.3098C13.6596 12.3098 13.2393 12.3098 12.9241 12.3098C12.819 12.3098 12.6089 12.4178 12.6089 12.4178L11.8734 12.7417Z" fill="white"/>
<path d="M16.6013 12.7418L16.3911 12.8498C16.7063 12.7418 16.6013 12.8498 16.6013 12.7418Z" fill="white"/>
<path d="M16.8116 12.3099C16.6014 12.4179 15.6558 12.5258 14.8152 12.8498C14.8152 12.8498 14.8152 12.8498 14.9203 12.8498C13.9746 13.1737 12.8188 13.3897 12.3985 13.6057L11.7681 13.8216C12.5036 13.6057 11.663 13.9296 11.9783 13.8216C11.663 13.9296 11.2427 14.0376 11.558 13.9296H11.663C11.7681 13.8216 10.7174 14.1456 10.7174 14.1456C9.24637 14.5775 7.77536 14.9014 6.30434 15.3334H6.51449L5.98913 15.4413C5.88405 15.4413 5.77898 15.4413 6.19927 15.3334C5.98913 15.3334 5.56884 15.5493 5.56884 15.5493C4.83333 15.7653 5.88405 15.4413 5.67391 15.4413L5.35869 15.5493H5.46376C5.35869 15.5493 5.35869 15.5493 5.35869 15.6573C5.35869 15.7653 5.46376 15.7653 5.46376 15.8733C5.77898 15.7653 5.98913 15.6573 6.40942 15.5493C6.40942 15.5493 6.19927 15.6573 6.0942 15.6573C6.30434 15.6573 6.40942 15.5493 6.61956 15.5493C6.61956 15.6573 5.88405 15.7653 5.46376 15.9812C5.67391 15.8733 6.0942 15.7653 5.98913 15.8733C6.30434 15.6573 6.72463 15.6573 7.14492 15.4413C7.25 15.4413 7.35507 15.3334 7.56521 15.3334L7.35507 15.4413C7.67029 15.2254 7.9855 15.2254 8.40579 15.1174C7.67029 15.3334 8.19565 15.1174 7.88043 15.2254C8.82608 14.9014 8.40579 15.1174 9.45652 14.7935C9.24637 14.7935 9.03623 14.9014 9.24637 14.7935C9.45652 14.7935 9.77173 14.6855 9.87681 14.6855C10.6123 14.4695 9.77173 14.6855 10.087 14.5775C10.2971 14.5775 10.4022 14.4695 10.7174 14.3615C11.558 14.1456 10.9275 14.2535 11.663 14.0376L11.3478 14.1456L11.7681 14.0376L11.558 14.1456C11.9783 14.0376 12.0833 13.9296 12.5036 13.8216C12.3985 13.8216 12.6087 13.7136 12.9239 13.6057C13.1341 13.6057 12.8188 13.7136 13.3442 13.4977C13.2391 13.6057 13.1341 13.6057 12.9239 13.6057L12.8188 13.7136C13.1341 13.7136 13.4493 13.4977 13.6594 13.4977C13.5543 13.4977 13.5543 13.4977 13.4493 13.4977L14.1848 13.2817C14.2899 13.2817 14.1848 13.2817 14.0797 13.3897C14.1848 13.3897 14.2899 13.2817 14.6051 13.2817C14.5 13.2817 14.6051 13.3897 14.2899 13.4977L15.0254 13.2817C15.0254 13.2817 15.3406 13.1737 15.3406 13.2817C15.7609 13.1737 16.2862 12.9578 16.8116 12.8498C16.8116 12.8498 16.9167 12.8498 17.0217 12.7418C17.5471 12.6338 17.9674 12.5258 18.4927 12.3099H18.808C19.0181 12.2019 18.913 12.3099 18.808 12.2019C18.2826 12.3099 17.7572 12.3099 17.1268 12.3099C16.9167 12.3099 16.9167 12.3099 16.8116 12.3099Z" fill="white"/>
<path d="M5.46387 15.7652C5.46387 15.8732 5.46387 15.8732 5.46387 15.7652C5.56894 15.7652 5.77908 15.7652 5.77908 15.6572L5.46387 15.7652Z" fill="white"/>
<path d="M19.2281 12.0939H19.123C19.123 12.2019 19.123 12.0939 19.2281 12.0939Z" fill="white"/>
<path d="M22.801 11.986L22.5908 12.0939C22.6959 12.0939 22.801 11.986 22.801 11.986Z" fill="white"/>
<path d="M16.6013 13.8217L16.3911 13.9296C16.7063 13.8217 16.6013 13.8217 16.6013 13.8217Z" fill="white"/>
<path d="M23.3263 11.554C23.2212 11.554 23.2212 11.554 23.2212 11.6619C23.2212 11.554 23.3263 11.554 23.3263 11.554Z" fill="white"/>
<path d="M6.09443 16.6292C5.98936 16.7371 6.09443 16.7371 6.09443 16.6292V16.6292Z" fill="white"/>
<path d="M24.5868 11.2301C24.1665 11.3381 23.5361 11.4461 23.2208 11.554H23.1158C22.8005 11.662 22.1701 11.878 22.065 11.878C21.8549 11.77 20.2788 12.4179 20.2788 12.3099L19.4382 12.5259C18.9129 12.6338 18.7027 12.7418 18.4926 12.8498C17.652 13.0658 17.5469 13.0658 16.9165 13.3897H16.8114C16.6013 13.4977 15.6556 13.6057 14.815 13.9296C14.815 13.9296 14.815 13.9296 14.9201 13.9296C13.9745 14.2536 12.8187 14.4695 12.3984 14.6855L11.7679 14.9015C12.5034 14.6855 11.6629 15.0094 11.9781 14.9015C11.6629 15.0094 11.2426 15.1174 11.5578 15.0094H11.6629C11.7679 14.9015 10.7172 15.2254 10.7172 15.2254C9.2462 15.6573 7.77519 15.9813 6.30417 16.4132H6.51432L5.98895 16.5212C5.88388 16.5212 5.77881 16.5212 6.1991 16.4132C6.09403 16.4132 5.88388 16.5212 5.77881 16.5212C5.77881 16.6292 5.88388 16.6292 5.88388 16.7371C5.98895 16.7371 6.1991 16.6292 6.40924 16.6292C6.40924 16.6292 6.1991 16.7371 6.09403 16.7371C6.30417 16.7371 6.40924 16.6292 6.61939 16.6292C6.61939 16.6292 6.30417 16.7371 5.98895 16.8451C6.30417 16.7371 6.61939 16.6292 7.14475 16.5212C7.24982 16.5212 7.3549 16.4132 7.56504 16.4132L7.3549 16.5212C7.67011 16.3052 7.98533 16.3052 8.40562 16.1972C7.67011 16.4132 8.19548 16.1972 7.88026 16.3052C8.82591 15.8733 8.40562 16.1972 9.45634 15.8733C9.2462 15.8733 9.03606 15.9813 9.2462 15.8733C9.45635 15.8733 9.77156 15.7653 9.87663 15.7653C10.6121 15.5493 9.77156 15.7653 10.0868 15.6573C10.2969 15.6573 10.402 15.5493 10.7172 15.4414C11.5578 15.2254 10.9274 15.3334 11.6629 15.1174L11.3476 15.2254L11.7679 15.1174L11.5578 15.2254C11.9781 15.1174 12.0832 15.0094 12.5034 14.9015C12.3984 14.9015 12.6085 14.7935 12.9237 14.6855C13.1339 14.6855 12.8187 14.7935 13.344 14.5775C13.239 14.6855 13.1339 14.6855 12.9237 14.6855L12.8187 14.7935C13.1339 14.7935 13.4491 14.5775 13.6592 14.5775C13.5542 14.5775 13.5542 14.5775 13.4491 14.5775L14.1846 14.3615C14.2897 14.3615 14.1846 14.3615 14.0795 14.4695C14.1846 14.4695 14.2897 14.3615 14.6049 14.3615C14.4998 14.3615 14.6049 14.4695 14.2897 14.5775L15.0252 14.3615C15.0252 14.3615 15.3404 14.2536 15.3404 14.3615C15.7607 14.2536 16.2861 14.0376 16.8114 13.9296C16.8114 13.9296 16.9165 13.9296 17.0216 13.8216C17.5469 13.7137 17.9672 13.6057 18.4926 13.3897H18.8078C19.2281 13.2817 18.3875 13.3897 19.123 13.1738C19.6484 12.9578 19.3332 13.1738 19.5433 13.1738C19.8585 13.0658 20.2788 12.8498 20.8042 12.7418C20.594 12.8498 20.489 12.8498 20.3839 12.8498L20.8042 12.7418C20.0687 12.9578 19.6484 12.9578 20.0687 12.9578C20.1737 12.8498 21.5397 12.5259 21.5397 12.4179H21.7498C21.6448 12.4179 21.6448 12.4179 21.6448 12.4179C22.1701 12.3099 21.96 12.2019 22.5904 12.0939C22.8005 12.0939 22.9056 11.986 22.8005 12.0939L23.3259 11.878C23.431 11.878 23.431 11.878 23.3259 11.878L23.9563 11.662C24.0614 11.662 24.2716 11.554 24.3766 11.4461C24.2716 11.4461 24.5868 11.4461 24.3766 11.4461L24.7969 11.3381C25.0071 11.3381 24.5868 11.4461 24.3766 11.554C24.7969 11.554 24.6919 11.4461 25.5324 11.2301L25.1121 11.3381C25.2172 11.3381 25.4274 11.3381 25.6375 11.2301C25.5324 11.2301 25.4274 11.2301 25.6375 11.1221C25.7426 11.0141 25.7426 10.7982 25.8476 10.6902C25.6375 10.7982 25.0071 11.0141 24.5868 11.2301C24.7969 11.1221 24.6919 11.1221 24.5868 11.2301ZM25.6375 11.2301C25.5324 11.2301 25.3223 11.3381 25.2172 11.3381C25.4274 11.2301 25.5324 11.2301 25.6375 11.2301Z" fill="white"/>
<path d="M19.0181 13.1737C19.1231 13.1737 19.3333 13.0657 19.4384 13.0657C19.2282 13.1737 19.0181 13.1737 19.0181 13.1737Z" fill="white"/>
<path d="M22.801 13.0657L22.5908 13.1737C22.6959 13.0657 22.801 13.0657 22.801 13.0657Z" fill="white"/>
<path d="M16.6013 14.9014L16.3911 15.0093C16.7063 14.9014 16.6013 14.9014 16.6013 14.9014Z" fill="white"/>
<path d="M23.3263 12.5259C23.2212 12.5259 23.2212 12.5259 23.2212 12.6339L23.3263 12.5259Z" fill="white"/>
<path d="M24.5868 12.2019C24.1665 12.3099 23.5361 12.4179 23.2209 12.5259H23.1158C22.8006 12.6338 22.1701 12.8498 22.0651 12.8498C21.8549 12.7418 20.2788 13.3897 20.2788 13.2817L19.4383 13.4977C18.9129 13.6057 18.7027 13.7137 18.4926 13.8216C17.652 14.0376 17.547 14.0376 16.9165 14.3615H16.8114C16.6013 14.4695 15.6556 14.5775 14.8151 14.9015C14.8151 14.9015 14.8151 14.9015 14.9201 14.9015C13.9745 15.2254 12.8187 15.4414 12.3984 15.6573L11.768 15.8733C12.5035 15.6573 11.6629 15.9813 11.9781 15.8733C11.6629 15.9813 11.2426 16.0892 11.5578 15.9813H11.6629C11.768 15.8733 10.7172 16.1972 10.7172 16.1972C9.24623 16.6292 7.77521 16.9531 6.3042 17.385H6.51434H6.40927C6.40927 17.493 6.51434 17.493 6.51434 17.601C6.51434 17.601 6.51434 17.601 6.61942 17.601C6.61942 17.601 6.61942 17.601 6.51434 17.601C6.72449 17.601 6.93463 17.493 7.14478 17.385C7.24985 17.385 7.35492 17.277 7.56507 17.277L7.35492 17.385C7.77521 17.277 8.09043 17.1691 8.51072 17.0611C7.77521 17.277 8.30058 17.0611 7.98536 17.1691C8.82594 16.9531 8.40565 17.1691 9.45637 16.9531C9.24623 16.9531 9.03608 17.0611 9.24623 16.9531C9.45637 16.9531 9.77159 16.8451 9.87666 16.8451C10.6122 16.6292 9.77159 16.8451 10.0868 16.7371C10.297 16.7371 10.402 16.6292 10.7172 16.5212C11.5578 16.3052 10.9274 16.4132 11.6629 16.1972L11.3477 16.3052L11.768 16.1972L11.5578 16.3052C11.9781 16.1972 12.0832 16.0892 12.5035 15.9813C12.3984 15.9813 12.6085 15.8733 12.9238 15.7653C13.1339 15.7653 12.8187 15.8733 13.3441 15.6573C13.239 15.7653 13.1339 15.7653 12.9238 15.7653L12.8187 15.8733C13.1339 15.8733 13.4491 15.6573 13.6593 15.6573C13.5542 15.6573 13.5542 15.6573 13.4491 15.6573L14.1846 15.4414C14.2897 15.4414 14.1846 15.4414 14.0796 15.5493C14.1846 15.5493 14.2897 15.4414 14.6049 15.4414C14.4999 15.4414 14.6049 15.5493 14.2897 15.6573L15.0252 15.4414C15.0252 15.4414 15.3404 15.3334 15.3404 15.4414C15.7607 15.3334 16.2861 15.1174 16.8114 15.0094C16.8114 15.0094 16.9165 15.0094 17.0216 14.9015C17.547 14.7935 17.9672 14.6855 18.4926 14.4695H18.8078C19.2281 14.3615 18.3875 14.4695 19.123 14.2536C19.6484 14.0376 19.3332 14.2536 19.5433 14.2536C19.8585 14.1456 20.2788 13.9296 20.8042 13.8216C20.5941 13.9296 20.489 13.9296 20.3839 13.9296L20.8042 13.8216C20.3839 14.0376 20.0687 14.0376 20.3839 14.0376C20.489 13.9296 21.8549 13.6057 21.8549 13.4977H22.0651C21.96 13.4977 21.96 13.4977 21.96 13.4977C22.4854 13.3897 22.2752 13.2817 22.9056 13.1738C23.1158 13.1738 23.2209 13.0658 23.1158 13.1738L23.6412 12.9578C23.7462 12.9578 23.7462 12.9578 23.6412 12.9578L24.2716 12.7418C24.3767 12.7418 24.5868 12.6338 24.6919 12.5259C24.5868 12.5259 24.902 12.5259 24.6919 12.5259L25.1122 12.4179C25.3223 12.4179 24.902 12.5259 24.6919 12.6338C25.0071 12.6338 25.0071 12.5259 25.5325 12.4179C25.6375 12.3099 25.6375 12.0939 25.7426 11.986C25.1122 11.986 24.7969 12.0939 24.5868 12.2019C24.7969 12.2019 24.6919 12.2019 24.5868 12.2019Z" fill="white"/>
<path d="M22.4854 13.2817V13.1737H22.3804L22.4854 13.2817Z" fill="white"/>
<path d="M19.0181 14.2535C19.1231 14.2535 19.3333 14.1455 19.4384 14.1455C19.2282 14.2535 19.0181 14.2535 19.0181 14.2535Z" fill="white"/>
<path d="M22.801 14.1455L22.5908 14.2535C22.6959 14.1455 22.801 14.1455 22.801 14.1455Z" fill="white"/>
<path d="M16.6013 15.9812L16.3911 16.0892C16.7063 15.9812 16.6013 15.9812 16.6013 15.9812Z" fill="white"/>
<path d="M23.3263 13.6056C23.2212 13.6056 23.2212 13.6056 23.2212 13.7136C23.2212 13.6056 23.3263 13.6056 23.3263 13.6056Z" fill="white"/>
<path d="M24.6922 13.6056C24.5871 13.6056 24.482 13.6056 24.377 13.6056C24.482 13.7136 24.5871 13.6056 24.6922 13.6056Z" fill="white"/>
<path d="M24.5867 13.2816C24.1665 13.3896 23.536 13.4976 23.2208 13.6056H23.1157C22.8005 13.7136 22.1701 13.9295 22.065 13.9295C21.8549 13.8215 20.2788 14.4694 20.2788 14.3614L19.4382 14.5774C18.9128 14.6854 18.7027 14.7934 18.4925 14.9014C17.652 15.1173 17.5469 15.1173 16.9165 15.4413H16.8114C16.6012 15.5492 15.6556 15.6572 14.815 15.9812C14.815 15.9812 14.815 15.9812 14.9201 15.9812C13.9744 16.3051 12.8186 16.5211 12.3983 16.737L11.7679 16.953C12.5034 16.737 11.6628 17.061 11.978 16.953C11.6628 17.061 11.2425 17.169 11.5578 17.061H11.6628C11.7679 16.953 10.7172 17.2769 10.7172 17.2769C9.45631 17.6009 8.09037 18.0328 6.93457 18.3568C7.03964 18.4647 7.03964 18.5727 7.14472 18.6807C7.24979 18.6807 7.35486 18.5727 7.45993 18.5727L7.24979 18.6807C7.67008 18.3568 7.9853 18.3568 8.40558 18.2488C7.67008 18.4647 8.19544 18.2488 7.88022 18.3568C8.82587 18.0328 8.40558 18.2488 9.45631 17.9248C9.24616 17.9248 9.03602 18.0328 9.24616 17.9248C9.45631 17.9248 9.77153 17.8168 9.8766 17.8168C10.6121 17.6009 9.77153 17.8168 10.0867 17.7089C10.2969 17.7089 10.402 17.6009 10.7172 17.4929C11.5578 17.2769 10.9273 17.3849 11.6628 17.169L11.3476 17.2769L11.7679 17.169L11.5578 17.2769C11.978 17.169 12.0831 17.061 12.5034 16.953C12.3983 16.953 12.6085 16.845 12.9237 16.737C13.1338 16.737 12.8186 16.845 13.344 16.6291C13.2389 16.737 13.1338 16.737 12.9237 16.737L12.8186 16.845C13.1338 16.845 13.4491 16.6291 13.6592 16.6291C13.5541 16.6291 13.5541 16.6291 13.4491 16.6291L14.1846 16.4131C14.2896 16.4131 14.1846 16.4131 14.0795 16.5211C14.1846 16.5211 14.2896 16.4131 14.6049 16.4131C14.4998 16.4131 14.6049 16.5211 14.2896 16.6291L15.0252 16.4131C15.0252 16.4131 15.3404 16.3051 15.3404 16.4131C15.7607 16.3051 16.286 16.0891 16.8114 15.9812C16.8114 15.9812 16.9165 15.9812 17.0215 15.8732C17.5469 15.7652 17.9672 15.6572 18.4925 15.4413H18.8078C19.228 15.3333 18.3875 15.4413 19.123 15.2253C19.6483 15.0093 19.3331 15.2253 19.5433 15.2253C19.8585 15.1173 20.2788 14.9014 20.8041 14.7934C20.594 14.9014 20.4889 14.9014 20.3838 14.9014L20.8041 14.7934C20.3838 15.0093 20.0686 15.0093 20.3838 15.0093C20.4889 14.9014 21.8549 14.5774 21.8549 14.4694H22.065C21.9599 14.4694 21.9599 14.4694 21.9599 14.4694C22.4853 14.3614 22.2751 14.2535 22.9056 14.1455C23.1157 14.1455 23.2208 14.0375 23.1157 14.1455L23.6411 13.9295C23.7462 13.9295 23.7462 13.9295 23.6411 13.9295L24.2715 13.7136C24.3766 13.7136 24.5867 13.6056 24.6918 13.4976C24.5867 13.4976 24.902 13.4976 24.6918 13.4976L25.007 13.3896C25.1121 13.2816 25.1121 13.1737 25.2172 13.0657C24.7969 13.1737 24.6918 13.1737 24.5867 13.2816C24.7969 13.1737 24.6918 13.1737 24.5867 13.2816Z" fill="white"/>
<path d="M19.0181 15.3333C19.1231 15.3333 19.3333 15.2253 19.4384 15.2253C19.2282 15.2253 19.0181 15.2253 19.0181 15.3333Z" fill="white"/>
<path d="M22.801 15.2253L22.5908 15.3333C22.6959 15.2253 22.801 15.2253 22.801 15.2253Z" fill="white"/>
<path d="M16.6013 16.953L16.3911 17.061C16.7063 16.953 16.6013 16.953 16.6013 16.953Z" fill="white"/>
<path d="M23.3263 14.6854C23.2212 14.6854 23.2212 14.6854 23.2212 14.7934C23.2212 14.6854 23.3263 14.6854 23.3263 14.6854Z" fill="white"/>
<path d="M23.1162 14.6854C22.8009 14.7934 22.1705 15.0094 22.0654 15.0094C21.8553 14.9014 20.2792 15.5493 20.2792 15.4413L19.4386 15.6573C18.9133 15.7653 18.7031 15.8732 18.493 15.9812C17.6524 16.1972 17.5473 16.1972 16.9169 16.5211H16.8118C16.6017 16.6291 15.656 16.7371 14.8154 17.061C14.8154 17.061 14.8154 17.061 14.9205 17.061C13.9748 17.385 12.8191 17.6009 12.3988 17.8169L11.7683 18.0329C12.5038 17.8169 11.6633 18.1408 11.9785 18.0329C11.6633 18.1408 11.243 18.2488 11.5582 18.1408H11.6633C11.7683 18.0329 10.7176 18.3568 10.7176 18.3568C9.66688 18.6808 8.51108 19.0047 7.56543 19.2207C7.6705 19.3286 7.77557 19.4366 7.77557 19.5446C7.98572 19.5446 8.09079 19.4366 8.30094 19.4366C7.56543 19.6526 8.09079 19.4366 7.77557 19.5446C8.8263 19.0047 8.40601 19.3286 9.45673 19.0047C9.24659 19.0047 9.03644 19.1127 9.24659 19.0047C9.45673 19.0047 9.77195 18.8967 9.87702 18.8967C10.6125 18.6808 9.77195 18.8967 10.0872 18.7887C10.2973 18.7887 10.4024 18.6808 10.7176 18.5728C11.5582 18.3568 10.9277 18.4648 11.6633 18.2488L11.348 18.3568L11.7683 18.2488L11.5582 18.3568C11.9785 18.2488 12.0835 18.1408 12.5038 18.0329C12.3988 18.0329 12.6089 17.9249 12.9241 17.8169C13.1343 17.8169 12.8191 17.9249 13.3444 17.7089C13.2393 17.8169 13.1343 17.8169 12.9241 17.8169L12.8191 17.9249C13.1343 17.9249 13.4495 17.7089 13.6596 17.7089C13.5546 17.7089 13.5546 17.7089 13.4495 17.7089L14.185 17.493C14.2901 17.493 14.185 17.493 14.0799 17.6009C14.185 17.6009 14.2901 17.493 14.6053 17.493C14.5002 17.493 14.6053 17.6009 14.2901 17.7089L15.0256 17.493C15.0256 17.493 15.3408 17.385 15.3408 17.493C15.7611 17.385 16.2864 17.169 16.8118 17.061C16.8118 17.061 16.9169 17.061 17.022 16.9531C17.5473 16.8451 17.9676 16.7371 18.493 16.5211H18.8082C19.2285 16.4131 18.3879 16.5211 19.1234 16.3052C19.6488 16.0892 19.3335 16.3052 19.5437 16.3052C19.8589 16.1972 20.2792 15.9812 20.8046 15.8732C20.5944 15.9812 20.4893 15.9812 20.3843 15.9812L20.8046 15.8732C20.3843 16.0892 20.0691 16.0892 20.3843 16.0892C20.4893 15.9812 21.8553 15.6573 21.8553 15.5493H22.0654C21.9604 15.5493 21.9604 15.5493 21.9604 15.5493C22.4857 15.4413 22.2756 15.3333 22.906 15.2254C23.1162 15.2254 23.2212 15.1174 23.1162 15.2254L23.6415 15.0094C23.7466 15.0094 23.7466 15.0094 23.6415 15.0094L24.272 14.7934C24.272 14.7934 24.272 14.7934 24.377 14.7934C24.4821 14.6854 24.4821 14.5775 24.5872 14.4695C23.9567 14.4695 23.4314 14.5775 23.1162 14.6854Z" fill="white"/>
<path d="M19.0181 16.4132C19.1231 16.4132 19.3333 16.3052 19.4384 16.3052C19.2282 16.3052 19.0181 16.3052 19.0181 16.4132Z" fill="white"/>
<path d="M22.801 16.1971L22.5908 16.3051C22.6959 16.3051 22.801 16.1971 22.801 16.1971Z" fill="white"/>
<path d="M16.6013 18.0328L16.3911 18.1408C16.7063 18.0328 16.6013 18.0328 16.6013 18.0328Z" fill="white"/>
<path d="M23.3263 15.6572C23.2212 15.6572 23.2212 15.6572 23.2212 15.7652C23.2212 15.7652 23.3263 15.7652 23.3263 15.6572Z" fill="white"/>
<path d="M23.1161 15.7652C22.8009 15.8732 22.1704 16.0892 22.0654 16.0892C21.8552 15.9812 20.2791 16.6291 20.2791 16.5211L19.4386 16.737C18.9132 16.845 18.703 16.953 18.4929 17.061C17.6523 17.2769 17.5472 17.2769 16.9168 17.6009H16.8117C16.6016 17.7089 15.6559 17.8169 14.8154 18.1408C14.8154 18.1408 14.8154 18.1408 14.9204 18.1408C13.9748 18.4647 12.819 18.6807 12.3987 18.8967L11.7683 19.1126C12.5038 18.8967 11.6632 19.2206 11.9784 19.1126C11.6632 19.2206 11.2429 19.3286 11.5581 19.2206H11.6632C11.7683 19.1126 10.7175 19.4366 10.7175 19.4366C9.87696 19.6525 9.03638 19.8685 8.1958 20.0845C8.40595 20.0845 8.40595 20.1924 8.51102 20.1924C8.72116 20.1924 8.82624 20.1924 9.45667 19.9765C9.24653 19.9765 9.03638 20.0845 9.24653 19.9765C9.45667 19.9765 9.77189 19.8685 9.87696 19.8685C10.6125 19.6525 9.77189 19.8685 10.0871 19.7605C10.2973 19.7605 10.4023 19.6525 10.7175 19.5446C11.5581 19.3286 10.9277 19.4366 11.6632 19.2206L11.2429 19.4366L11.6632 19.3286L11.5581 19.4366C11.9784 19.3286 12.0835 19.2206 12.5038 19.1126C12.3987 19.1126 12.6088 19.0046 12.9241 18.8967C13.1342 18.8967 12.819 19.0046 13.3444 18.7887C13.2393 18.8967 13.1342 18.8967 12.9241 18.8967L12.819 19.0046C13.1342 19.0046 13.4494 18.7887 13.6596 18.7887C13.5545 18.7887 13.5545 18.7887 13.4494 18.7887L14.1849 18.5727C14.29 18.5727 14.1849 18.5727 14.0799 18.6807C14.1849 18.6807 14.29 18.5727 14.6052 18.5727C14.5001 18.5727 14.6052 18.6807 14.29 18.7887L15.0255 18.5727C15.0255 18.5727 15.3407 18.4647 15.3407 18.5727C15.761 18.4647 16.2864 18.2488 16.8117 18.1408C16.8117 18.1408 16.9168 18.1408 17.0219 18.0328C17.5473 17.9248 17.9675 17.8169 18.4929 17.6009H18.8081C19.2284 17.4929 18.3878 17.6009 19.1233 17.3849C19.6487 17.169 19.3335 17.3849 19.5436 17.3849C19.8588 17.2769 20.2791 17.061 20.8045 16.953C20.5944 17.061 20.4893 17.061 20.3842 17.061L20.8045 16.953C20.3842 17.169 20.069 17.169 20.3842 17.169C20.4893 17.061 21.8552 16.737 21.8552 16.6291H22.0654C21.9603 16.6291 21.9603 16.6291 21.9603 16.6291C22.4857 16.5211 22.2755 16.4131 22.9059 16.3051C23.1161 16.3051 23.2212 16.1971 23.1161 16.3051L23.6415 16.0892C23.7465 16.0892 23.7465 16.0892 23.6415 16.0892H23.7465C23.8516 15.9812 23.9567 15.7652 23.9567 15.6572C23.4313 15.6572 23.3262 15.7652 23.1161 15.7652Z" fill="white"/>
<path d="M22.4854 16.4132L22.3804 16.3052L22.4854 16.4132Z" fill="white"/>
<path d="M19.0181 17.385C19.1231 17.385 19.3333 17.277 19.4384 17.277C19.2282 17.385 19.0181 17.385 19.0181 17.385Z" fill="white"/>
<path d="M16.6013 19.1127L16.3911 19.2207C16.7063 19.1127 16.6013 19.1127 16.6013 19.1127Z" fill="white"/>
<path d="M20.279 17.6009L19.4384 17.8169C18.913 17.9248 18.7029 18.0328 18.4927 18.1408C17.6522 18.3568 17.5471 18.3568 16.9167 18.6807H16.8116C16.6014 18.7887 15.6558 18.8967 14.8152 19.2206C14.8152 19.2206 14.8152 19.2206 14.9203 19.2206C13.9746 19.5446 12.8188 19.7605 12.3985 19.9765L11.7681 20.1924C12.5036 19.9765 11.663 20.3004 11.9783 20.1924C11.663 20.3004 11.2427 20.4084 11.558 20.3004H11.663C11.7681 20.1924 10.7174 20.5164 10.7174 20.5164C10.0869 20.7323 9.56159 20.8403 8.93115 21.0563C9.03622 21.1643 9.1413 21.2723 9.24637 21.3802C9.45651 21.3802 9.66666 21.2723 9.77173 21.2723C10.5072 21.0563 9.66666 21.2723 9.98188 21.1643C10.192 21.1643 10.2971 21.0563 10.6123 20.9483C11.4529 20.7323 10.8225 20.8403 11.558 20.6244L11.2427 20.5164L11.663 20.4084L11.558 20.5164C11.9783 20.4084 12.0833 20.3004 12.5036 20.1924C12.3985 20.1924 12.6087 20.0845 12.9239 19.9765C13.1341 19.9765 12.8188 20.0845 13.3442 19.8685C13.2391 19.9765 13.1341 19.9765 12.9239 19.9765L12.8188 20.0845C13.1341 20.0845 13.4493 19.8685 13.6594 19.8685C13.5543 19.8685 13.5543 19.8685 13.4493 19.8685L14.1848 19.6525C14.2898 19.6525 14.1848 19.6525 14.0797 19.7605C14.1848 19.7605 14.2898 19.6525 14.6051 19.6525C14.5 19.6525 14.6051 19.7605 14.2898 19.8685L15.0254 19.6525C15.0254 19.6525 15.3406 19.5446 15.3406 19.6525C15.7609 19.5446 16.2862 19.3286 16.8116 19.2206C16.8116 19.2206 16.9167 19.2206 17.0217 19.1126C17.5471 19.0046 17.9674 18.8967 18.4927 18.6807H18.808C19.2283 18.5727 18.3877 18.6807 19.1232 18.4647C19.6485 18.2488 19.3333 18.4647 19.5435 18.4647C19.8587 18.3568 20.279 18.1408 20.8043 18.0328C20.5942 18.1408 20.4891 18.1408 20.3841 18.1408L20.8043 18.0328C20.3841 18.2488 20.0688 18.2488 20.3841 18.2488C20.4891 18.1408 21.8551 17.8169 21.8551 17.7089H22.0652C21.9601 17.7089 21.9601 17.7089 21.9601 17.7089C22.4855 17.6009 22.2754 17.4929 22.9058 17.3849C22.9058 17.3849 22.9058 17.3849 23.0109 17.3849C23.1159 17.2769 23.221 17.169 23.221 16.953C22.9058 17.061 22.4855 17.169 22.3804 17.2769C21.75 17.169 20.279 17.8169 20.279 17.6009Z" fill="white"/>
<path d="M19.0181 18.4648C19.1231 18.4648 19.3333 18.3568 19.4384 18.3568C19.2282 18.4648 19.0181 18.3568 19.0181 18.4648Z" fill="white"/>
<path d="M16.6013 20.0845L16.3911 20.1925C16.7063 20.1925 16.6013 20.1925 16.6013 20.0845Z" fill="white"/>
<path d="M20.2791 18.6807L19.4385 18.8967C18.9132 19.0046 18.703 19.1126 18.4929 19.2206C17.6523 19.4366 17.5472 19.4366 16.9168 19.7605H16.8117C16.6016 19.8685 15.6559 19.9765 14.8154 20.3004C14.8154 20.3004 14.8154 20.3004 14.9204 20.3004C13.9748 20.6244 12.819 20.8403 12.3987 21.0563L11.7683 21.2723C12.5038 21.0563 11.6632 21.3802 11.9784 21.2723C11.6632 21.3802 11.2429 21.4882 11.5581 21.3802H11.6632C11.7683 21.2723 10.7175 21.5962 10.7175 21.5962C10.5074 21.4882 10.1922 21.5962 9.87695 21.7042C9.98203 21.8122 10.0871 21.9201 10.1922 21.9201C10.2972 21.9201 10.4023 21.8122 10.7175 21.7042C11.5581 21.4882 10.9277 21.5962 11.6632 21.3802L11.2429 21.5962L11.6632 21.4882H11.5581C11.9784 21.3802 12.0835 21.2723 12.5038 21.1643C12.3987 21.1643 12.6088 21.0563 12.9241 20.9483C13.1342 20.9483 12.819 21.0563 13.3443 20.8403C13.2393 20.9483 13.1342 20.9483 12.9241 20.9483L12.819 21.0563C13.1342 21.0563 13.4494 20.8403 13.6596 20.8403C13.5545 20.8403 13.5545 20.8403 13.4494 20.8403L14.1849 20.6244C14.29 20.6244 14.1849 20.6244 14.0799 20.7323C14.1849 20.7323 14.29 20.6244 14.6052 20.6244C14.5001 20.6244 14.6052 20.7323 14.29 20.8403L15.0255 20.6244C15.0255 20.6244 15.3407 20.5164 15.3407 20.6244C15.761 20.5164 16.2864 20.3004 16.8117 20.1924C16.8117 20.1924 16.9168 20.1924 17.0219 20.0845C17.5472 19.9765 17.9675 19.8685 18.4929 19.6525H18.8081C19.2284 19.5446 18.3878 19.6525 19.1233 19.4366C19.6487 19.2206 19.3335 19.4366 19.5436 19.4366C19.8588 19.3286 20.2791 19.1126 20.8045 19.0046C20.5943 19.1126 20.4893 19.1126 20.3842 19.1126L20.8045 19.0046C20.3842 19.2206 20.069 19.2206 20.3842 19.2206C20.4893 19.1126 21.8552 18.7887 21.8552 18.6807H22.0654C22.1704 18.5727 22.2755 18.4647 22.3806 18.2488C21.7501 18.2488 20.2791 18.7887 20.2791 18.6807Z" fill="white"/>
<path d="M19.0181 19.5446C19.1231 19.5446 19.3333 19.4366 19.4384 19.4366C19.2282 19.4366 19.0181 19.4366 19.0181 19.5446Z" fill="white"/>
<path d="M16.6013 21.1643L16.3911 21.2723C16.7063 21.1643 16.6013 21.1643 16.6013 21.1643Z" fill="white"/>
<path d="M20.2788 19.7605L19.4382 19.9765C18.9128 20.0845 18.7027 20.1924 18.4926 20.3004C17.652 20.5164 17.5469 20.5164 16.9165 20.8403H16.8114C16.6013 20.9483 15.6556 21.0563 14.815 21.3802C14.815 21.3802 14.815 21.3802 14.9201 21.3802C13.9744 21.7042 12.8186 21.9201 12.3984 22.1361L11.7679 22.3521C12.5034 22.1361 11.6628 22.46 11.9781 22.3521C11.6628 22.46 11.2426 22.568 11.5578 22.46H11.6628C11.7679 22.3521 10.9273 22.568 10.8223 22.676C10.9273 22.784 11.0324 22.784 11.1375 22.892C11.2426 22.892 11.1375 22.784 11.5578 22.676H11.2426L11.6628 22.568H11.5578C11.9781 22.46 12.0831 22.3521 12.5034 22.2441C12.3984 22.2441 12.6085 22.1361 12.9237 22.0281C13.1339 22.0281 12.8186 22.1361 13.344 21.9201C13.2389 22.0281 13.1339 22.0281 12.9237 22.0281L12.8186 22.1361C13.1339 22.1361 13.4491 21.9201 13.6592 21.9201C13.5541 21.9201 13.5541 21.9201 13.4491 21.9201L14.1846 21.7042C14.2897 21.7042 14.1846 21.7042 14.0795 21.8122C14.1846 21.8122 14.2897 21.7042 14.6049 21.7042C14.4998 21.7042 14.6049 21.8122 14.2897 21.9201L15.0252 21.7042C15.0252 21.7042 15.3404 21.5962 15.3404 21.7042C15.7607 21.5962 16.286 21.3802 16.8114 21.2723C16.8114 21.2723 16.9165 21.2723 17.0215 21.1643C17.5469 21.0563 17.9672 20.9483 18.4926 20.7323H18.8078C19.2281 20.6244 18.3875 20.7323 19.123 20.5164C19.6484 20.3004 19.3331 20.5164 19.5433 20.5164C19.8585 20.4084 20.2788 20.1924 20.8041 20.0845C20.594 20.1924 20.4889 20.1924 20.3839 20.1924L20.8041 20.0845C20.3839 20.3004 20.0686 20.3004 20.3839 20.3004C20.3839 20.1924 20.6991 20.1924 21.0143 20.0845C21.1194 19.8685 21.3295 19.7605 21.4346 19.5446C20.6991 19.6525 20.2788 19.7605 20.2788 19.7605Z" fill="white"/>
<path d="M19.0181 20.5164C19.1231 20.5164 19.3333 20.4084 19.4384 20.4084C19.2282 20.5164 19.0181 20.5164 19.0181 20.5164Z" fill="white"/>
<path d="M16.6013 22.2441L16.3911 22.3521C16.7063 22.2441 16.6013 22.2441 16.6013 22.2441Z" fill="white"/>
<path d="M19.4382 21.0564C18.9128 21.1644 18.7027 21.2724 18.4925 21.3803C17.6519 21.5963 17.5469 21.5963 16.9164 21.9202H16.8114C16.6012 22.0282 15.6556 22.1362 14.815 22.4602C14.815 22.4602 14.815 22.4602 14.9201 22.4602C13.9744 22.7841 12.8186 23.0001 12.3983 23.216L11.978 23.324C12.1882 23.324 12.0831 23.324 12.0831 23.324C12.1882 23.432 12.2932 23.432 12.3983 23.432C12.3983 23.432 12.3983 23.432 12.5034 23.432C12.3983 23.432 12.6085 23.324 12.9237 23.216C13.1338 23.216 12.8186 23.324 13.344 23.108C13.2389 23.216 13.1338 23.216 12.9237 23.216L12.8186 23.324C13.1338 23.324 13.449 23.108 13.6592 23.108C13.5541 23.108 13.5541 23.108 13.449 23.108L14.1845 22.8921C14.2896 22.8921 14.1845 22.8921 14.0795 23.0001C14.1845 23.0001 14.2896 22.8921 14.6048 22.8921C14.4998 22.8921 14.6048 23.0001 14.2896 23.108L15.0251 22.8921C15.0251 22.8921 15.3403 22.7841 15.3403 22.8921C15.7606 22.7841 16.286 22.5681 16.8114 22.4602C16.8114 22.4602 16.9164 22.4602 17.0215 22.3522C17.5469 22.2442 17.9672 22.1362 18.4925 21.9202H18.8077C19.228 21.8123 18.3874 21.9202 19.123 21.7043C19.6483 21.4883 19.3331 21.7043 19.5432 21.7043C19.5432 21.7043 19.5432 21.7043 19.6483 21.7043C19.8585 21.4883 20.0686 21.3803 20.1737 21.1644L19.4382 21.0564Z" fill="white"/>
<path d="M19.0181 21.5963C19.1231 21.5963 19.1231 21.5963 19.2282 21.4883C19.1231 21.5963 19.0181 21.5963 19.0181 21.5963Z" fill="white"/>
<path d="M16.6013 23.324L16.3911 23.432C16.7063 23.324 16.6013 23.324 16.6013 23.324Z" fill="white"/>
<path d="M16.8114 22.8921C16.6013 23 15.6556 23.108 14.8151 23.432C14.8151 23.432 14.8151 23.432 14.9201 23.432C14.4999 23.5399 13.9745 23.6479 13.5542 23.7559C13.8694 23.7559 14.1846 23.8639 14.3948 23.8639C14.4999 23.8639 14.6049 23.8639 14.71 23.8639C14.71 23.8639 15.0252 23.7559 15.0252 23.8639C15.4455 23.7559 15.9709 23.5399 16.4962 23.432C16.4962 23.432 16.6013 23.432 16.7064 23.324C16.8114 23.324 16.8114 23.324 16.9165 23.216C17.3368 23 17.652 22.7841 18.0723 22.5681C17.652 22.5681 17.4419 22.6761 16.8114 22.8921Z" fill="white"/>
</g>
<defs>
<clipPath id="clip0_73_785">
<rect width="29" height="46" fill="white"/>
</clipPath>
</defs>
</svg>
